STARTFONT 2.3
FONT -FontForge-Righteous-Book-R-Normal--28-280-72-72-P-151-ISO10646-1
SIZE 28 72 72  4
FONTBOUNDINGBOX 36 36 -5 -8
COMMENT "Generated by fontforge, http://fontforge.sourceforge.net"
COMMENT "Copyright (c) 2011 by Brian J. Bonislawsky DBA Astigmatic (AOETI) (astigma@astigmatic.com), with ReservedFont Name "Righteous""
STARTPROPERTIES 40
FOUNDRY "FontForge"
FAMILY_NAME "Righteous"
WEIGHT_NAME "Book"
SLANT "R"
SETWIDTH_NAME "Normal"
ADD_STYLE_NAME ""
PIXEL_SIZE 28
POINT_SIZE 280
RESOLUTION_X 72
RESOLUTION_Y 72
SPACING "P"
AVERAGE_WIDTH 151
CHARSET_REGISTRY "ISO10646"
CHARSET_ENCODING "1"
FONTNAME_REGISTRY ""
CHARSET_COLLECTIONS "ISO8859-2 ISO8859-9 ISO8859-4 ISO10646-1"
BITS_PER_PIXEL 4
FONT_NAME "Righteous-Regular"
FACE_NAME "Righteous"
COPYRIGHT "Copyright (c) 2011 by Brian J. Bonislawsky DBA Astigmatic (AOETI) (astigma@astigmatic.com), with ReservedFont Name "Righteous""
FONT_VERSION "1.000"
FONT_ASCENT 22
FONT_DESCENT 6
UNDERLINE_POSITION -4
UNDERLINE_THICKNESS 1
X_HEIGHT 14
CAP_HEIGHT 19
RAW_ASCENT 799
RAW_DESCENT 200
NORM_SPACE 8
RELATIVE_WEIGHT 40
RELATIVE_SETWIDTH 50
SUPERSCRIPT_X 0
SUPERSCRIPT_Y 13
SUPERSCRIPT_SIZE 18
SUBSCRIPT_X 0
SUBSCRIPT_Y 3
SUBSCRIPT_SIZE 18
AVG_LOWERCASE_WIDTH 150
AVG_UPPERCASE_WIDTH 178
ENDPROPERTIES
CHARS 372
STARTCHAR space
ENCODING 32
SWIDTH 279 0
DWIDTH 8 0
BBX 1 1 0 0
BITMAP
00
ENDCHAR
STARTCHAR exclam
ENCODING 33
SWIDTH 274 0
DWIDTH 8 0
BBX 6 21 1 -1
BITMAP
599992
7FFFF2
6FFFF1
5FFFF1
4FFFF0
3FFFE0
3FFFD0
2FFFC0
1FFFB0
0FFFA0
0EFFA0
0DFF90
0CFF80
0CFF70
0BFF60
022210
04A920
2FFFD0
6FFFF2
4FFFE0
07DC40
ENDCHAR
STARTCHAR quotedbl
ENCODING 34
SWIDTH 409 0
DWIDTH 11 0
BBX 9 7 1 13
BITMAP
5999389990
8FFF3BFFF0
7FFF2AFFD0
5FFF19FFC0
4FFE07FFB0
3FFD06FF90
1887038850
ENDCHAR
STARTCHAR numbersign
ENCODING 35
SWIDTH 561 0
DWIDTH 16 0
BBX 14 14 1 3
BITMAP
00001222012220
00009FF909FF80
0000DFF50EFF40
0078FFF89FFF85
03FFFFFFFFFFF8
07FFFFFFFFFFF3
035FFF75FFF650
004FFE04FFE000
39BFFD9CFFD930
9FFFFFFFFFFF20
DFFFFFFFFFFD00
48FFD49FFC4300
0AFF80AFF80000
0BDD40CDD30000
ENDCHAR
STARTCHAR dollar
ENCODING 36
SWIDTH 458 0
DWIDTH 13 0
BBX 11 20 1 0
BITMAP
000069700000
0000BFC00000
0000BFC00000
0000BFC00000
019DFFFEEE00
1DFFFFFFFF00
7FFFFFFFFF00
BFF711111100
AFFB77762000
5FFFFFFFF800
09FFFFFFFF50
0048999BFFB0
23333338FFB0
CFFFFFFFFF70
CFFFFFFFFC00
9CCCEFEB7000
0000BFC00000
0000BFC00000
0000BFC00000
0000BFC00000
ENDCHAR
STARTCHAR percent
ENCODING 37
SWIDTH 685 0
DWIDTH 19 0
BBX 18 21 1 -1
BITMAP
03ADDA200000699300
2EFFFFD10002EFD000
9FFCCFF70009FF5000
DFD01EFB003FFC0000
EFA00BFD00BFF40000
EFA00BFD04FFB00000
DFD00EFC0CFF300000
9FFCCFF85FF9000000
2EFFFFE2DFE2000000
03BEEA27FF80000000
0000001EFE14897100
0000008FF68FFFFD20
000002FFD3FFFFFFA0
00000AFF58FF51CFE0
00003FFC0AFF008FF2
0000BFF30BFE007FF2
0004FFA00AFF109FF1
000DFF2006FFA6EFD0
006FF90001EFFFFF70
01EFE100004DFFF900
000000000000341000
ENDCHAR
STARTCHAR ampersand
ENCODING 38
SWIDTH 485 0
DWIDTH 14 0
BBX 11 20 1 0
BITMAP
000006A90000
000009FE0000
00001AFE2220
004CFFFFFFD0
04FFFFFFFFD0
0DFFECCCCCB0
4FFD10000000
5FFA00000000
3FFF53332000
0BFFFFFFA000
06FFFFFFA000
1EFFECCC8000
4FFD10000000
5FFA00000000
2FFF63333330
0AFFFFFFFFD0
01DFFFFFFFD0
0017AEFFBBA0
000009FE0000
000009FE0000
ENDCHAR
STARTCHAR quotesingle
ENCODING 39
SWIDTH 238 0
DWIDTH 7 0
BBX 5 7 1 13
BITMAP
599930
8FFF30
7FFF20
5FFF10
4FFE00
3FFD00
188700
ENDCHAR
STARTCHAR parenleft
ENCODING 40
SWIDTH 351 0
DWIDTH 10 0
BBX 9 26 1 -3
BITMAP
0000566620
0008FFFB00
003FFFE200
00CFFF7000
04FFFE1000
0AFFF80000
1FFFF20000
5FFFC00000
8FFF800000
BFFF400000
DFFF200000
EFFF100000
EFFF000000
EFFF000000
DFFF100000
CFFF300000
AFFF600000
7FFF900000
3FFFE00000
0DFFF40000
08FFFA0000
02FFFF1000
00BFFF8000
003FFFE100
0009FFFA00
0001BCCC20
ENDCHAR
STARTCHAR parenright
ENCODING 41
SWIDTH 351 0
DWIDTH 10 0
BBX 9 26 0 -3
BITMAP
3666500000
1DFFF50000
04FFFE1000
00AFFF9000
002FFFF100
000BFFF800
0005FFFD00
0000EFFF20
0000BFFF50
00007FFF80
00005FFFA0
00003FFFB0
00002FFFC0
00003FFFC0
00004FFFB0
00006FFF90
00009FFF70
0000CFFF40
0002FFFF10
0007FFFB00
000CFFF600
004FFFE100
00BFFF8000
04FFFE1000
0CFFF70000
4CCCA00000
ENDCHAR
STARTCHAR asterisk
ENCODING 42
SWIDTH 589 0
DWIDTH 17 0
BBX 15 16 1 8
BITMAP
0000034441000000
00000BFFF3000000
00000BFFF3000000
02200BFFF3004100
0BF92BFFF35CF600
5FFFFEFFFDFFFD00
CFFFFFFFFFFFFF50
2AFFFFFFFFFFE700
003CFFFFFFE71000
0001EFFFFF600000
000BFFFFFFF40000
00AFFFFDFFFE4000
07FFFF81DFFFE200
01CFFB003FFF7000
001BD10006F50000
0000200000300000
ENDCHAR
STARTCHAR plus
ENCODING 43
SWIDTH 485 0
DWIDTH 14 0
BBX 12 12 1 4
BITMAP
0001CCC80000
0001FFFA0000
0001FFFA0000
0001FFFA0000
BCCCFFFECCC6
EFFFFFFFFFF8
EFFFFFFFFFF8
DEEEFFFFEEE8
0001FFFA0000
0001FFFA0000
0001FFFA0000
0000AAA70000
ENDCHAR
STARTCHAR comma
ENCODING 44
SWIDTH 264 0
DWIDTH 7 0
BBX 5 8 1 -4
BITMAP
05A810
5FFFA0
9FFFF0
7FFFE0
09FFB0
00EF60
05FC00
004200
ENDCHAR
STARTCHAR hyphen
ENCODING 45
SWIDTH 528 0
DWIDTH 15 0
BBX 13 4 1 8
BITMAP
4CCCCCCCCCCC20
5FFFFFFFFFFF20
5FFFFFFFFFFF20
5EEEEEEEEEEE20
ENDCHAR
STARTCHAR period
ENCODING 46
SWIDTH 263 0
DWIDTH 7 0
BBX 5 5 1 -1
BITMAP
05A810
5FFFA0
9FFFE0
7FFFC0
09EB20
ENDCHAR
STARTCHAR slash
ENCODING 47
SWIDTH 490 0
DWIDTH 14 0
BBX 13 20 0 0
BITMAP
00000000299970
000000008FFF70
00000001EFFF10
00000006FFFA00
0000000CFFF400
0000003FFFC000
0000009FFF6000
000001FFFE1000
000007FFF90000
00000DFFF20000
00004FFFB00000
0000BFFF500000
0002FFFE000000
0008FFF8000000
000EFFF2000000
005FFFA0000000
00CFFF40000000
03FFFD00000000
09FFF700000000
1EFFE100000000
ENDCHAR
STARTCHAR zero
ENCODING 48
SWIDTH 642 0
DWIDTH 18 0
BBX 16 21 1 -1
BITMAP
000027BDCB720000
0008FFFFFFFF7000
009FFFFFFFFFF800
05FFFFFCCFFFFF40
0CFFFB1002BFFFC0
3FFFD100001DFFF3
7FFF70000007FFF6
AFFF30000002FFF9
BFFF00000000FFFB
CFFE00000000EFFC
CFFE00000000EFFC
CFFF00000000FFFB
BFFF20000001FFFA
8FFF50000005FFF8
5FFFA000000BFFF4
1EFFF600006FFFE0
08FFFFA66AFFFF80
01DFFFFFFFFFFD10
002DFFFFFFFFD200
00018DFFFFD81000
0000002442000000
ENDCHAR
STARTCHAR one
ENCODING 49
SWIDTH 317 0
DWIDTH 9 0
BBX 6 20 1 0
BITMAP
999999
EFFFFE
EFFFFE
EFFFFE
45FFFE
00FFFE
00FFFE
00FFFE
00FFFE
00FFFE
00FFFE
00FFFE
00FFFE
00FFFE
00FFFE
00FFFE
00FFFE
00FFFE
00FFFE
00FFFE
ENDCHAR
STARTCHAR two
ENCODING 50
SWIDTH 570 0
DWIDTH 16 0
BBX 14 20 1 0
BITMAP
09999999861000
0EFFFFFFFFE700
0EFFFFFFFFFF80
0EFFFFFFFFFFF3
045555556DFFF9
0000000003FFFD
0000000001FFFE
0000000007FFFC
00028BBCDFFFF7
008FFFFFFFFFD1
08FFFFFFFFFE30
2FFFFFFFFE9100
8FFFD533200000
BFFF4000000000
CFFF2000000000
CFFF2000000000
CFFFEEEEEEEEE5
CFFFFFFFFFFFF6
CFFFFFFFFFFFF6
CFFFFFFFFFFFF6
ENDCHAR
STARTCHAR three
ENCODING 51
SWIDTH 586 0
DWIDTH 16 0
BBX 15 20 1 0
BITMAP
6999999997200000
9FFFFFFFFFF80000
9FFFFFFFFFFFA000
9FFFFFFFFFFFF500
355555556CFFFC00
0000000001FFFF00
0000000000DFFF10
0000000005FFFE00
001CCCCCCFFFF900
002FFFFFFFFFE200
002FFFFFFFFFC000
002FFFFFFFFFF600
000333333AFFFC00
0000000001EFFF00
0000000000EFFF10
0000000007FFFE00
9EEEEEEEFFFFF800
9FFFFFFFFFFFD100
9FFFFFFFFFFD3000
9FFFFFFFFD810000
ENDCHAR
STARTCHAR four
ENCODING 52
SWIDTH 630 0
DWIDTH 18 0
BBX 17 20 0 0
BITMAP
000999800000000000
002FFFB00000000000
004FFF90004AAA5000
007FFF70006FFF8000
009FFF50006FFF8000
00BFFF30006FFF8000
00DFFF10006FFF8000
00FFFD00006FFF8000
02FFFB00006FFF8000
04FFF900006FFF8000
06FFF700006FFF8000
08FFF400006FFF8000
0AFFFDCCCCDFFFEC60
0CFFFFFFFFFFFFFF70
0EFFFFFFFFFFFFFF70
2FFFFFFFFFFFFFFF70
01111111117FFF9110
00000000006FFF8000
00000000006FFF8000
00000000006FFF8000
ENDCHAR
STARTCHAR five
ENCODING 53
SWIDTH 585 0
DWIDTH 16 0
BBX 15 20 1 0
BITMAP
0599999999999600
09FFFFFFFFFFF900
0BFFFFFFFFFFF900
0CFFFFFFFFFFF900
0EFFF55555555300
0FFFE00000000000
2FFFC00000000000
3FFFC55543000000
5FFFFFFFFFD60000
6FFFFFFFFFFFA000
8FFFFFFFFFFFF700
59999999AEFFFE00
0000000001DFFF40
00000000008FFF60
00000000009FFF50
0000000005FFFF30
9EEEEEEEEFFFFD00
9FFFFFFFFFFFF400
9FFFFFFFFFFF6000
9FFFFFFFFD920000
ENDCHAR
STARTCHAR six
ENCODING 54
SWIDTH 615 0
DWIDTH 17 0
BBX 16 21 1 -1
BITMAP
0000079999400000
0000AFFFF6000000
0008FFFF50000000
004FFFF500000000
00DFFF8000000000
06FFFD4997400000
0CFFFEFFFFFC4000
2FFFFFFFFFFFF500
6FFFFFFFFFFFFE20
AFFFFD4017FFFF90
CFFFE100006FFFE0
DFFF7000000DFFF2
EFFF5000000BFFF4
DFFF6000000CFFF3
BFFFA000001EFFF1
7FFFF50000AFFFC0
1EFFFFA67CFFFF50
05FFFFFFFFFFFB00
006FFFFFFFFFC100
0004CFFFFFF81000
0000036875100000
ENDCHAR
STARTCHAR seven
ENCODING 55
SWIDTH 516 0
DWIDTH 14 0
BBX 15 20 0 0
BITMAP
3999999999999930
5FFFFFFFFFFFFE10
5FFFFFFFFFFFFA00
5FFFFFFFFFFFF500
255555556FFFE100
000000006FFFA000
00000000BFFF5000
00000002FFFE0000
00000007FFF90000
0000000CFFF40000
0000002FFFE00000
0000008FFF900000
000000DFFF400000
000003FFFE000000
000009FFF9000000
00000EFFF4000000
00004FFFD0000000
00009FFF80000000
0000EFFF30000000
0005FFFD00000000
ENDCHAR
STARTCHAR eight
ENCODING 56
SWIDTH 618 0
DWIDTH 17 0
BBX 16 22 1 -1
BITMAP
0000002320000000
00017DFFFEA20000
002DFFFFFFFE5000
01DFFFFFFFFFF400
07FFFFB89EFFFC00
0BFFF70003FFFF10
0DFFF10000BFFF20
0BFFF30000DFFF10
06FFFD402AFFFB00
00CFFFFFFFFFF300
005FFFFFFFFFA000
06FFFFFFFFFFFA00
3FFFFC5359FFFF70
AFFFA000005FFFE0
DFFF1000000BFFF3
FFFE00000009FFF4
DFFF4000001DFFF3
8FFFE40002BFFFD0
1DFFFFDBDFFFFF40
02DFFFFFFFFFF600
0018EFFFFFFA3000
0000046775100000
ENDCHAR
STARTCHAR nine
ENCODING 57
SWIDTH 616 0
DWIDTH 17 0
BBX 16 21 1 0
BITMAP
0000001210000000
00018DFFFD710000
004EFFFFFFFE4000
03FFFFFFFFFFF400
0DFFFFDCEFFFFE10
6FFFF60008FFFF80
BFFF700000AFFFD0
EFFF1000003FFFF1
FFFE0000001FFFF2
FFFF1000003FFFF2
CFFF6000008FFFF1
8FFFE40005FFFFE0
2FFFFFB9CFFFFFB0
07FFFFFFFFFFFF70
007FFFFFFFFFFF30
00029DFFBAFFFC00
000000001EFFF500
00000000BFFFB000
0000000AFFFE2000
000000AFFFF40000
00002CFFFE400000
ENDCHAR
STARTCHAR colon
ENCODING 58
SWIDTH 276 0
DWIDTH 8 0
BBX 6 13 1 -1
BITMAP
027610
1EFFB0
6FFFF2
4FFFF1
09FE60
001000
000000
000000
03A920
2FFFD0
6FFFF2
3FFFE1
07DC40
ENDCHAR
STARTCHAR semicolon
ENCODING 59
SWIDTH 276 0
DWIDTH 8 0
BBX 6 16 1 -4
BITMAP
027610
1EFFB0
6FFFF2
4FFFF1
09FE60
001000
000000
000000
03A920
2FFFD0
6FFFF3
4FFFF2
07EFE0
00BF90
03FE20
003300
ENDCHAR
STARTCHAR less
ENCODING 60
SWIDTH 478 0
DWIDTH 13 0
BBX 11 17 1 2
BITMAP
00000007A000
0000007FFB00
000006FFFFB0
00006FFFFE40
0005FFFFE400
005FFFFE4000
04FFFFE40000
4EFFFE400000
DFFFFA000000
3EFFFFA00000
02DFFFFB1000
002DFFFFC100
0001CFFFFD20
00001CFFFFB0
000001BFFD20
0000000AE200
000000002000
ENDCHAR
STARTCHAR equal
ENCODING 61
SWIDTH 539 0
DWIDTH 15 0
BBX 13 10 1 5
BITMAP
28888888888820
3FFFFFFFFFFF40
3FFFFFFFFFFF40
3FFFFFFFFFFF40
02222222222210
00000000000000
3EEEEEEEEEEE40
3FFFFFFFFFFF40
3FFFFFFFFFFF40
2CCCCCCCCCCC30
ENDCHAR
STARTCHAR greater
ENCODING 62
SWIDTH 478 0
DWIDTH 13 0
BBX 12 17 1 2
BITMAP
005C10000000
06FFC1000000
5FFFFB100000
1CFFFFB00000
01CFFFFA0000
001CFFFFA000
0001CFFFF900
00001CFFFF90
000005FFFFF4
00005FFFFF70
0006FFFFF600
008FFFFF5000
09FFFFF50000
5FFFFE400000
09FFE3000000
00BE30000000
001200000000
ENDCHAR
STARTCHAR question
ENCODING 63
SWIDTH 603 0
DWIDTH 17 0
BBX 15 21 1 -1
BITMAP
8999999998610000
EFFFFFFFFFFE7000
EFFFFFFFFFFFF800
EFFFFFFFFFFFFF30
4555555556DFFFA0
00000000003FFFD0
00000000000FFFE0
00000000007FFFC0
00000028BDFFFF70
000007FFFFFFFE10
00006FFFFFFFE300
0001EFFFFFE92000
0005FFFE52000000
0007FFF700000000
0008FFF600000000
0001222100000000
00007A6000000000
0009FFF600000000
000DFFFB00000000
000AFFF800000000
0002BEA100000000
ENDCHAR
STARTCHAR at
ENCODING 64
SWIDTH 629 0
DWIDTH 18 0
BBX 16 17 1 -1
BITMAP
0000000110000000
00006BFFFEA40000
002CFFFFFFFFA100
02EFFFB88CFFFB00
0BFFC200015EFF80
4FFC118BAFF6EFE1
9FF31EFFFFF56FF6
CFD08FFCEFF51FF9
EFB0BFC04FF50EFA
DFC0AFE59FF51EF9
AFF15FFFFFFFFFF7
6FF807FFFFFFFFF2
0DFF600312222220
03FFFA4222000000
004EFFFFFA000000
0002AFFFFD000000
0000026775000000
ENDCHAR
STARTCHAR A
ENCODING 65
SWIDTH 673 0
DWIDTH 19 0
BBX 17 20 1 0
BITMAP
000001589840000000
00008EFFFFFE700000
001CFFFFFFFFFB0000
00BFFFFFFFFFFFA000
06FFFFD757EFFFF400
0DFFFA10001CFFFB00
3FFFE1000002FFFF10
5FFF90000000BFFF30
6FFF80000000AFFF40
6FFF80000000AFFF40
6FFF80000000AFFF40
6FFF80000000AFFF40
6FFFECCCCCCCEFFF40
6FFFFFFFFFFFFFFF40
6FFFFFFFFFFFFFFF40
6FFFFFFFFFFFFFFF40
6FFF81111111AFFF40
6FFF80000000AFFF40
6FFF80000000AFFF40
6FFF80000000AFFF40
ENDCHAR
STARTCHAR B
ENCODING 66
SWIDTH 666 0
DWIDTH 19 0
BBX 17 20 1 0
BITMAP
299999999998400000
3FFFFFFFFFFFFC2000
3FFFFFFFFFFFFFE200
3FFFFFFFFFFFFFFB00
3FFFC5555559FFFF30
3FFFB0000000AFFF60
3FFFB00000007FFF70
3FFFB0000001DFFF40
3FFFECCCCCCEFFFD00
3FFFFFFFFFFFFFE300
3FFFFFFFFFFFFFC100
3FFFFFFFFFFFFFFA00
3FFFC3333337FFFF30
3FFFB00000009FFF60
3FFFB00000008FFF70
3FFFB0000003EFFF50
3FFFFEEEEEEFFFFE10
3FFFFFFFFFFFFFF600
3FFFFFFFFFFFFF7000
3FFFFFFFFFFEA30000
ENDCHAR
STARTCHAR C
ENCODING 67
SWIDTH 640 0
DWIDTH 18 0
BBX 18 21 0 -1
BITMAP
000000049BDCB73000
000004DFFFFFFFFB30
00009FFFFFFFFFFFF3
0009FFFFFFFFFFFFD0
006FFFFE83124AFF40
01EFFFC20000004900
07FFFD100000000000
0DFFF5000000000000
1FFFE0000000000000
3FFFB0000000000000
3FFFA0000000000000
2FFFC0000000000000
0FFFF2000000000000
0BFFF9000000000000
04FFFF500000000200
00CFFFF8100002AD10
002EFFFFEA88BFFF80
0004EFFFFFFFFFFFF3
00002CFFFFFFFFFFA1
0000006CFFFFFFB400
000000002566410000
ENDCHAR
STARTCHAR D
ENCODING 68
SWIDTH 653 0
DWIDTH 18 0
BBX 17 20 1 0
BITMAP
299999986300000000
3FFFFFFFFFC5000000
3FFFFFFFFFFFA10000
3FFFFFFFFFFFFC0000
3FFFD5569EFFFF9000
3FFFC00001BFFFF400
3FFFC000000BFFFC00
3FFFC0000002FFFF20
3FFFC0000000AFFF50
3FFFC00000007FFF70
3FFFC00000006FFF80
3FFFC00000008FFF60
3FFFC0000000DFFF30
3FFFC0000007FFFE00
3FFFC000005FFFF800
3FFFC0003AFFFFD100
3FFFFEEFFFFFFE3000
3FFFFFFFFFFFE40000
3FFFFFFFFFFB200000
3FFFFFFEC930000000
ENDCHAR
STARTCHAR E
ENCODING 69
SWIDTH 578 0
DWIDTH 16 0
BBX 15 20 1 0
BITMAP
2999999999999920
3FFFFFFFFFFFFF40
3FFFFFFFFFFFFF40
3FFFFFFFFFFFFF40
3FFFC55555555510
3FFFB00000000000
3FFFB00000000000
3FFFB00000000000
3FFFECCCCCC20000
3FFFFFFFFFF30000
3FFFFFFFFFF30000
3FFFFFFFFFF30000
3FFFC33333300000
3FFFB00000000000
3FFFB00000000000
3FFFB00000000000
3FFFFEEEEEEEEE40
3FFFFFFFFFFFFF40
3FFFFFFFFFFFFF40
3FFFFFFFFFFFFF40
ENDCHAR
STARTCHAR F
ENCODING 70
SWIDTH 562 0
DWIDTH 16 0
BBX 15 20 1 0
BITMAP
2999999999999950
3FFFFFFFFFFFFF80
3FFFFFFFFFFFFF80
3FFFFFFFFFFFFF80
3FFFC55555555530
3FFFB00000000000
3FFFB00000000000
3FFFB00000000000
3FFFECCCCC700000
3FFFFFFFFF900000
3FFFFFFFFF900000
3FFFFFFFFF900000
3FFFC33333200000
3FFFB00000000000
3FFFB00000000000
3FFFB00000000000
3FFFB00000000000
3FFFB00000000000
3FFFB00000000000
3FFFB00000000000
ENDCHAR
STARTCHAR G
ENCODING 71
SWIDTH 665 0
DWIDTH 19 0
BBX 18 21 0 -1
BITMAP
000000038BCCA72000
000004CFFFFFFFFA20
00008FFFFFFFFFFFE3
0009FFFFFFFFFFFFD0
006FFFFF94225BFF40
01EFFFD20000004900
07FFFD100000000000
0DFFF5000000000000
1FFFE0000000000000
3FFFB0000000000000
3FFFA000000004BBB5
2FFFC000000006FFF6
0FFFF100000006FFF6
0BFFF900000006FFF6
05FFFF50000006FFF6
00CFFFF8100006FFF6
002EFFFFEA88BFFFF6
0004EFFFFFFFFFFFF6
00002CFFFFFFFFFFA1
0000006CFFFFFFB400
000000002566410000
ENDCHAR
STARTCHAR H
ENCODING 72
SWIDTH 689 0
DWIDTH 19 0
BBX 17 20 1 0
BITMAP
299970000000499950
3FFFB00000006FFF80
3FFFB00000006FFF80
3FFFB00000006FFF80
3FFFB00000006FFF80
3FFFB00000006FFF80
3FFFB00000006FFF80
3FFFB00000006FFF80
3FFFECCCCCCCDFFF80
3FFFFFFFFFFFFFFF80
3FFFFFFFFFFFFFFF80
3FFFFFFFFFFFFFFF80
3FFFC33333338FFF80
3FFFB00000006FFF80
3FFFB00000006FFF80
3FFFB00000006FFF80
3FFFB00000006FFF80
3FFFB00000006FFF80
3FFFB00000006FFF80
3FFFB00000006FFF80
ENDCHAR
STARTCHAR I
ENCODING 73
SWIDTH 270 0
DWIDTH 8 0
BBX 5 20 1 0
BITMAP
299970
3FFFB0
3FFFB0
3FFFB0
3FFFB0
3FFFB0
3FFFB0
3FFFB0
3FFFB0
3FFFB0
3FFFB0
3FFFB0
3FFFB0
3FFFB0
3FFFB0
3FFFB0
3FFFB0
3FFFB0
3FFFB0
3FFFB0
ENDCHAR
STARTCHAR J
ENCODING 74
SWIDTH 416 0
DWIDTH 12 0
BBX 11 20 0 0
BITMAP
000000899910
000000CFFF10
000000CFFF10
000000CFFF10
000000CFFF10
000000CFFF10
000000CFFF10
000000CFFF10
000000CFFF10
000000CFFF10
000000CFFF10
000000CFFF10
000000DFFF10
000002FFFE00
00000AFFFA00
3102BFFFF500
BFEFFFFFB000
BFFFFFFD1000
BFFFFFB10000
9EFDA4000000
ENDCHAR
STARTCHAR K
ENCODING 75
SWIDTH 625 0
DWIDTH 18 0
BBX 17 20 1 0
BITMAP
299970000002999920
3FFFB000000BFFFA00
3FFFB000008FFFD100
3FFFB00004FFFF3000
3FFFB0001EFFF60000
3FFFB000BFFFA00000
3FFFB007FFFD100000
3FFFB04FFFF3000000
3FFFB1EFFF80000000
3FFFBBFFFFB0000000
3FFFFFFFFFF5000000
3FFFFFFFFFFD000000
3FFFFFF7EFFF600000
3FFFFFA07FFFE10000
3FFFFD101EFFF70000
3FFFF30006FFFE1000
3FFFB00000DFFF9000
3FFFB000005FFFF200
3FFFB000000CFFFA00
3FFFB0000003FFFF30
ENDCHAR
STARTCHAR L
ENCODING 76
SWIDTH 562 0
DWIDTH 16 0
BBX 15 20 1 0
BITMAP
2999700000000000
3FFFB00000000000
3FFFB00000000000
3FFFB00000000000
3FFFB00000000000
3FFFB00000000000
3FFFB00000000000
3FFFB00000000000
3FFFB00000000000
3FFFB00000000000
3FFFB00000000000
3FFFB00000000000
3FFFB00000000000
3FFFB00000000000
3FFFB00000000000
3FFFB00000000000
3FFFFEEEEEEEEE80
3FFFFFFFFFFFFF80
3FFFFFFFFFFFFF80
3FFFFFFFFFFFFF80
ENDCHAR
STARTCHAR M
ENCODING 77
SWIDTH 819 0
DWIDTH 23 0
BBX 21 20 1 0
BITMAP
00017BDC81028CDB710000
004EFFFFFE8EFFFFFE3000
03EFFFFFFFFFFFFFFFE200
0BFFFFFFFFFFFFFFFFFA00
2FFFF615FFFFE517FFFF10
4FFFB0009FFF8000BFFF30
5FFF90007FFF7000AFFF40
5FFF90007FFF7000AFFF40
5FFF90007FFF7000AFFF40
5FFF90007FFF7000AFFF40
5FFF90007FFF7000AFFF40
5FFF90007FFF7000AFFF40
5FFF90007FFF7000AFFF40
5FFF90007FFF7000AFFF40
5FFF90007FFF7000AFFF40
5FFF90007FFF7000AFFF40
5FFF90007FFF7000AFFF40
5FFF90007FFF7000AFFF40
5FFF90007FFF7000AFFF40
5FFF90007FFF7000AFFF40
ENDCHAR
STARTCHAR N
ENCODING 78
SWIDTH 689 0
DWIDTH 19 0
BBX 17 20 1 0
BITMAP
299992000000499950
3FFFFA0000006FFF80
3FFFFF4000006FFF80
3FFFFFC000006FFF80
3FFFFFF600006FFF80
3FFFFFFE10006FFF80
3FFFFFFF90006FFF80
3FFFCEFFF3006FFF80
3FFFB6FFFB006FFF80
3FFFB0CFFF506FFF80
3FFFB04FFFD16FFF80
3FFFB00AFFF86FFF80
3FFFB002FFFF8FFF80
3FFFB0008FFFFFFF80
3FFFB0001DFFFFFF80
3FFFB00005FFFFFF80
3FFFB00000BFFFFF80
3FFFB000003FFFFF80
3FFFB0000009FFFF80
3FFFB0000001EFFF80
ENDCHAR
STARTCHAR O
ENCODING 79
SWIDTH 777 0
DWIDTH 22 0
BBX 21 21 0 -1
BITMAP
000000048BCCB720000000
000004CFFFFFFFFB200000
00008FFFFFFFFFFFF50000
0009FFFFFFFFFFFFFF6000
006FFFFE83124AFFFFF300
01EFFFC20000004EFFFC00
07FFFD1000000003FFFF40
0DFFF500000000009FFF90
1FFFE000000000003FFFD0
3FFFB000000000000EFFF0
3FFFA000000000000EFFF0
2FFFC000000000001FFFE0
0FFFF200000000005FFFB0
0BFFF90000000000CFFF70
04FFFF5000000009FFFF20
00CFFFF8100002AFFFF800
002EFFFFEA88BFFFFFC100
0004EFFFFFFFFFFFFD2000
00002CFFFFFFFFFFA10000
0000006CFFFFFFB4000000
0000000025664100000000
ENDCHAR
STARTCHAR P
ENCODING 80
SWIDTH 642 0
DWIDTH 18 0
BBX 17 20 1 0
BITMAP
299999999861000000
3FFFFFFFFFFE800000
3FFFFFFFFFFFFC2000
3FFFFFFFFFFFFFC000
3FFFC55556CFFFF700
3FFFB0000009FFFE00
3FFFB0000001DFFF40
3FFFB00000008FFF70
3FFFB00000007FFF70
3FFFB0000000AFFF60
3FFFB0000004FFFF20
3FFFB000005EFFFB00
3FFFECCCDEFFFFF300
3FFFFFFFFFFFFF6000
3FFFFFFFFFFFE50000
3FFFFFFFFFD8100000
3FFFC1111000000000
3FFFB0000000000000
3FFFB0000000000000
3FFFB0000000000000
ENDCHAR
STARTCHAR Q
ENCODING 81
SWIDTH 777 0
DWIDTH 22 0
BBX 21 24 0 -4
BITMAP
000000048BCCB720000000
000004CFFFFFFFFB200000
00008FFFFFFFFFFFF50000
0009FFFFFFFFFFFFFF6000
006FFFFE83124AFFFFF300
01EFFFC20000004EFFFC00
07FFFD1000000003FFFF40
0DFFF500000000009FFF90
1FFFE000000000003FFFD0
3FFFB000000000000EFFF0
3FFFA000000000000EFFF0
2FFFC000000000001FFFE0
0FFFF200000000005FFFB0
0BFFF90000000000CFFF70
04FFFF5000000009FFFF20
00CFFFF8100002AFFFF800
002EFFFFEA88BFFFFFC100
0004EFFFFFFFFFFFFD2000
00002CFFFFFFFFFFB10000
0000006CFFFFFFF9000000
000000002568FFFE200000
000000000000AFFFC00000
0000000000001EFFF70000
00000000000005EEED2000
ENDCHAR
STARTCHAR R
ENCODING 82
SWIDTH 651 0
DWIDTH 18 0
BBX 17 20 1 0
BITMAP
299999999861000000
3FFFFFFFFFFE800000
3FFFFFFFFFFFFC2000
3FFFFFFFFFFFFFC000
3FFFC55556CFFFF700
3FFFB0000009FFFE00
3FFFB0000001DFFF40
3FFFB00000008FFF70
3FFFB00000007FFF70
3FFFB0000000AFFF50
3FFFB0000004FFFF20
3FFFB000005EFFFB00
3FFFECCCDEFFFFF300
3FFFFFFFFFFFFF6000
3FFFFFFFFFFFF50000
3FFFFFFFFFFFF20000
3FFFC1111AFFF80000
3FFFB00004FFFE0000
3FFFB00000CFFF6000
3FFFB000006FFFC000
ENDCHAR
STARTCHAR S
ENCODING 83
SWIDTH 610 0
DWIDTH 17 0
BBX 17 20 0 0
BITMAP
000037999999999500
001BFFFFFFFFFFF800
01DFFFFFFFFFFFF800
09FFFFFFFFFFFFF800
1FFFFA555555555300
4FFFC0000000000000
4FFFA0000000000000
3FFFE2000000000000
0DFFFFCCCCBA600000
05FFFFFFFFFFFD3000
007FFFFFFFFFFFE200
0004CFFFFFFFFFFB00
000001233338FFFF20
000000000000BFFF40
000000000000AFFF50
000000000004FFFF30
03EEEEEEEEEFFFFC00
04FFFFFFFFFFFFF400
04FFFFFFFFFFFF6000
04FFFFFFFFFD920000
ENDCHAR
STARTCHAR T
ENCODING 84
SWIDTH 578 0
DWIDTH 16 0
BBX 16 20 0 0
BITMAP
7999999999999998
BFFFFFFFFFFFFFFE
BFFFFFFFFFFFFFFE
BFFFFFFFFFFFFFFE
455555EFFF555554
000000DFFF100000
000000DFFF100000
000000DFFF100000
000000DFFF100000
000000DFFF100000
000000DFFF100000
000000DFFF100000
000000DFFF100000
000000DFFF100000
000000DFFF100000
000000DFFF100000
000000DFFF100000
000000DFFF100000
000000DFFF100000
000000DFFF100000
ENDCHAR
STARTCHAR U
ENCODING 85
SWIDTH 673 0
DWIDTH 19 0
BBX 17 20 1 0
BITMAP
499950000000699930
6FFF80000000AFFF40
6FFF80000000AFFF40
6FFF80000000AFFF40
6FFF80000000AFFF40
6FFF80000000AFFF40
6FFF80000000AFFF40
6FFF80000000AFFF40
6FFF80000000AFFF40
6FFF80000000AFFF40
6FFF80000000AFFF40
6FFF80000000AFFF40
6FFF80000000AFFF40
4FFFC0000000DFFF20
1FFFF6000008FFFD00
0AFFFF81019FFFF800
02EFFFFFEFFFFFD100
004FFFFFFFFFFE3000
0004DFFFFFFFC20000
000006BEFEA5000000
ENDCHAR
STARTCHAR V
ENCODING 86
SWIDTH 602 0
DWIDTH 17 0
BBX 17 20 0 0
BITMAP
899950000000799960
9FFFC0000001FFFF60
4FFFF2000005FFFF20
0EFFF6000009FFFC00
09FFFB00000EFFF700
05FFFF10003FFFF200
00EFFF50008FFFC000
00AFFF9000CFFF7000
005FFFD002FFFF2000
001EFFF306FFFC0000
000AFFF70BFFF70000
0005FFFC1FFFF20000
0001FFFF6FFFC00000
0000AFFFEFFF700000
00005FFFFFFF200000
00001FFFFFFD000000
00000BFFFFF8000000
000006FFFFF3000000
000001FFFFD0000000
000000BFFF80000000
ENDCHAR
STARTCHAR W
ENCODING 87
SWIDTH 819 0
DWIDTH 23 0
BBX 21 21 1 -1
BITMAP
3999600049994000699930
5FFF90007FFF7000AFFF40
5FFF90007FFF7000AFFF40
5FFF90007FFF7000AFFF40
5FFF90007FFF7000AFFF40
5FFF90007FFF7000AFFF40
5FFF90007FFF7000AFFF40
5FFF90007FFF7000AFFF40
5FFF90007FFF7000AFFF40
5FFF90007FFF7000AFFF40
5FFF90007FFF7000AFFF40
5FFF90007FFF7000AFFF40
5FFF90007FFF7000AFFF40
5FFF90007FFF7000AFFF40
4FFFA0008FFF7000AFFF40
3FFFE101DFFFC002EFFF20
0DFFFEADFFFFFDAEFFFD00
06FFFFFFFFFFFFFFFFF500
009FFFFFFFEFFFFFFF9000
0006DFFFE707EFFFD60000
0000024300000342000000
ENDCHAR
STARTCHAR X
ENCODING 88
SWIDTH 608 0
DWIDTH 17 0
BBX 17 20 0 0
BITMAP
799980000000899980
5FFFF6000006FFFF50
0BFFFE10001EFFFB00
02EFFF90008FFFF200
007FFFF303FFFF8000
000DFFFC0BFFFD1000
0004FFFFAFFFF40000
0000AFFFFFFFA00000
00001EFFFFFE200000
000006FFFFF7000000
000003FFFFF4000000
00000CFFFFFC000000
00006FFFFFFF700000
0001EFFFEFFFE20000
0009FFFE2EFFFA0000
004FFFF606FFFF4000
00CFFFC000CFFFD000
07FFFF30003FFFF800
2EFFF9000009FFFF20
AFFFE1000001EFFFB0
ENDCHAR
STARTCHAR Y
ENCODING 89
SWIDTH 620 0
DWIDTH 17 0
BBX 17 20 0 0
BITMAP
299970000000499950
3FFFC00000006FFF80
3FFFC00000006FFF80
3FFFC00000006FFF80
3FFFC00000006FFF80
3FFFC00000006FFF80
2FFFC00000006FFF70
1FFFE00000009FFF60
0CFFF8000003FFFF30
07FFFF81005EFFFC00
01DFFFFECEFFFFF400
003EFFFFFFFFFF7000
0003DFFFFFFFF60000
000006CFFFE8200000
0000004FFFA0000000
0000004FFFA0000000
0000004FFFA0000000
0000004FFFA0000000
0000004FFFA0000000
0000004FFFA0000000
ENDCHAR
STARTCHAR Z
ENCODING 90
SWIDTH 586 0
DWIDTH 16 0
BBX 16 20 0 0
BITMAP
3999999999999996
5FFFFFFFFFFFFFF3
5FFFFFFFFFFFFFA0
5FFFFFFFFFFFFF30
255555556FFFF900
000000009FFFF200
00000002FFFF9000
0000000AFFFE1000
0000003FFFF80000
000000BFFFE10000
000004FFFF700000
00000CFFFD000000
00005FFFF6000000
0000DFFFD0000000
0006FFFF50000000
001EFFFC00000000
007FFFFEEEEEEEEB
01EFFFFFFFFFFFFC
08FFFFFFFFFFFFFC
2FFFFFFFFFFFFFFC
ENDCHAR
STARTCHAR bracketleft
ENCODING 91
SWIDTH 380 0
DWIDTH 11 0
BBX 9 26 1 -3
BITMAP
1666666640
4FFFFFFFA0
4FFFFFFFA0
4FFFFFFFA0
4FFFD88850
4FFFB00000
4FFFB00000
4FFFB00000
4FFFB00000
4FFFB00000
4FFFB00000
4FFFB00000
4FFFB00000
4FFFB00000
4FFFB00000
4FFFB00000
4FFFB00000
4FFFB00000
4FFFB00000
4FFFB00000
4FFFB00000
4FFFB22210
4FFFFFFFA0
4FFFFFFFA0
4FFFFFFFA0
3CCCCCCC80
ENDCHAR
STARTCHAR backslash
ENCODING 92
SWIDTH 490 0
DWIDTH 14 0
BBX 13 20 0 0
BITMAP
19999000000000
0BFFF400000000
05FFFA00000000
00EFFF20000000
008FFF80000000
002FFFE0000000
000AFFF5000000
0004FFFB000000
0000DFFF300000
00007FFF900000
00001EFFE10000
000009FFF60000
000003FFFC0000
000000CFFF4000
0000006FFFA000
0000000EFFF100
00000008FFF700
00000002FFFD00
00000000BFFF50
000000005FFFB0
ENDCHAR
STARTCHAR bracketright
ENCODING 93
SWIDTH 380 0
DWIDTH 11 0
BBX 8 26 1 -3
BITMAP
66666665
EFFFFFFE
EFFFFFFE
EFFFFFFE
7888FFFE
0001FFFE
0001FFFE
0001FFFE
0001FFFE
0001FFFE
0001FFFE
0001FFFE
0001FFFE
0001FFFE
0001FFFE
0001FFFE
0001FFFE
0001FFFE
0001FFFE
0001FFFE
0001FFFE
2222FFFE
EFFFFFFE
EFFFFFFE
EFFFFFFE
BCCCCCCB
ENDCHAR
STARTCHAR asciicircum
ENCODING 94
SWIDTH 293 0
DWIDTH 8 0
BBX 9 7 0 13
BITMAP
0003400000
003EF50000
04EFFF6000
4FFFFFF700
BFFB8FFE10
1CA007F300
0100002000
ENDCHAR
STARTCHAR underscore
ENCODING 95
SWIDTH 598 0
DWIDTH 17 0
BBX 13 5 2 -7
BITMAP
13333333333300
5FFFFFFFFFFF20
5FFFFFFFFFFF20
5FFFFFFFFFFF20
38888888888810
ENDCHAR
STARTCHAR grave
ENCODING 96
SWIDTH 225 0
DWIDTH 6 0
BBX 7 7 0 13
BITMAP
00400000
09F60000
6FFF7000
8FFFF800
03CFFE10
0007E500
00001000
ENDCHAR
STARTCHAR a
ENCODING 97
SWIDTH 607 0
DWIDTH 17 0
BBX 16 17 0 -1
BITMAP
0000000220000000
00004BFFFFA30055
0009FFFFFFFF74F9
009FFFFFFFFFFFF9
04FFFFE99DFFFFF9
0CFFFA1001AFFFF9
1FFFD100000CFFF9
4FFF80000005FFF9
5FFF70000003FFF9
4FFF80000005FFF9
2FFFD000000BFFF9
0DFFF900008FFFF9
06FFFFD88CFFFFF9
00BFFFFFFFFFFFF9
001BFFFFFFFF96F9
00006DFFFFB400A9
0000002341000000
ENDCHAR
STARTCHAR b
ENCODING 98
SWIDTH 597 0
DWIDTH 17 0
BBX 16 22 1 -1
BITMAP
6776000000000000
DFFD000000000000
DFFD000000000000
DFFD000000000000
DFFD000000000000
DFFD001320000000
DFFD3BFFFE920000
DFFEFFFFFFFE5000
DFFFFFFFFFFFF400
DFFFFFC9BFFFFE10
DFFFF60003DFFF70
DFFF8000004FFFC0
DFFF1000000DFFF0
DFFE0000000BFFF1
CFFF0000000CFFF0
AFFF6000003FFFD0
5FFFE40002DFFF80
0DFFFFA79EFFFE10
03FFFFFFFFFFF600
004EFFFFFFFF7000
00029EFFFFA30000
0000003431000000
ENDCHAR
STARTCHAR c
ENCODING 99
SWIDTH 521 0
DWIDTH 15 0
BBX 15 17 0 -1
BITMAP
0000000220000000
00003AFFFFB40000
0007FFFFFFFF9000
007FFFFFFFFFF900
03FFFFEA9DFFFD10
0AFFFB10009FD200
1FFFE100000A2000
4FFF900000000000
5FFF600000000000
5FFF700000000000
3FFFC00000050000
0DFFF900006F9000
06FFFFD88CFFF900
00AFFFFFFFFFFC00
001AFFFFFFFFC100
00005CFFFFC60000
0000001332000000
ENDCHAR
STARTCHAR d
ENCODING 100
SWIDTH 606 0
DWIDTH 17 0
BBX 16 22 0 -1
BITMAP
0000000000017774
000000000003FFF9
000000000003FFF9
000000000003FFF9
000000000003FFF9
000000023103FFF9
00003BFFFFA4FFF9
0008FFFFFFFEFFF9
009FFFFFFFFFFFF9
04FFFFE99DFFFFF9
0CFFFA1001AFFFF9
2FFFD100000CFFF9
4FFF80000005FFF9
6FFF60000003FFF9
5FFF80000005FFF9
2FFFD100000CFFF9
0CFFFA10008FFFF9
05FFFFD88CFFFFF9
00AFFFFFFFFFFFF9
000AFFFFFFFF86F9
00005CFFFFB400A9
0000001331000000
ENDCHAR
STARTCHAR e
ENCODING 101
SWIDTH 524 0
DWIDTH 15 0
BBX 15 17 0 -1
BITMAP
0000001221000000
00004BFFFFB50000
0009FFFFFFFFB100
00AFFFFFFFFFFC10
05FFFFEA9FFFFC00
0CFFFB107FFFD100
2FFFE103FFFE3000
4FFF801DFFF50000
5FFF70AFFF800000
4FFF87FFFA000000
2FFFDFFFC1050000
0CFFFFFE206F9000
05FFFFFB8CFFF900
00AFFFFFFFFFFC10
001AFFFFFFFFC100
00005CFFFFD60000
0000001342000000
ENDCHAR
STARTCHAR f
ENCODING 102
SWIDTH 395 0
DWIDTH 11 0
BBX 12 22 0 0
BITMAP
0000005ACDDA
00002CFFFFFC
0002EFFFFFFC
000BFFFFEDDA
003FFFE50000
007FFF700000
008FFF300000
4ADFFFBAAA70
6FFFFFFFFFB0
6FFFFFFFFFB0
6FFFFFFFFFB0
019FFF411110
008FFF300000
008FFF300000
008FFF300000
008FFF300000
008FFF300000
008FFF300000
008FFF300000
008FFF300000
008FFF300000
008FFF300000
ENDCHAR
STARTCHAR g
ENCODING 103
SWIDTH 607 0
DWIDTH 17 0
BBX 16 22 0 -6
BITMAP
0000000220000000
00003AFFFFA30055
0008FFFFFFFF74F9
008FFFFFFFFFFFF9
04FFFFE99DFFFFF9
0BFFFA1001AFFFF9
1FFFD100000CFFF9
4FFF80000005FFF9
5FFF70000003FFF9
4FFF80000005FFF9
2FFFD100000BFFF9
0DFFF900008FFFF9
06FFFFD88CFFFFF9
00BFFFFFFFFFFFF9
001BFFFFFFFFFFF8
00006CFFFFDBFFF7
00000013421DFFF3
0000002225DFFFB0
000000BFFFFFFE30
000000BFFFFFE500
000000BFFFFC3000
0000007997300000
ENDCHAR
STARTCHAR h
ENCODING 104
SWIDTH 562 0
DWIDTH 16 0
BBX 14 21 1 0
BITMAP
47771000000000
9FFF2000000000
9FFF2000000000
9FFF2000000000
9FFF2000000000
9FFF2000000000
9FFF6ADDB60000
9FFFFFFFFFD200
9FFFFFFFFFFE20
9FFFFFEEFFFFA0
9FFFE5005FFFF2
9FFF700008FFF6
9FFF300004FFF7
9FFF200004FFF8
9FFF200004FFF8
9FFF200004FFF8
9FFF200004FFF8
9FFF200004FFF8
9FFF200004FFF8
9FFF200004FFF8
9FFF200004FFF8
ENDCHAR
STARTCHAR i
ENCODING 105
SWIDTH 235 0
DWIDTH 7 0
BBX 6 22 0 0
BITMAP
000100
04EFB1
0EFFF9
2FFFFC
0DFFF7
02AC80
000000
06AAA2
09FFF3
09FFF3
09FFF3
09FFF3
09FFF3
09FFF3
09FFF3
09FFF3
09FFF3
09FFF3
09FFF3
09FFF3
09FFF3
09FFF3
ENDCHAR
STARTCHAR j
ENCODING 106
SWIDTH 237 0
DWIDTH 7 0
BBX 11 28 -5 -6
BITMAP
000000001000
0000004DFC20
000000EFFFA0
000001FFFFC0
000000CFFF80
0000002AC800
000000000000
0000005AAA30
0000008FFF40
0000008FFF40
0000008FFF40
0000008FFF40
0000008FFF40
0000008FFF40
0000008FFF40
0000008FFF40
0000008FFF40
0000008FFF40
0000008FFF40
0000008FFF40
0000009FFF30
000000DFFF10
000007FFFC00
03239FFFF500
2FFFFFFFB000
2FFFFFFC1000
2FFFFE800000
199851000000
ENDCHAR
STARTCHAR k
ENCODING 107
SWIDTH 539 0
DWIDTH 15 0
BBX 14 21 1 0
BITMAP
47771000000000
9FFF3000000000
9FFF3000000000
9FFF3000000000
9FFF3000000000
9FFF3000000000
9FFF3000049997
9FFF30003EFFE3
9FFF3001DFFF50
9FFF300BFFF900
9FFF307FFFB000
9FFF34FFFD1000
9FFF5EFFF50000
9FFFEFFFFB0000
9FFFFFFFFF5000
9FFFFFEFFFD000
9FFFFF3CFFF700
9FFFF603FFFE10
9FFFA000AFFF90
9FFF30002FFFF3
9FFF300008FFFB
ENDCHAR
STARTCHAR l
ENCODING 108
SWIDTH 235 0
DWIDTH 7 0
BBX 5 21 1 0
BITMAP
477710
9FFF30
9FFF30
9FFF30
9FFF30
9FFF30
9FFF30
9FFF30
9FFF30
9FFF30
9FFF30
9FFF30
9FFF30
9FFF30
9FFF30
9FFF30
9FFF30
9FFF30
9FFF30
9FFF30
9FFF30
ENDCHAR
STARTCHAR m
ENCODING 109
SWIDTH 762 0
DWIDTH 21 0
BBX 20 15 1 0
BITMAP
6604ADDA4018CDC71000
9FBFFFFFF7DFFFFFE300
9FFFFFFFFFFFFFFFFE10
9FFFFEEFFFFFFDFFFF90
9FFFA009FFFE303FFFD0
9FFF3003FFFA000BFFF0
9FFF2002FFF9000AFFF1
9FFF2002FFF9000AFFF1
9FFF2002FFF9000AFFF1
9FFF2002FFF9000AFFF1
9FFF2002FFF9000AFFF1
9FFF2002FFF9000AFFF1
9FFF2002FFF9000AFFF1
9FFF2002FFF9000AFFF1
9FFF2002FFF9000AFFF1
ENDCHAR
STARTCHAR n
ENCODING 110
SWIDTH 562 0
DWIDTH 16 0
BBX 14 15 1 0
BITMAP
66016BDDB60000
9F7DFFFFFFD200
9FFFFFFFFFFE20
9FFFFFEEFFFFA0
9FFFE5005FFFF2
9FFF700008FFF6
9FFF300004FFF7
9FFF200003FFF8
9FFF200003FFF8
9FFF200003FFF8
9FFF200003FFF8
9FFF200003FFF8
9FFF200003FFF8
9FFF200003FFF8
9FFF200003FFF8
ENDCHAR
STARTCHAR o
ENCODING 111
SWIDTH 579 0
DWIDTH 16 0
BBX 16 17 0 -1
BITMAP
0000000221000000
00004BFFFFC60000
0009FFFFFFFFC100
009FFFFFFFFFFC10
04FFFFE99DFFFF80
0CFFFA10008FFFE1
2FFFD100000BFFF5
4FFF80000005FFF7
6FFF60000003FFF8
5FFF80000005FFF7
2FFFD100000AFFF5
0CFFFA10007FFFE1
05FFFFD88CFFFF80
009FFFFFFFFFFC00
0009FFFFFFFFB100
00005CFFFFD60000
0000001342000000
ENDCHAR
STARTCHAR p
ENCODING 112
SWIDTH 608 0
DWIDTH 17 0
BBX 16 22 1 -6
BITMAP
0000000220000000
660029EFFFB40000
9F47FFFFFFFF9000
9FFFFFFFFFFFFA00
9FFFFFD99EFFFF50
9FFFF80001AFFFC0
9FFFB000000DFFF2
9FFF50000007FFF5
9FFF30000005FFF6
9FFF50000007FFF5
9FFFB000000CFFF3
9FFFF700009FFFD0
9FFFFFC88DFFFF70
9FFFFFFFFFFFFC00
9FFFFFFFFFFFC100
9FFF6AFFFFD70000
9FFF301442000000
9FFF300000000000
9FFF300000000000
9FFF300000000000
9FFF300000000000
5999200000000000
ENDCHAR
STARTCHAR q
ENCODING 113
SWIDTH 607 0
DWIDTH 17 0
BBX 16 22 0 -6
BITMAP
0000000220000000
00004AEFFEA20055
0009FFFFFFFF74F9
009FFFFFFFFFFFF9
05FFFFEA9DFFFFF9
0CFFFB1001AFFFF9
2FFFE100000CFFF9
4FFF80000005FFF9
5FFF70000003FFF9
4FFF80000005FFF9
2FFFD000000BFFF9
0CFFF900008FFFF9
05FFFFD88CFFFFF9
00AFFFFFFFFFFFF9
001AFFFFFFFFFFF9
00005CFFFFB6FFF9
000000244102FFF9
000000000002FFF9
000000000002FFF9
000000000002FFF9
000000000002FFF9
0000000000019995
ENDCHAR
STARTCHAR r
ENCODING 114
SWIDTH 414 0
DWIDTH 12 0
BBX 11 15 1 0
BITMAP
650026899930
9F39FFFFFF40
9FFFFFFFFF40
9FFFFFFFFF40
9FFFF9322200
9FFF90000000
9FFF40000000
9FFF20000000
9FFF20000000
9FFF20000000
9FFF20000000
9FFF20000000
9FFF20000000
9FFF20000000
9FFF20000000
ENDCHAR
STARTCHAR s
ENCODING 115
SWIDTH 523 0
DWIDTH 15 0
BBX 15 15 0 0
BITMAP
0002799999999100
006FFFFFFFFFF200
04FFFFFFFFFFF200
0CFFFFFFFFFFF200
0FFFD22222222000
0FFFC10000000000
0CFFFFFFFFD91000
05FFFFFFFFFFD200
007FFFFFFFFFFA00
00038ABBBBEFFF00
0000000000AFFF10
1BBBBBBBBBFFFE00
1FFFFFFFFFFFF800
1FFFFFFFFFFFC100
1FFFFFFFFFD81000
ENDCHAR
STARTCHAR t
ENCODING 116
SWIDTH 437 0
DWIDTH 12 0
BBX 12 21 0 0
BITMAP
005777000000
00CFFE000000
00CFFE000000
00CFFE000000
00CFFE000000
00CFFE000000
69EFFF999995
9FFFFFFFFFF9
9FFFFFFFFFF9
9FFFFFFFFFF9
12CFFE222221
00CFFE000000
00CFFE000000
00CFFE000000
00CFFE000000
00AFFF300000
007FFFC20000
001EFFFECBB6
0005FFFFFFF9
00006FFFFFF9
0000029DFFF9
ENDCHAR
STARTCHAR u
ENCODING 117
SWIDTH 562 0
DWIDTH 16 0
BBX 14 16 1 -1
BITMAP
7AA9000004AAA3
CFFE000006FFF5
CFFE000006FFF5
CFFE000006FFF5
CFFE000006FFF5
CFFE000006FFF5
CFFE000006FFF5
CFFE000006FFF5
BFFF000007FFF5
AFFF20000AFFF5
7FFFA0004FFFF5
2FFFFC89FFFFF5
09FFFFFFFFFFF5
00BFFFFFFFCBF5
0006DFFFE701D5
00000243000000
ENDCHAR
STARTCHAR v
ENCODING 118
SWIDTH 532 0
DWIDTH 15 0
BBX 15 15 0 0
BITMAP
8AAA3000005AAA80
9FFFA00000BFFF70
3FFFE10002FFFF20
0CFFF50007FFFB00
06FFFB000CFFF500
01FFFF102FFFE000
00AFFF608FFF8000
004FFFB0DFFF3000
000DFFF5FFFC0000
0008FFFEFFF60000
0002FFFFFFF10000
0000BFFFFFA00000
00006FFFFF400000
00001EFFFD000000
000009FFF8000000
ENDCHAR
STARTCHAR w
ENCODING 119
SWIDTH 756 0
DWIDTH 21 0
BBX 19 16 1 -1
BITMAP
79990002999400079980
BFFF0004FFF7000CFFE0
BFFF0004FFF7000CFFE0
BFFF0004FFF7000CFFE0
BFFF0004FFF7000CFFE0
BFFF0004FFF7000CFFE0
BFFF0004FFF7000CFFE0
BFFF0004FFF7000CFFE0
BFFF0004FFF7000CFFE0
BFFF0004FFF7000CFFE0
AFFF4008FFFA001FFFC0
6FFFE89FFFFFA8DFFF90
1DFFFFFFFFFFFFFFFF20
03EFFFFFFFFFFFFFF600
002BFFFF917EFFFC4000
00001431000034200000
ENDCHAR
STARTCHAR x
ENCODING 120
SWIDTH 528 0
DWIDTH 15 0
BBX 15 15 0 0
BITMAP
9BBB800000ABBB70
3FFFF50008FFFE10
07FFFE203FFFF400
00AFFFB1DFFF8000
001DFFFDFFFB0000
0003FFFFFFE20000
00007FFFFF400000
00000EFFFB000000
00007FFFFF400000
0003FFFFFFD10000
001DFFFDFFFA0000
009FFFC1DFFF6000
05FFFF204FFFE200
1EFFF7000AFFFC00
BFFFC00001EFFF80
ENDCHAR
STARTCHAR y
ENCODING 121
SWIDTH 562 0
DWIDTH 16 0
BBX 14 21 1 -6
BITMAP
7AA9000004AAA3
CFFE000006FFF5
CFFE000006FFF5
CFFE000006FFF5
CFFE000006FFF5
CFFE000006FFF5
CFFE000006FFF5
CFFE000006FFF5
BFFF000007FFF5
AFFF20000AFFF5
7FFF90004FFFF5
2FFFFC89FFFFF5
09FFFFFFFFFFF5
00BFFFFFFFFFF5
0006DFFFCEFFF3
000002435FFFE0
00003238FFFF70
0001FFFFFFFD10
0001FFFFFFD200
0001FFFFF91000
00009986200000
ENDCHAR
STARTCHAR z
ENCODING 122
SWIDTH 481 0
DWIDTH 14 0
BBX 13 15 0 0
BITMAP
39999999999960
5FFFFFFFFFFF30
5FFFFFFFFFFA00
5FFFFFFFFFF200
1222228FFF8000
000001EFFE1000
000008FFF60000
00002FFFC00000
0000AFFF400000
0004FFFA000000
000CFFF2000000
006FFFEBBBBB90
01DFFFFFFFFFD0
08FFFFFFFFFFD0
2EFFFFFFFFFFD0
ENDCHAR
STARTCHAR braceleft
ENCODING 123
SWIDTH 466 0
DWIDTH 13 0
BBX 13 26 0 -3
BITMAP
00000015666600
000005EFFFFF10
00003FFFFFFF10
0000AFFFFFFF10
0000CFFF988800
0000CFFF200000
0000CFFF200000
0000CFFF200000
0000CFFF200000
0000DFFF200000
0004FFFE000000
6EEFFFF8000000
7FFFFF80000000
7FFFFF70000000
7FFFFFF7000000
0006FFFD000000
0000DFFF100000
0000CFFF200000
0000CFFF200000
0000CFFF200000
0000CFFF200000
0000CFFF422200
0000BFFFFFFF10
00006FFFFFFF10
00000BFFFFFF10
0000006BCCCC10
ENDCHAR
STARTCHAR bar
ENCODING 124
SWIDTH 267 0
DWIDTH 7 0
BBX 5 26 1 -3
BITMAP
166640
4FFFB0
4FFFB0
4FFFB0
4FFFB0
4FFFB0
4FFFB0
4FFFB0
4FFFB0
4FFFB0
4FFFB0
4FFFB0
4FFFB0
4FFFB0
4FFFB0
4FFFB0
4FFFB0
4FFFB0
4FFFB0
4FFFB0
4FFFB0
4FFFB0
4FFFB0
4FFFB0
4FFFB0
3CCC90
ENDCHAR
STARTCHAR braceright
ENCODING 125
SWIDTH 466 0
DWIDTH 13 0
BBX 12 26 1 -3
BITMAP
666651000000
EFFFFE600000
EFFFFFF40000
EFFFFFFB0000
7888FFFD0000
0001FFFE0000
0001FFFE0000
0001FFFE0000
0001FFFE0000
0000FFFE0000
0000DFFF5000
00007FFFFEE8
000008FFFFF8
000007FFFFF8
00006FFFFFF8
0000CFFF7000
0000FFFE0000
0001FFFE0000
0001FFFE0000
0001FFFE0000
0001FFFE0000
2222FFFE0000
EFFFFFFC0000
EFFFFFF70000
EFFFFFC00000
BCCCB6000000
ENDCHAR
STARTCHAR asciitilde
ENCODING 126
SWIDTH 451 0
DWIDTH 13 0
BBX 11 6 1 7
BITMAP
04BCA207BD10
3FFFFE2AFF40
8FFFFFFFFF30
9FFB8FFFFE10
6FF705EFE500
154200130000
ENDCHAR
STARTCHAR nonbreakingspace
ENCODING 160
SWIDTH 279 0
DWIDTH 8 0
BBX 1 1 0 0
BITMAP
00
ENDCHAR
STARTCHAR exclamdown
ENCODING 161
SWIDTH 274 0
DWIDTH 8 0
BBX 6 21 1 -4
BITMAP
028710
2EFFB0
6FFFF2
5FFFE1
09FE50
000000
08CC50
0BFF70
0CFF80
0DFF80
0EFF90
0FFFA0
1FFFB0
1FFFC0
2FFFD0
3FFFE0
4FFFE0
5FFFF0
6FFFF1
7FFFF2
7EEEE3
ENDCHAR
STARTCHAR cent
ENCODING 162
SWIDTH 462 0
DWIDTH 13 0
BBX 11 20 1 0
BITMAP
00002AA30000
00003FF50000
00003FF50000
00004FF60000
002BFFFFC300
02DFFFFFFE40
0DFFFCBFFFB0
6FFE4002DC10
BFF700003100
DFF300000000
DFF300000000
BFF800004200
5FFF7116ED20
0CFFFFFFFFB0
01BFFFFFFD20
0006CFFD7100
00003FF50000
00003FF50000
00003FF50000
00003FF50000
ENDCHAR
STARTCHAR sterling
ENCODING 163
SWIDTH 681 0
DWIDTH 19 0
BBX 18 20 1 0
BITMAP
000000489910000000
00002CFFFF10000000
0002EFFFFF10000000
000BFFFFFF10000000
002FFFF95500000000
005FFFA00000000000
007FFF700000000000
007FFF700000000000
238FFF933100000000
BFFFFFFFF400000000
BFFFFFFFF400000000
BFFFFFFFF400000000
68BFFFB88200000000
007FFF700000000000
007FFF7000000BDDD1
007FFF7000006FFFE0
007FFFEEEEEEFFFF90
007FFFFFFFFFFFFE20
007FFFFFFFFFFFE300
007FFFFFFFFFD81000
ENDCHAR
STARTCHAR currency
ENCODING 164
SWIDTH 454 0
DWIDTH 13 0
BBX 12 11 0 4
BITMAP
03C2001007C1
1EFEAEFEAFFB
08FFFFFFFFE3
00CFE649FF70
01FF6000BFA0
02FF20007FC0
01FF5000AFA0
00CFD416FF70
07FFFFFFFFE2
1DFECFFFBFFA
02C3023108B0
ENDCHAR
STARTCHAR yen
ENCODING 165
SWIDTH 653 0
DWIDTH 18 0
BBX 16 20 1 0
BITMAP
6999200000008999
AFFF40000000EFFF
AFFF40000000EFFF
AFFF40000000EFFF
AFFF40000000EFFF
AFFF40000000EFFF
AFFF40000000EFFF
8FFF70000002FFFD
5FFFE100000BFFF9
0DFFFD3001AFFFF3
05FFFFFDDFFFFFA0
007FFFFFFFFFFC10
0448FFFFFFFFC541
0FFFFFFFFFFFFFF4
0FFFFFFFFFFFFFF4
0FFFFFFFFFFFFFF4
067777DFFF777772
000000CFFF200000
000000CFFF200000
000000CFFF200000
ENDCHAR
STARTCHAR brokenbar
ENCODING 166
SWIDTH 269 0
DWIDTH 8 0
BBX 5 26 1 -3
BITMAP
166640
3FFFB0
3FFFB0
3FFFB0
3FFFB0
3FFFB0
3FFFB0
3FFFB0
3FFFB0
3FFFB0
3FFFB0
2CCC90
000000
000000
166640
3FFFB0
3FFFB0
3FFFB0
3FFFB0
3FFFB0
3FFFB0
3FFFB0
3FFFB0
3FFFB0
3FFFB0
2CCC90
ENDCHAR
STARTCHAR section
ENCODING 167
SWIDTH 569 0
DWIDTH 16 0
BBX 14 20 1 0
BITMAP
00048999999950
01CFFFFFFFFF90
0AFFFFFFFFFF90
4FFFFFFFFFFF90
7FFF7222222210
6FFFB777763000
2FFFFFFFFFFB10
0CFFFFFFFFFFC0
2FFFFFFFFFFFF5
6FFFA44447FFF9
7FFF500002FFFA
4FFFFDDDDEFFF7
0CFFFFFFFFFFF1
02EFFFFFFFFFF2
0018CDDDDEFFF8
0000000001FFFA
5AAAAAAAACFFF9
7FFFFFFFFFFFF3
7FFFFFFFFFFF70
7FFFFFFFFFC400
ENDCHAR
STARTCHAR dieresis
ENCODING 168
SWIDTH 300 0
DWIDTH 8 0
BBX 9 5 0 14
BITMAP
0420003100
AFF309FE20
EFF70EFF60
8FE208FE10
0210002100
ENDCHAR
STARTCHAR copyright
ENCODING 169
SWIDTH 655 0
DWIDTH 18 0
BBX 17 17 1 1
BITMAP
0000048AB961000000
0003CFFFFFFE700000
005FFD8546BFFA0000
03FF80488614EF8000
0CF81BFFFFD23FF300
4FD0BFD759C008F900
8F74FD10001002FE00
AF48F600000000EF10
BF39F400000000DF10
AF57F800000000EF00
6FA2FF50015005FB00
1EF36FFDCFE20CF600
07FD24CFFE81AFC000
00AFE711215CFE2000
0009FFFDDEFFC20000
00003AEFFFC6000000
000000012000000000
ENDCHAR
STARTCHAR ordfeminine
ENCODING 170
SWIDTH 451 0
DWIDTH 13 0
BBX 10 14 1 6
BITMAP
003AEEA125
03EFFFFED8
0CFD66DFF8
4FF3002EF8
6FE0000BF8
5FF1000DF8
1FF9108FF8
08FFFFFFF8
008FFFE678
0001441001
0000000000
5CCCCCCCC7
6FFFFFFFF9
2666666663
ENDCHAR
STARTCHAR guillemotleft
ENCODING 171
SWIDTH 704 0
DWIDTH 20 0
BBX 19 15 0 0
BITMAP
00000001000000001000
0000002E7000000AC100
000002DFF800009FFD20
00002DFFFB0008FFFE40
0001DFFFB1008FFFE400
001CFFFB1007FFFE4000
01CFFFB1007FFFE40000
1CFFFC1006FFFF400000
1CFFFE3006FFFF800000
01BFFFE4006FFFF90000
000AFFFF5005FFFFA000
0000AFFFF6004EFFFB10
000009FFFC0004EFFF40
0000008FD200003EF600
00000007200000027000
ENDCHAR
STARTCHAR logicalnot
ENCODING 172
SWIDTH 529 0
DWIDTH 15 0
BBX 13 7 1 5
BITMAP
4CCCCCCCCCCC20
5FFFFFFFFFFF20
5FFFFFFFFFFF20
5EEEEEEEFFFF20
000000009FFF20
000000009FFF20
000000007BBB10
ENDCHAR
STARTCHAR uni00AD
ENCODING 173
SWIDTH 418 0
DWIDTH 12 0
BBX 10 4 1 8
BITMAP
4CCCCCCCC1
5FFFFFFFF1
5FFFFFFFF1
4EEEEEEEE1
ENDCHAR
STARTCHAR registered
ENCODING 174
SWIDTH 439 0
DWIDTH 12 0
BBX 11 11 1 9
BITMAP
0017AB930000
04ED98CF7000
2EABAA56F500
9D0F98E68D00
D70F307B2F20
E50F41BA0F30
C80FFFD13F10
6E2F55E1BB00
0CD9107CE200
01AFEDFC3000
000256300000
ENDCHAR
STARTCHAR macron
ENCODING 175
SWIDTH 247 0
DWIDTH 7 0
BBX 7 3 0 15
BITMAP
DDDDDDC0
FFFFFFE0
FFFFFFE0
ENDCHAR
STARTCHAR degree
ENCODING 176
SWIDTH 381 0
DWIDTH 11 0
BBX 9 10 1 10
BITMAP
0001200000
01AFFE7000
1DFFFFFB00
9FFECFFF50
EFF208FF90
EFE005FFA0
BFFB7DFF70
4FFFFFFE10
06EFFFD300
0026850000
ENDCHAR
STARTCHAR plusminus
ENCODING 177
SWIDTH 516 0
DWIDTH 14 0
BBX 12 15 1 0
BITMAP
00009EEE2000
00009FFF2000
00009FFF2000
6CCCEFFFCCCB
8FFFFFFFFFFF
8FFFFFFFFFFF
7EEEFFFFEEEE
00009FFF2000
00009FFF2000
00008DDD1000
000000000000
6BBBBBBBBBBB
8FFFFFFFFFFF
8FFFFFFFFFFF
7FFFFFFFFFFE
ENDCHAR
STARTCHAR twosuperior
ENCODING 178
SWIDTH 355 0
DWIDTH 10 0
BBX 8 10 1 10
BITMAP
1AAA9600
2FFFFFB0
2FFFFFF5
01137FF7
05EFFFF5
2FFFFFA0
7FFA7400
8FFBAAA3
8FFFFFF5
8FFFFFF5
ENDCHAR
STARTCHAR threesuperior
ENCODING 179
SWIDTH 354 0
DWIDTH 10 0
BBX 8 10 1 10
BITMAP
49999600
6FFFFFC1
6FFFFFF7
12445FF9
05FFFFF7
05FFFFF4
02889FF9
4AAABFF8
6FFFFFF3
6FFFFD40
ENDCHAR
STARTCHAR acute
ENCODING 180
SWIDTH 225 0
DWIDTH 6 0
BBX 7 7 0 13
BITMAP
00022000
003ED100
04EFFA00
4EFFFC10
BFFE6000
2EA10000
01000000
ENDCHAR
STARTCHAR mu
ENCODING 181
SWIDTH 571 0
DWIDTH 16 0
BBX 14 22 1 -7
BITMAP
3AAA4000009AA8
4FFF600000EFFC
4FFF600000EFFC
4FFF600000EFFC
4FFF600000EFFC
4FFF600000EFFC
4FFF600000EFFC
4FFF600000EFFC
4FFF700000EFFC
4FFF900003FFFC
4FFFE2001BFFFC
4FFFFE97CFFFFC
4FFFFFFFFFFFFC
4FFFFFFFFFF8FC
4FFFAFFFFB307C
4FFE0134100000
4FFD0000000000
4FFD0000000000
4FFC0000000000
4FFB0000000000
4FFA0000000000
13320000000000
ENDCHAR
STARTCHAR paragraph
ENCODING 182
SWIDTH 808 0
DWIDTH 23 0
BBX 20 20 1 0
BITMAP
00000279AA9999999996
0003BFFFFFFFFFFFFFF9
005EFFFFFFFFFFFFFFF9
04FFFFFFFFFFFFFFFFF9
0EFFFF95AFFF9558FFF9
6FFFF4008FFF6004FFF9
BFFF70008FFF6004FFF9
DFFF10008FFF6004FFF9
EFFF00008FFF6004FFF9
CFFF30008FFF6004FFF9
9FFFC0008FFF6004FFF9
3FFFFB208FFF6004FFF9
0AFFFFFDEFFF6004FFF9
01CFFFFFFFFF6004FFF9
001AFFFFFFFF6004FFF9
00004AEFFFFF6004FFF9
000000019FFF6004FFF9
000000008FFF6004FFF9
000000008FFF6004FFF9
000000008FFF6004FFF9
ENDCHAR
STARTCHAR periodcentered
ENCODING 183
SWIDTH 261 0
DWIDTH 7 0
BBX 5 6 1 7
BITMAP
001000
1BFD30
8FFFC0
9FFFE0
4FFF80
037500
ENDCHAR
STARTCHAR cedilla
ENCODING 184
SWIDTH 208 0
DWIDTH 6 0
BBX 6 8 0 -7
BITMAP
005C30
00BE00
02FFA1
049FF9
562EFC
BFFFF9
8FFFC1
014300
ENDCHAR
STARTCHAR onesuperior
ENCODING 185
SWIDTH 231 0
DWIDTH 7 0
BBX 4 10 1 10
BITMAP
7AA8
BFFC
BFFC
1DFC
0DFC
0DFC
0DFC
0DFC
0DFC
0DFC
ENDCHAR
STARTCHAR ordmasculine
ENCODING 186
SWIDTH 432 0
DWIDTH 12 0
BBX 10 14 1 6
BITMAP
003AEEB400
03EFFFFF50
0DFD66DFE1
4FF2001EF6
6FD0000CF8
5FF1000DF7
1EFA108FF2
07FFFFFF90
007FFFF800
0001441000
0000000000
5CCCCCCCC7
6FFFFFFFF8
2666666663
ENDCHAR
STARTCHAR guillemotright
ENCODING 187
SWIDTH 703 0
DWIDTH 20 0
BBX 18 15 1 0
BITMAP
001000000000000000
04E5000001BB000000
4EFF50001CFFA00000
7FFFF4002EFFFA0000
07FFFE4003EFFF9000
008FFFE3003EFFF900
0008FFFE3003EFFF80
00008FFFE3003EFFF8
0001BFFFE3006FFFF8
001CFFFD2007FFFF70
02DFFFD2009FFFF600
3DFFFC100AFFFF5000
8FFFC1003EFFF40000
0AFB100005FE400000
008100000063000000
ENDCHAR
STARTCHAR onequarter
ENCODING 188
SWIDTH 648 0
DWIDTH 18 0
BBX 17 20 1 0
BITMAP
09AA50000049950000
0FFF800000CFF20000
0FFF800006FF900000
03FF80001DFE100000
02FF80007FF7000000
02FF8001EFE1000000
02FF8009FF60000000
02FF802FFD00000000
02FF80AFF400000000
02FF83FFB000000000
00000CFF38A9000000
00005FFA0EFC5CC300
0000DFF21FFA6FF400
0006FF803FF86FF400
001EFE105FF56FF400
008FF7007FF9AFF910
02EFD0009FFFFFFF20
09FF5000BFFFFFFF20
3FFC000034449FF700
BFF4000000006FF400
ENDCHAR
STARTCHAR onehalf
ENCODING 189
SWIDTH 637 0
DWIDTH 18 0
BBX 16 20 1 0
BITMAP
09AA500000499500
0FFF800000CFF200
0FFF800006FF9000
03FF80001DFE1000
02FF80007FF70000
02FF8001EFE10000
02FF8009FF600000
02FF802FFD000000
02FF80AFF4000000
02FF83FFB0000000
00000CFF38AA9710
00005FFA0DFFFFE2
0000DFF20DFFFFF9
0006FF8001124FFB
001EFE1003DFFFF8
008FF7000DFFFFD1
02EFD0003FFB7500
09FF50004FFCAAA6
3FFC00004FFFFFF9
BFF400004FFFFFF9
ENDCHAR
STARTCHAR threequarters
ENCODING 190
SWIDTH 708 0
DWIDTH 20 0
BBX 18 20 1 0
BITMAP
799984000000699300
CFFFFF800002FFD000
CFFFFFF1000AFF5000
1344AFF4003FFB0000
0AFFFFF100BFF30000
0AFFFFD005FFA00000
0588CFF30DFF200000
8AAADFF36FF8000000
CFFFFFC1EFE1000000
CFFFEA28FF70000000
0000002EFD1AA60000
0000009FF53FF88CB0
000003FFC05FF6BFF0
00000BFF407FF3BFF0
00004FFB009FF1BFF0
0000CFF300BFE7DFF6
0005FF9000DFFFFFFD
000DFE2000FFFFFFFD
007FF800004444CFF3
01EFE100000000BFF0
ENDCHAR
STARTCHAR questiondown
ENCODING 191
SWIDTH 602 0
DWIDTH 17 0
BBX 15 21 1 -4
BITMAP
0000000058400000
00000007FFF60000
0000000CFFFB0000
0000000BFFF90000
00000002CFB10000
0000000000000000
00000006CCC50000
00000008FFF60000
0000001DFFF40000
0005ACEFFFE10000
01BFFFFFFF700000
0CFFFFFFFA000000
7FFFFFFD60000000
CFFFA31000000000
FFFE000000000000
FFFE000000000000
DFFF810000000000
8FFFFFFFFFFFFFC0
1DFFFFFFFFFFFFC0
02DFFFFFFFFFFFC0
0017CEEEEEEEEEB0
ENDCHAR
STARTCHAR Agrave
ENCODING 192
SWIDTH 673 0
DWIDTH 19 0
BBX 17 27 1 0
BITMAP
000004100000000000
00002EC10000000000
0001DFFD2000000000
0003DFFFD200000000
000018FFF800000000
0000003CC000000000
000000001000000000
000001589840000000
00008EFFFFFE700000
001CFFFFFFFFFB0000
00BFFFFFFFFFFFA000
06FFFFD757EFFFF400
0DFFFA10001CFFFB00
3FFFE1000002FFFF10
5FFF90000000BFFF30
6FFF80000000AFFF40
6FFF80000000AFFF40
6FFF80000000AFFF40
6FFF80000000AFFF40
6FFFECCCCCCCEFFF40
6FFFFFFFFFFFFFFF40
6FFFFFFFFFFFFFFF40
6FFFFFFFFFFFFFFF40
6FFF81111111AFFF40
6FFF80000000AFFF40
6FFF80000000AFFF40
6FFF80000000AFFF40
ENDCHAR
STARTCHAR Aacute
ENCODING 193
SWIDTH 673 0
DWIDTH 19 0
BBX 17 27 1 0
BITMAP
000000000032000000
0000000003EC000000
000000004EFF900000
00000005FFFFB10000
0000000CFFE6000000
00000002E910000000
000000001000000000
000001589840000000
00008EFFFFFE700000
001CFFFFFFFFFB0000
00BFFFFFFFFFFFA000
06FFFFD757EFFFF400
0DFFFA10001CFFFB00
3FFFE1000002FFFF10
5FFF90000000BFFF30
6FFF80000000AFFF40
6FFF80000000AFFF40
6FFF80000000AFFF40
6FFF80000000AFFF40
6FFFECCCCCCCEFFF40
6FFFFFFFFFFFFFFF40
6FFFFFFFFFFFFFFF40
6FFFFFFFFFFFFFFF40
6FFF81111111AFFF40
6FFF80000000AFFF40
6FFF80000000AFFF40
6FFF80000000AFFF40
ENDCHAR
STARTCHAR Acircumflex
ENCODING 194
SWIDTH 673 0
DWIDTH 19 0
BBX 17 26 1 0
BITMAP
000000004000000000
0000000AF700000000
000000BFFF80000000
00001BFFFFF9000000
00001CFC3DFB000000
0000019101A1000000
000001589840000000
00008EFFFFFE700000
001CFFFFFFFFFB0000
00BFFFFFFFFFFFA000
06FFFFD757EFFFF400
0DFFFA10001CFFFB00
3FFFE1000002FFFF10
5FFF90000000BFFF30
6FFF80000000AFFF40
6FFF80000000AFFF40
6FFF80000000AFFF40
6FFF80000000AFFF40
6FFFECCCCCCCEFFF40
6FFFFFFFFFFFFFFF40
6FFFFFFFFFFFFFFF40
6FFFFFFFFFFFFFFF40
6FFF81111111AFFF40
6FFF80000000AFFF40
6FFF80000000AFFF40
6FFF80000000AFFF40
ENDCHAR
STARTCHAR Atilde
ENCODING 195
SWIDTH 673 0
DWIDTH 19 0
BBX 17 26 1 0
BITMAP
000001420013300000
00005FFF90CFD00000
0000EFFFFBEFE00000
0001FFEBFFFFB00000
0000EFB07FFE300000
000045400241000000
000001589840000000
00008EFFFFFE700000
001CFFFFFFFFFB0000
00BFFFFFFFFFFFA000
06FFFFD757EFFFF400
0DFFFA10001CFFFB00
3FFFE1000002FFFF10
5FFF90000000BFFF30
6FFF80000000AFFF40
6FFF80000000AFFF40
6FFF80000000AFFF40
6FFF80000000AFFF40
6FFFECCCCCCCEFFF40
6FFFFFFFFFFFFFFF40
6FFFFFFFFFFFFFFF40
6FFFFFFFFFFFFFFF40
6FFF81111111AFFF40
6FFF80000000AFFF40
6FFF80000000AFFF40
6FFF80000000AFFF40
ENDCHAR
STARTCHAR Adieresis
ENCODING 196
SWIDTH 673 0
DWIDTH 19 0
BBX 17 25 1 0
BITMAP
000003300022000000
00007FF506FF400000
0000BFFA0BFF900000
00006FF406FF400000
000001100011000000
000001589840000000
00008EFFFFFE700000
001CFFFFFFFFFB0000
00BFFFFFFFFFFFA000
06FFFFD757EFFFF400
0DFFFA10001CFFFB00
3FFFE1000002FFFF10
5FFF90000000BFFF30
6FFF80000000AFFF40
6FFF80000000AFFF40
6FFF80000000AFFF40
6FFF80000000AFFF40
6FFFECCCCCCCEFFF40
6FFFFFFFFFFFFFFF40
6FFFFFFFFFFFFFFF40
6FFFFFFFFFFFFFFF40
6FFF81111111AFFF40
6FFF80000000AFFF40
6FFF80000000AFFF40
6FFF80000000AFFF40
ENDCHAR
STARTCHAR Aring
ENCODING 197
SWIDTH 673 0
DWIDTH 19 0
BBX 17 25 1 0
BITMAP
000000001000000000
0000004DFC20000000
000001EFBFC0000000
000003FA0BF1000000
000001FE9FE0000000
000001BFFF80000000
00008EFFFFFE600000
001CFFFFFFFFFA0000
00CFFFFFFFFFFFA000
06FFFFD757EFFFF400
0DFFFA10001CFFFB00
3FFFE1000002FFFF10
5FFF90000000BFFF30
6FFF80000000AFFF40
6FFF80000000AFFF40
6FFF80000000AFFF40
6FFF80000000AFFF40
6FFFECCCCCCCEFFF40
6FFFFFFFFFFFFFFF40
6FFFFFFFFFFFFFFF40
6FFFFFFFFFFFFFFF40
6FFF81111111AFFF40
6FFF80000000AFFF40
6FFF80000000AFFF40
6FFF80000000AFFF40
ENDCHAR
STARTCHAR AE
ENCODING 198
SWIDTH 988 0
DWIDTH 28 0
BBX 26 20 1 0
BITMAP
00000158999999999999999997
00008EFFFFFFFFFFFFFFFFFFFC
001CFFFFFFFFFFFFFFFFFFFFFC
00BFFFFFFFFFFFFFFFFFFFFFFC
06FFFFD75555CFFF7555555554
0DFFFA100000AFFF4000000000
3FFFE1000000AFFF4000000000
5FFF90000000AFFF4000000000
6FFF80000000AFFFCCCCCC8000
6FFF80000000AFFFFFFFFFA000
6FFF80000000AFFFFFFFFFA000
6FFF80000000AFFFFFFFFFA000
6FFFECCCCCCCEFFF6333332000
6FFFFFFFFFFFFFFF4000000000
6FFFFFFFFFFFFFFF4000000000
6FFFFFFFFFFFFFFF4000000000
6FFF81111111AFFFEEEEEEEEEB
6FFF80000000AFFFFFFFFFFFFC
6FFF80000000AFFFFFFFFFFFFC
6FFF80000000AFFFFFFFFFFFFC
ENDCHAR
STARTCHAR Ccedilla
ENCODING 199
SWIDTH 640 0
DWIDTH 18 0
BBX 18 27 0 -7
BITMAP
000000049BDCB73000
000004DFFFFFFFFB30
00009FFFFFFFFFFFF3
0009FFFFFFFFFFFFD0
006FFFFE83124AFF40
01EFFFC20000004900
07FFFD100000000000
0DFFF5000000000000
1FFFE0000000000000
3FFFB0000000000000
3FFFA0000000000000
2FFFC0000000000000
0EFFF2000000000000
0BFFF9000000000000
05FFFF500000000200
00CFFFF8100002AD10
002EFFFFEA88BFFF80
0004EFFFFFFFFFFFF3
00002CFFFFFFFFFFA1
0000006CFFFFFFB400
000000009F76410000
00000000EFB2000000
000000029EFC000000
000000382CFF000000
0000008FFFFC000000
0000006EFFD3000000
000000014300000000
ENDCHAR
STARTCHAR Egrave
ENCODING 200
SWIDTH 578 0
DWIDTH 16 0
BBX 15 27 1 0
BITMAP
0000040000000000
00009F6000000000
0006FFF700000000
0008FFFF80000000
00003CFFE1000000
0000007E50000000
0000000100000000
2999999999999920
3FFFFFFFFFFFFF40
3FFFFFFFFFFFFF40
3FFFFFFFFFFFFF40
3FFFC55555555510
3FFFB00000000000
3FFFB00000000000
3FFFB00000000000
3FFFECCCCCC20000
3FFFFFFFFFF30000
3FFFFFFFFFF30000
3FFFFFFFFFF30000
3FFFC33333300000
3FFFB00000000000
3FFFB00000000000
3FFFB00000000000
3FFFFEEEEEEEEE40
3FFFFFFFFFFFFF40
3FFFFFFFFFFFFF40
3FFFFFFFFFFFFF40
ENDCHAR
STARTCHAR Eacute
ENCODING 201
SWIDTH 578 0
DWIDTH 16 0
BBX 15 27 1 0
BITMAP
0000000001300000
000000002DE20000
00000002DFFC0000
0000003EFFFD2000
0000009FFF700000
0000001DB2000000
0000000100000000
2999999999999920
3FFFFFFFFFFFFF40
3FFFFFFFFFFFFF40
3FFFFFFFFFFFFF40
3FFFC55555555510
3FFFB00000000000
3FFFB00000000000
3FFFB00000000000
3FFFECCCCCC20000
3FFFFFFFFFF30000
3FFFFFFFFFF30000
3FFFFFFFFFF30000
3FFFC33333300000
3FFFB00000000000
3FFFB00000000000
3FFFB00000000000
3FFFFEEEEEEEEE40
3FFFFFFFFFFFFF40
3FFFFFFFFFFFFF40
3FFFFFFFFFFFFF40
ENDCHAR
STARTCHAR Ecircumflex
ENCODING 202
SWIDTH 578 0
DWIDTH 16 0
BBX 15 27 1 0
BITMAP
0000000400000000
0000009F80000000
000009FFF9000000
0000AFFFFFA10000
0000BFD3CFC10000
00001A101A200000
0000000000000000
2999999999999920
3FFFFFFFFFFFFF40
3FFFFFFFFFFFFF40
3FFFFFFFFFFFFF40
3FFFC55555555510
3FFFB00000000000
3FFFB00000000000
3FFFB00000000000
3FFFECCCCCC20000
3FFFFFFFFFF30000
3FFFFFFFFFF30000
3FFFFFFFFFF30000
3FFFC33333300000
3FFFB00000000000
3FFFB00000000000
3FFFB00000000000
3FFFFEEEEEEEEE40
3FFFFFFFFFFFFF40
3FFFFFFFFFFFFF40
3FFFFFFFFFFFFF40
ENDCHAR
STARTCHAR Edieresis
ENCODING 203
SWIDTH 578 0
DWIDTH 16 0
BBX 15 25 1 0
BITMAP
0000230002200000
0005FF705FF60000
000AFFB09FFA0000
0004FF604FF50000
0000110001100000
2999999999999920
3FFFFFFFFFFFFF40
3FFFFFFFFFFFFF40
3FFFFFFFFFFFFF40
3FFFC55555555510
3FFFB00000000000
3FFFB00000000000
3FFFB00000000000
3FFFECCCCCC20000
3FFFFFFFFFF30000
3FFFFFFFFFF30000
3FFFFFFFFFF30000
3FFFC33333300000
3FFFB00000000000
3FFFB00000000000
3FFFB00000000000
3FFFFEEEEEEEEE40
3FFFFFFFFFFFFF40
3FFFFFFFFFFFFF40
3FFFFFFFFFFFFF40
ENDCHAR
STARTCHAR Igrave
ENCODING 204
SWIDTH 270 0
DWIDTH 8 0
BBX 7 27 -1 0
BITMAP
00400000
09F60000
6FFF7000
9FFFF800
04DFFE10
0007E500
00001000
00299970
003FFFB0
003FFFB0
003FFFB0
003FFFB0
003FFFB0
003FFFB0
003FFFB0
003FFFB0
003FFFB0
003FFFB0
003FFFB0
003FFFB0
003FFFB0
003FFFB0
003FFFB0
003FFFB0
003FFFB0
003FFFB0
003FFFB0
ENDCHAR
STARTCHAR Iacute
ENCODING 205
SWIDTH 270 0
DWIDTH 8 0
BBX 8 27 1 0
BITMAP
00001400
0001CE30
001CFFD1
02DFFFD3
07FFF810
00BC3000
00100000
29997000
3FFFB000
3FFFB000
3FFFB000
3FFFB000
3FFFB000
3FFFB000
3FFFB000
3FFFB000
3FFFB000
3FFFB000
3FFFB000
3FFFB000
3FFFB000
3FFFB000
3FFFB000
3FFFB000
3FFFB000
3FFFB000
3FFFB000
ENDCHAR
STARTCHAR Icircumflex
ENCODING 206
SWIDTH 270 0
DWIDTH 8 0
BBX 8 27 0 0
BITMAP
00031000
005FB100
06FFFC10
6FFFFFD2
7FE49FE3
08300750
00000000
02999700
03FFFB00
03FFFB00
03FFFB00
03FFFB00
03FFFB00
03FFFB00
03FFFB00
03FFFB00
03FFFB00
03FFFB00
03FFFB00
03FFFB00
03FFFB00
03FFFB00
03FFFB00
03FFFB00
03FFFB00
03FFFB00
03FFFB00
ENDCHAR
STARTCHAR Idieresis
ENCODING 207
SWIDTH 270 0
DWIDTH 8 0
BBX 9 25 -1 0
BITMAP
0140001300
2EFB02EFA0
5FFF15FFE0
1DFA01DF90
0020000200
0029997000
003FFFB000
003FFFB000
003FFFB000
003FFFB000
003FFFB000
003FFFB000
003FFFB000
003FFFB000
003FFFB000
003FFFB000
003FFFB000
003FFFB000
003FFFB000
003FFFB000
003FFFB000
003FFFB000
003FFFB000
003FFFB000
003FFFB000
ENDCHAR
STARTCHAR Eth
ENCODING 208
SWIDTH 672 0
DWIDTH 19 0
BBX 19 20 0 0
BITMAP
00699999985100000000
00AFFFFFFFFF92000000
00AFFFFFFFFFFE500000
00AFFFFFFFFFFFF50000
00AFFF8557CFFFFF3000
00AFFF400005EFFFC000
00AFFF4000003FFFF500
00AFFF40000008FFFA00
ACEFFFDC700002FFFD00
DFFFFFFF900000EFFF00
DFFFFFFF900000DFFF10
DEFFFFFE800001FFFE00
00AFFF40000005FFFB00
00AFFF4000001DFFF700
00AFFF400001BFFFE100
00AFFF40016DFFFF7000
00AFFFEEEFFFFFFB0000
00AFFFFFFFFFFFA10000
00AFFFFFFFFFE6000000
00AFFFFFFEB610000000
ENDCHAR
STARTCHAR Ntilde
ENCODING 209
SWIDTH 689 0
DWIDTH 19 0
BBX 17 26 1 0
BITMAP
000001330013400000
00003EFFC18FF10000
0000AFFFFCDFF20000
0000CFFAFFFFE00000
0000AFE04EFF500000
000036510142000000
299992000000499950
3FFFFA0000006FFF80
3FFFFF4000006FFF80
3FFFFFC000006FFF80
3FFFFFF600006FFF80
3FFFFFFE10006FFF80
3FFFFFFF90006FFF80
3FFFCEFFF3006FFF80
3FFFB6FFFB006FFF80
3FFFB0CFFF506FFF80
3FFFB04FFFD16FFF80
3FFFB00AFFF86FFF80
3FFFB002FFFF8FFF80
3FFFB0008FFFFFFF80
3FFFB0001DFFFFFF80
3FFFB00005FFFFFF80
3FFFB00000BFFFFF80
3FFFB000003FFFFF80
3FFFB0000009FFFF80
3FFFB0000001EFFF80
ENDCHAR
STARTCHAR Ograve
ENCODING 210
SWIDTH 777 0
DWIDTH 22 0
BBX 21 28 0 -1
BITMAP
0000000040000000000000
00000009F6000000000000
0000006FFF700000000000
0000008FFFF80000000000
00000003CFFE2000000000
0000000007E50000000000
0000000000100000000000
000000048BCCB720000000
000004CFFFFFFFFB200000
00008FFFFFFFFFFFF50000
0009FFFFFFFFFFFFFF6000
006FFFFE83124AFFFFF300
01EFFFC20000004EFFFC00
07FFFD1000000003FFFF40
0DFFF500000000009FFF90
1FFFE000000000003FFFD0
3FFFB000000000000EFFF0
3FFFA000000000000EFFF0
2FFFC000000000001FFFE0
0FFFF200000000005FFFB0
0BFFF90000000000CFFF70
04FFFF5000000009FFFF20
00CFFFF8100002AFFFF800
002EFFFFEA88BFFFFFC100
0004EFFFFFFFFFFFFD2000
00002CFFFFFFFFFFA10000
0000006CFFFFFFB4000000
0000000025664100000000
ENDCHAR
STARTCHAR Oacute
ENCODING 211
SWIDTH 777 0
DWIDTH 22 0
BBX 21 28 0 -1
BITMAP
0000000000000500000000
0000000000009F60000000
00000000000AFFF3000000
0000000000AFFFE6000000
0000000003FFFB20000000
00000000008E5000000000
0000000000010000000000
000000048BCCB720000000
000004CFFFFFFFFB200000
00008FFFFFFFFFFFF50000
0009FFFFFFFFFFFFFF6000
006FFFFE83124AFFFFF300
01EFFFC20000004EFFFC00
07FFFD1000000003FFFF40
0DFFF500000000009FFF90
1FFFE000000000003FFFD0
3FFFB000000000000EFFF0
3FFFA000000000000EFFF0
2FFFC000000000001FFFE0
0FFFF200000000005FFFB0
0BFFF90000000000CFFF70
04FFFF5000000009FFFF20
00CFFFF8100002AFFFF800
002EFFFFEA88BFFFFFC100
0004EFFFFFFFFFFFFD2000
00002CFFFFFFFFFFA10000
0000006CFFFFFFB4000000
0000000025664100000000
ENDCHAR
STARTCHAR Ocircumflex
ENCODING 212
SWIDTH 777 0
DWIDTH 22 0
BBX 21 28 0 -1
BITMAP
0000000000310000000000
0000000004EC1000000000
000000005FFFD200000000
00000005FFFFFE30000000
00000006FF58FF40000000
0000000074006600000000
0000000000000000000000
000000048BCCB720000000
000004CFFFFFFFFB200000
00008FFFFFFFFFFFF50000
0009FFFFFFFFFFFFFF6000
006FFFFE83124AFFFFF300
01EFFFC20000004EFFFC00
07FFFD1000000003FFFF40
0DFFF500000000009FFF90
1FFFE000000000003FFFD0
3FFFB000000000000EFFF0
3FFFA000000000000EFFF0
2FFFC000000000001FFFE0
0FFFF200000000005FFFB0
0BFFF90000000000CFFF70
04FFFF5000000009FFFF20
00CFFFF8100002AFFFF800
002EFFFFEA88BFFFFFC100
0004EFFFFFFFFFFFFD2000
00002CFFFFFFFFFFA10000
0000006CFFFFFFB4000000
0000000025664100000000
ENDCHAR
STARTCHAR Otilde
ENCODING 213
SWIDTH 777 0
DWIDTH 22 0
BBX 21 27 0 -1
BITMAP
0000000034000241000000
0000001CFFD35FF5000000
0000007FFFFEBFF6000000
0000009FFBEFFFF3000000
0000007FF32CFF90000000
0000001652004200000000
000000048BCCB720000000
000004CFFFFFFFFB200000
00008FFFFFFFFFFFF50000
0009FFFFFFFFFFFFFF6000
006FFFFE83124AFFFFF300
01EFFFC20000004EFFFC00
07FFFD1000000003FFFF40
0DFFF500000000009FFF90
1FFFE000000000003FFFD0
3FFFB000000000000EFFF0
3FFFA000000000000EFFF0
2FFFC000000000001FFFE0
0FFFF200000000005FFFB0
0BFFF90000000000CFFF70
04FFFF5000000009FFFF20
00CFFFF8100002AFFFF800
002EFFFFEA88BFFFFFC100
0004EFFFFFFFFFFFFD2000
00002CFFFFFFFFFFA10000
0000006CFFFFFFB4000000
0000000025664100000000
ENDCHAR
STARTCHAR Odieresis
ENCODING 214
SWIDTH 777 0
DWIDTH 22 0
BBX 21 26 0 -1
BITMAP
0000000141001300000000
0000001EFC01DFB0000000
0000004FFF24FFF0000000
0000001DFB01DFA0000000
0000000020000200000000
000000048BCCB720000000
000004CFFFFFFFFB200000
00008FFFFFFFFFFFF50000
0009FFFFFFFFFFFFFF6000
006FFFFE83124AFFFFF300
01EFFFC20000004EFFFC00
07FFFD1000000003FFFF40
0DFFF500000000009FFF90
1FFFE000000000003FFFD0
3FFFB000000000000EFFF0
3FFFA000000000000EFFF0
2FFFC000000000001FFFE0
0FFFF200000000005FFFB0
0BFFF90000000000CFFF70
04FFFF5000000009FFFF20
00CFFFF8100002AFFFF800
002EFFFFEA88BFFFFFC100
0004EFFFFFFFFFFFFD2000
00002CFFFFFFFFFFA10000
0000006CFFFFFFB4000000
0000000025664100000000
ENDCHAR
STARTCHAR multiply
ENCODING 215
SWIDTH 479 0
DWIDTH 13 0
BBX 11 12 1 4
BITMAP
001000002000
01CA0006F600
1CFFA06FFF60
7FFFFCFFFFC0
08FFFFFFFC10
008FFFFFC100
006FFFFFA000
06FFFFFFFA00
5FFFFEFFFFA0
1CFFC18FFF60
01CC1008F600
001100003000
ENDCHAR
STARTCHAR Oslash
ENCODING 216
SWIDTH 777 0
DWIDTH 22 0
BBX 21 21 0 -1
BITMAP
000000048BCCB721999600
000004CFFFFFFFFDFFE200
00008FFFFFFFFFFFFF6000
0009FFFFFFFFFFFFFF5000
006FFFFE83125FFFFFF300
01EFFFC200008FFFFFFB00
07FFFD100004FFF9FFFF40
0DFFF500001EFFB08FFF90
1FFFE00000BFFE102FFFD0
3FFFB00007FFF4000EFFE0
3FFFA0003FFF80000EFFF0
2FFFC001DFFC00001FFFE0
0EFFF10AFFE200005FFFB0
0AFFF96FFF500000CFFF70
04FFFFFFF9000009FFFF20
00BFFFFFD10002AFFFF800
002EFFFFEA88BFFFFFC100
0007FFFFFFFFFFFFFD2000
002EFFFFFFFFFFFFA10000
00BFFE6CFFFFFFB4000000
0000000025664100000000
ENDCHAR
STARTCHAR Ugrave
ENCODING 217
SWIDTH 673 0
DWIDTH 19 0
BBX 17 27 1 0
BITMAP
000002300000000000
00000CE40000000000
00009FFE4000000000
0001BFFFF500000000
000005EFFC00000000
00000019E200000000
000000001000000000
499950000000699930
6FFF80000000AFFF40
6FFF80000000AFFF40
6FFF80000000AFFF40
6FFF80000000AFFF40
6FFF80000000AFFF40
6FFF80000000AFFF40
6FFF80000000AFFF40
6FFF80000000AFFF40
6FFF80000000AFFF40
6FFF80000000AFFF40
6FFF80000000AFFF40
6FFF80000000AFFF40
4FFFC0000000DFFF20
1FFFF6000008FFFD00
0AFFFF81019FFFF800
02EFFFFFEFFFFFD100
004FFFFFFFFFFE3000
0004DFFFFFFFC20000
000006BEFEA5000000
ENDCHAR
STARTCHAR Uacute
ENCODING 218
SWIDTH 673 0
DWIDTH 19 0
BBX 17 27 1 0
BITMAP
000000000023000000
0000000002DE100000
000000003EFFB00000
00000003EFFFC20000
0000000AFFE7000000
00000001DB20000000
000000001000000000
499950000000699930
6FFF80000000AFFF40
6FFF80000000AFFF40
6FFF80000000AFFF40
6FFF80000000AFFF40
6FFF80000000AFFF40
6FFF80000000AFFF40
6FFF80000000AFFF40
6FFF80000000AFFF40
6FFF80000000AFFF40
6FFF80000000AFFF40
6FFF80000000AFFF40
6FFF80000000AFFF40
4FFFC0000000DFFF20
1FFFF6000008FFFD00
0AFFFF81019FFFF800
02EFFFFFEFFFFFD100
004FFFFFFFFFFE3000
0004DFFFFFFFC20000
000006BEFEA5000000
ENDCHAR
STARTCHAR Ucircumflex
ENCODING 219
SWIDTH 673 0
DWIDTH 19 0
BBX 17 26 1 0
BITMAP
000000004000000000
0000000AF700000000
000000BFFF80000000
00001BFFFFF9000000
00001CFC3DFB000000
0000019101A1000000
499950000000699930
6FFF80000000AFFF40
6FFF80000000AFFF40
6FFF80000000AFFF40
6FFF80000000AFFF40
6FFF80000000AFFF40
6FFF80000000AFFF40
6FFF80000000AFFF40
6FFF80000000AFFF40
6FFF80000000AFFF40
6FFF80000000AFFF40
6FFF80000000AFFF40
6FFF80000000AFFF40
4FFFC0000000DFFF20
1FFFF6000008FFFD00
0AFFFF81019FFFF800
02EFFFFFEFFFFFD100
004FFFFFFFFFFE3000
0004DFFFFFFFC20000
000006BEFEA5000000
ENDCHAR
STARTCHAR Udieresis
ENCODING 220
SWIDTH 673 0
DWIDTH 19 0
BBX 17 25 1 0
BITMAP
000003300022000000
00007FF506FF400000
0000BFFA0BFF900000
00006FF406FF400000
000001100011000000
499950000000699930
6FFF80000000AFFF40
6FFF80000000AFFF40
6FFF80000000AFFF40
6FFF80000000AFFF40
6FFF80000000AFFF40
6FFF80000000AFFF40
6FFF80000000AFFF40
6FFF80000000AFFF40
6FFF80000000AFFF40
6FFF80000000AFFF40
6FFF80000000AFFF40
6FFF80000000AFFF40
4FFFC0000000DFFF20
1FFFF6000008FFFD00
0AFFFF81019FFFF800
02EFFFFFEFFFFFD100
004FFFFFFFFFFE3000
0004DFFFFFFFC20000
000006BEFEA5000000
ENDCHAR
STARTCHAR Yacute
ENCODING 221
SWIDTH 620 0
DWIDTH 17 0
BBX 17 27 0 0
BITMAP
000000000014000000
0000000001CE200000
000000002DFFD10000
00000002DFFFD30000
00000008FFF8100000
00000000CC30000000
000000001000000000
299970000000499950
3FFFC00000006FFF80
3FFFC00000006FFF80
3FFFC00000006FFF80
3FFFC00000006FFF80
3FFFC00000006FFF80
2FFFC00000006FFF70
1FFFE00000009FFF60
0CFFF8000003FFFF30
07FFFF81005EFFFC00
01DFFFFECEFFFFF400
003EFFFFFFFFFF7000
0003DFFFFFFFF60000
000006CFFFE8200000
0000004FFFA0000000
0000004FFFA0000000
0000004FFFA0000000
0000004FFFA0000000
0000004FFFA0000000
0000004FFFA0000000
ENDCHAR
STARTCHAR Thorn
ENCODING 222
SWIDTH 637 0
DWIDTH 18 0
BBX 17 22 1 -1
BITMAP
177750000000000000
3FFFB0000000000000
3FFFB0000000000000
3FFFEAAAA861000000
3FFFFFFFFFFF910000
3FFFFFFFFFFFFD2000
3FFFFFFFFFFFFFD100
3FFFC44446CFFFF800
3FFFB0000009FFFE00
3FFFB0000000DFFF40
3FFFB00000008FFF60
3FFFB00000007FFF70
3FFFB0000000AFFF50
3FFFB0000004FFFF20
3FFFB000006EFFFB00
3FFFFDDDDFFFFFF300
3FFFFFFFFFFFFF6000
3FFFFFFFFFFFE50000
3FFFFFFFFFC7100000
3FFFB1111000000000
3FFFB0000000000000
2CCC90000000000000
ENDCHAR
STARTCHAR germandbls
ENCODING 223
SWIDTH 813 0
DWIDTH 23 0
BBX 23 22 0 0
BITMAP
0000005ACDDDDB7100000000
00002CFFFFFFFFFE40000000
0002EFFFFFFFFFFFE3000000
000BFFFFEDDDDFFFFA000000
003FFFE5000003EFFE000000
007FFF70000000AFFF100000
008FFF30000000DFFF000000
4ADFFF3000279DFFFC000000
6FFFFF3006FFFFFFF5000000
6FFFFF304FFFFFFF90000000
6FFFFF30BFFFFFB500000000
019FFF30EFFD200000000000
008FFF30FFFD100000000000
008FFF30BFFFFFFFFFEB4000
008FFF304FFFFFFFFFFFF700
008FFF3006FFFFFFFFFFFF20
008FFF300028ABBBBBDFFF70
008FFF3000000000003FFF80
008FFF300ABBBBBBBBDFFF60
008FFF300DFFFFFFFFFFFE10
008FFF300DFFFFFFFFFFF500
008FFF300DFFFFFFFFEB3000
ENDCHAR
STARTCHAR agrave
ENCODING 224
SWIDTH 607 0
DWIDTH 17 0
BBX 16 24 0 -1
BITMAP
0000040000000000
00004FA000000000
0002EFFB10000000
0005EFFFC1000000
00001AFFF5000000
0000004DA0000000
0000000010000000
0000000220000000
00004BFFFFA30055
0009FFFFFFFF74F9
009FFFFFFFFFFFF9
04FFFFE99DFFFFF9
0CFFFA1001AFFFF9
1FFFD100000CFFF9
4FFF80000005FFF9
5FFF70000003FFF9
4FFF80000005FFF9
2FFFD000000BFFF9
0DFFF900008FFFF9
06FFFFD88CFFFFF9
00BFFFFFFFFFFFF9
001BFFFFFFFF96F9
00006DFFFFB400A9
0000002341000000
ENDCHAR
STARTCHAR aacute
ENCODING 225
SWIDTH 607 0
DWIDTH 17 0
BBX 16 24 0 -1
BITMAP
0000000000500000
0000000009F60000
00000000AFFF3000
0000000AFFFE6000
0000003FFFB20000
00000008E5000000
0000000010000000
0000000220000000
00004BFFFFA30055
0009FFFFFFFF74F9
009FFFFFFFFFFFF9
04FFFFE99DFFFFF9
0CFFFA1001AFFFF9
1FFFD100000CFFF9
4FFF80000005FFF9
5FFF70000003FFF9
4FFF80000005FFF9
2FFFD000000BFFF9
0DFFF900008FFFF9
06FFFFD88CFFFFF9
00BFFFFFFFFFFFF9
001BFFFFFFFF96F9
00006DFFFFB400A9
0000002341000000
ENDCHAR
STARTCHAR acircumflex
ENCODING 226
SWIDTH 607 0
DWIDTH 17 0
BBX 16 23 0 -1
BITMAP
0000000220000000
0000002DE3000000
000002DFFE400000
00003EFFFFF50000
00003EF85FF70000
0000057004900000
0000000220000000
00004BFFFFA30055
0009FFFFFFFF74F9
009FFFFFFFFFFFF9
04FFFFE99DFFFFF9
0CFFFA1001AFFFF9
1FFFD100000CFFF9
4FFF80000005FFF9
5FFF70000003FFF9
4FFF80000005FFF9
2FFFD000000BFFF9
0DFFF900008FFFF9
06FFFFD88CFFFFF9
00BFFFFFFFFFFFF9
001BFFFFFFFF96F9
00006DFFFFB400A9
0000002341000000
ENDCHAR
STARTCHAR atilde
ENCODING 227
SWIDTH 607 0
DWIDTH 17 0
BBX 16 22 0 -1
BITMAP
0000024100242000
0000AFFE51FF8000
0004FFFFFAFF9000
0005FFDDFFFF6000
0004FF61BFFB0000
0000653224300000
00004BFFFFA30055
0009FFFFFFFF74F9
009FFFFFFFFFFFF9
04FFFFE99DFFFFF9
0CFFFA1001AFFFF9
1FFFD100000CFFF9
4FFF80000005FFF9
5FFF70000003FFF9
4FFF80000005FFF9
2FFFD000000BFFF9
0DFFF900008FFFF9
06FFFFD88CFFFFF9
00BFFFFFFFFFFFF9
001BFFFFFFFF96F9
00006DFFFFB400A9
0000002341000000
ENDCHAR
STARTCHAR adieresis
ENCODING 228
SWIDTH 607 0
DWIDTH 17 0
BBX 16 21 0 -1
BITMAP
0000041000310000
0000BFE20BFD1000
0001FFF51FFF4000
0000AFD10AFD1000
0000021220200000
00004BFFFFA30055
0009FFFFFFFF74F9
009FFFFFFFFFFFF9
04FFFFE99DFFFFF9
0CFFFA1001AFFFF9
1FFFD100000CFFF9
4FFF80000005FFF9
5FFF70000003FFF9
4FFF80000005FFF9
2FFFD000000BFFF9
0DFFF900008FFFF9
06FFFFD88CFFFFF9
00BFFFFFFFFFFFF9
001BFFFFFFFF96F9
00006DFFFFB400A9
0000002341000000
ENDCHAR
STARTCHAR aring
ENCODING 229
SWIDTH 607 0
DWIDTH 17 0
BBX 16 23 0 -1
BITMAP
0000003AB5000000
000002FFFF500000
000008F63FB00000
000007F97FA00000
000001EFFF400000
0000001783000000
0000000220000000
00004BFFFFA30055
0009FFFFFFFF74F9
009FFFFFFFFFFFF9
04FFFFE99DFFFFF9
0CFFFA1001AFFFF9
1FFFD100000CFFF9
4FFF80000005FFF9
5FFF70000003FFF9
4FFF80000005FFF9
2FFFD000000BFFF9
0DFFF900008FFFF9
06FFFFD88CFFFFF9
00BFFFFFFFFFFFF9
001BFFFFFFFF96F9
00006DFFFFB400A9
0000002341000000
ENDCHAR
STARTCHAR ae
ENCODING 230
SWIDTH 976 0
DWIDTH 27 0
BBX 27 17 0 -1
BITMAP
0000000220000000000132000000
00004BFFFFA3005517DFFFE93000
0009FFFFFFFF74FBDFFFFFFFF700
009FFFFFFFFFFFFFFFFFFFFFFF70
04FFFFE99DFFFFFFFFFC9BFFFF70
0CFFFA1001AFFFFFFF600CFFF900
1FFFD100000CFFFFF9008FFFB000
4FFF80000005FFFFF305FFFD1000
5FFF70000003FFFFF12EFFE30000
4FFF80000005FFFFF2CFFF500000
2FFFD000000BFFFFFDFFF7014000
0DFFF900008FFFFFFFFFA01BF400
06FFFFD88CFFFFFFFFFF89EFFF40
00BFFFFFFFFFFFFFFFFFFFFFFF70
001BFFFFFFFF96FBDFFFFFFFF800
00006DFFFFB400A918EFFFFB3000
0000002341000000000243100000
ENDCHAR
STARTCHAR ccedilla
ENCODING 231
SWIDTH 521 0
DWIDTH 15 0
BBX 15 23 0 -7
BITMAP
0000000220000000
00003AFFFFB40000
0007FFFFFFFF9000
007FFFFFFFFFF900
03FFFFEA9DFFFD10
0AFFFB10009FD200
1FFFE100000A2000
4FFF900000000000
5FFF600000000000
5FFF700000000000
3FFFC00000050000
0DFFF900006F9000
06FFFFD88CFFF900
00AFFFFFFFFFFC00
000AFFFFFFFFC100
00005CFFFFC60000
0000005F81000000
0000009FD5000000
0000008CFF200000
00000938FF400000
00004FFFFF200000
00002CFFF6000000
0000003410000000
ENDCHAR
STARTCHAR egrave
ENCODING 232
SWIDTH 524 0
DWIDTH 15 0
BBX 15 24 0 -1
BITMAP
0000040000000000
00009F6000000000
0006FFF700000000
0008FFFF80000000
00003CFFE2000000
0000007E50000000
0000000100000000
0000001221000000
00004BFFFFB50000
0009FFFFFFFFB100
00AFFFFFFFFFFC10
05FFFFEA9FFFFC00
0CFFFB107FFFD100
2FFFE103FFFE3000
4FFF801DFFF50000
5FFF70AFFF800000
4FFF87FFFA000000
2FFFDFFFC1050000
0CFFFFFE206F9000
05FFFFFB8CFFF900
00AFFFFFFFFFFC10
001AFFFFFFFFC100
00005CFFFFD60000
0000001342000000
ENDCHAR
STARTCHAR eacute
ENCODING 233
SWIDTH 524 0
DWIDTH 15 0
BBX 15 24 0 -1
BITMAP
0000000000500000
0000000009F60000
00000000AFFE3000
0000001BFFFE6000
0000004FFFA20000
00000008D5000000
0000000010000000
0000001221000000
00004BFFFFB50000
0009FFFFFFFFB100
00AFFFFFFFFFFC10
05FFFFEA9FFFFC00
0CFFFB107FFFD100
2FFFE103FFFE3000
4FFF801DFFF50000
5FFF70AFFF800000
4FFF87FFFA000000
2FFFDFFFC1050000
0CFFFFFE206F9000
05FFFFFB8CFFF900
00AFFFFFFFFFFC10
001AFFFFFFFFC100
00005CFFFFD60000
0000001342000000
ENDCHAR
STARTCHAR ecircumflex
ENCODING 234
SWIDTH 524 0
DWIDTH 15 0
BBX 15 23 0 -1
BITMAP
0000000400000000
000000AF70000000
00000BFFF8000000
0001BFFFFF900000
0001CFC3DFB00000
000019101A100000
0000001221000000
00004BFFFFB50000
0009FFFFFFFFB100
00AFFFFFFFFFFC10
05FFFFEA9FFFFC00
0CFFFB107FFFD100
2FFFE103FFFE3000
4FFF801DFFF50000
5FFF70AFFF800000
4FFF87FFFA000000
2FFFDFFFC1050000
0CFFFFFE206F9000
05FFFFFB8CFFF900
00AFFFFFFFFFFC10
001AFFFFFFFFC100
00005CFFFFD60000
0000001342000000
ENDCHAR
STARTCHAR edieresis
ENCODING 235
SWIDTH 524 0
DWIDTH 15 0
BBX 15 21 0 -1
BITMAP
0000330002200000
0006FF606FF50000
000BFFA0AFF90000
0005FF505FF40000
0000111222100000
00004BFFFFB50000
0009FFFFFFFFB100
00AFFFFFFFFFFC10
05FFFFEA9FFFFC00
0CFFFB107FFFD100
2FFFE103FFFE3000
4FFF801DFFF50000
5FFF70AFFF800000
4FFF87FFFA000000
2FFFDFFFC1050000
0CFFFFFE206F9000
05FFFFFB8CFFF900
00AFFFFFFFFFFC10
001AFFFFFFFFC100
00005CFFFFD60000
0000001342000000
ENDCHAR
STARTCHAR igrave
ENCODING 236
SWIDTH 235 0
DWIDTH 7 0
BBX 8 22 -2 0
BITMAP
00410000
02EC1000
1CFFD200
3DFFFD20
008FFF80
0002BC00
00000100
0006AAA2
0009FFF3
0009FFF3
0009FFF3
0009FFF3
0009FFF3
0009FFF3
0009FFF3
0009FFF3
0009FFF3
0009FFF3
0009FFF3
0009FFF3
0009FFF3
0009FFF3
ENDCHAR
STARTCHAR iacute
ENCODING 237
SWIDTH 235 0
DWIDTH 7 0
BBX 7 22 1 0
BITMAP
00004100
0005FA00
006FFF70
07FFFF90
1EFFD400
04E80000
00100000
6AAA2000
9FFF3000
9FFF3000
9FFF3000
9FFF3000
9FFF3000
9FFF3000
9FFF3000
9FFF3000
9FFF3000
9FFF3000
9FFF3000
9FFF3000
9FFF3000
9FFF3000
ENDCHAR
STARTCHAR icircumflex
ENCODING 238
SWIDTH 235 0
DWIDTH 7 0
BBX 8 22 -1 0
BITMAP
00003000
001BF600
01CFFF70
1CFFFFF8
1DFB3DFA
029002A1
00000000
006AAA20
009FFF30
009FFF30
009FFF30
009FFF30
009FFF30
009FFF30
009FFF30
009FFF30
009FFF30
009FFF30
009FFF30
009FFF30
009FFF30
009FFF30
ENDCHAR
STARTCHAR idieresis
ENCODING 239
SWIDTH 235 0
DWIDTH 7 0
BBX 9 20 -1 0
BITMAP
0320002100
8FF408FE30
DFF80CFF70
7FE307FE30
0210002100
006AAA2000
009FFF3000
009FFF3000
009FFF3000
009FFF3000
009FFF3000
009FFF3000
009FFF3000
009FFF3000
009FFF3000
009FFF3000
009FFF3000
009FFF3000
009FFF3000
009FFF3000
ENDCHAR
STARTCHAR eth
ENCODING 240
SWIDTH 581 0
DWIDTH 16 0
BBX 16 23 0 -1
BITMAP
0000015555200000
000000CFFFB00000
0003AABFFFFAAAA1
0005FFFFFFFFFFF2
0005FFFFFFFFFFF2
000388889FFFF881
000000001CFFF500
000029DFFEFFFC00
0007FFFFFFFFFF20
008FFFFFFFFFFF80
04FFFFE99DFFFFD0
0CFFFA10008FFFF2
2FFFD100000BFFF5
4FFF80000005FFF7
6FFF60000003FFF8
5FFF80000005FFF7
2FFFD100000AFFF5
0CFFFA10007FFFE1
05FFFFD88CFFFF80
009FFFFFFFFFFC10
0009FFFFFFFFC100
00005CFFFFD60000
0000001342000000
ENDCHAR
STARTCHAR ntilde
ENCODING 241
SWIDTH 562 0
DWIDTH 16 0
BBX 14 21 1 0
BITMAP
00003410024100
000BFFE34FF600
006FFFFEBFF600
008FFCDFFFF400
006FF42CFF9000
00165200430000
66016BDDB60000
9F7DFFFFFFD200
9FFFFFFFFFFE20
9FFFFFEEFFFFA0
9FFFE5005FFFF2
9FFF700008FFF6
9FFF300004FFF7
9FFF200003FFF8
9FFF200003FFF8
9FFF200003FFF8
9FFF200003FFF8
9FFF200003FFF8
9FFF200003FFF8
9FFF200003FFF8
9FFF200003FFF8
ENDCHAR
STARTCHAR ograve
ENCODING 242
SWIDTH 579 0
DWIDTH 16 0
BBX 16 24 0 -1
BITMAP
0000050000000000
00005FA000000000
0003EFFA00000000
0005EFFFB1000000
00002AFFF4000000
0000005D90000000
0000000100000000
0000000221000000
00004BFFFFC60000
0009FFFFFFFFC100
009FFFFFFFFFFC10
04FFFFE99DFFFF80
0CFFFA10008FFFE1
2FFFD100000BFFF5
4FFF80000005FFF7
6FFF60000003FFF8
5FFF80000005FFF7
2FFFD100000AFFF5
0CFFFA10007FFFE1
05FFFFD88CFFFF80
009FFFFFFFFFFC00
0009FFFFFFFFB100
00005CFFFFD60000
0000001342000000
ENDCHAR
STARTCHAR oacute
ENCODING 243
SWIDTH 579 0
DWIDTH 16 0
BBX 16 24 0 -1
BITMAP
0000000000500000
0000000009F60000
00000000AFFF3000
0000001BFFFE6000
0000004FFFB20000
00000008E5000000
0000000010000000
0000000221000000
00004BFFFFC60000
0009FFFFFFFFC100
009FFFFFFFFFFC10
04FFFFE99DFFFF80
0CFFFA10008FFFE1
2FFFD100000BFFF5
4FFF80000005FFF7
6FFF60000003FFF8
5FFF80000005FFF7
2FFFD100000AFFF5
0CFFFA10007FFFE1
05FFFFD88CFFFF80
009FFFFFFFFFFC00
0009FFFFFFFFB100
00005CFFFFD60000
0000001342000000
ENDCHAR
STARTCHAR ocircumflex
ENCODING 244
SWIDTH 579 0
DWIDTH 16 0
BBX 16 23 0 -1
BITMAP
0000000220000000
0000002DE3000000
000003EFFE400000
00003EFFFFF50000
00004FF75FF60000
0000057004800000
0000000221000000
00004BFFFFC60000
0009FFFFFFFFC100
009FFFFFFFFFFC10
04FFFFE99DFFFF80
0CFFFA10008FFFE1
2FFFD100000BFFF5
4FFF80000005FFF7
6FFF60000003FFF8
5FFF80000005FFF7
2FFFD100000AFFF5
0CFFFA10007FFFE1
05FFFFD88CFFFF80
009FFFFFFFFFFC00
0009FFFFFFFFB100
00005CFFFFD60000
0000001342000000
ENDCHAR
STARTCHAR otilde
ENCODING 245
SWIDTH 579 0
DWIDTH 16 0
BBX 16 22 0 -1
BITMAP
0000024100242000
0000AFFE42FF7000
0004FFFFFBFF8000
0006FFCDFFFF5000
0004FF51BFFB0000
0000653234300000
00004BFFFFC60000
0009FFFFFFFFC100
009FFFFFFFFFFC10
04FFFFE99DFFFF80
0CFFFA10008FFFE1
2FFFD100000BFFF5
4FFF80000005FFF7
6FFF60000003FFF8
5FFF80000005FFF7
2FFFD100000AFFF5
0CFFFA10007FFFE1
05FFFFD88CFFFF80
009FFFFFFFFFFC00
0009FFFFFFFFB100
00005CFFFFD60000
0000001342000000
ENDCHAR
STARTCHAR odieresis
ENCODING 246
SWIDTH 579 0
DWIDTH 16 0
BBX 16 21 0 -1
BITMAP
0000041000310000
0000CFE20BFD1000
0001FFF51FFF4000
0000AFD10AFD1000
0000021221200000
00004BFFFFC60000
0009FFFFFFFFC100
009FFFFFFFFFFC10
04FFFFE99DFFFF80
0CFFFA10008FFFE1
2FFFD100000BFFF5
4FFF80000005FFF7
6FFF60000003FFF8
5FFF80000005FFF7
2FFFD100000AFFF5
0CFFFA10007FFFE1
05FFFFD88CFFFF80
009FFFFFFFFFFC00
0009FFFFFFFFB100
00005CFFFFD60000
0000001342000000
ENDCHAR
STARTCHAR divide
ENCODING 247
SWIDTH 494 0
DWIDTH 14 0
BBX 12 14 1 3
BITMAP
00002A920000
0000DFFB0000
0000FFFD0000
00008FF60000
000002200000
ACCCCCCCCCC8
CFFFFFFFFFFA
CFFFFFFFFFFA
CEEEEEEEEEE9
000002200000
00008FF60000
0000FFFD0000
0000DFFB0000
00002A920000
ENDCHAR
STARTCHAR oslash
ENCODING 248
SWIDTH 579 0
DWIDTH 16 0
BBX 16 17 0 -1
BITMAP
0000000220000000
00004BFFFFB9CCC4
0009FFFFFFFFFF90
009FFFFFFFFFFF10
04FFFFE99FFFFF80
0CFFFA106FFFFFE1
2FFFD103FFFEFFF5
4FFF801DFFC6FFF7
6FFF60AFFE23FFF8
5FFF86FFF605FFF7
2FFFDFFF900AFFF5
0CFFFFFD107FFFE1
05FFFFFA8CFFFF80
00BFFFFFFFFFFC00
03EFFFFFFFFFB100
1DFFDCFFFFD60000
0000001342000000
ENDCHAR
STARTCHAR ugrave
ENCODING 249
SWIDTH 562 0
DWIDTH 16 0
BBX 14 23 1 -1
BITMAP
00014000000000
000AF500000000
007FFF60000000
009FFFF7000000
0004DFFE100000
000007E4000000
00000010000000
7AA9000004AAA3
CFFE000006FFF5
CFFE000006FFF5
CFFE000006FFF5
CFFE000006FFF5
CFFE000006FFF5
CFFE000006FFF5
CFFE000006FFF5
BFFF000007FFF5
AFFF20000AFFF5
7FFFA0004FFFF5
2FFFFC89FFFFF5
09FFFFFFFFFFF5
00BFFFFFFFCBF5
0006DFFFE701D5
00000243000000
ENDCHAR
STARTCHAR uacute
ENCODING 250
SWIDTH 562 0
DWIDTH 16 0
BBX 14 23 1 -1
BITMAP
00000000040000
00000001BF3000
0000001CFFD100
000002DFFFE400
000007FFF91000
000000BC300000
00000010000000
7AA9000004AAA3
CFFE000006FFF5
CFFE000006FFF5
CFFE000006FFF5
CFFE000006FFF5
CFFE000006FFF5
CFFE000006FFF5
CFFE000006FFF5
BFFF000007FFF5
AFFF20000AFFF5
7FFFA0004FFFF5
2FFFFC89FFFFF5
09FFFFFFFFFFF5
00BFFFFFFFCBF5
0006DFFFE701D5
00000243000000
ENDCHAR
STARTCHAR ucircumflex
ENCODING 251
SWIDTH 562 0
DWIDTH 16 0
BBX 14 22 1 -1
BITMAP
00000030000000
000005FB100000
00006FFFC10000
0007FFFFFD2000
0008FE49FE2000
00008300850000
7AA9000004AAA3
CFFE000006FFF5
CFFE000006FFF5
CFFE000006FFF5
CFFE000006FFF5
CFFE000006FFF5
CFFE000006FFF5
CFFE000006FFF5
BFFF000007FFF5
AFFF20000AFFF5
7FFFA0004FFFF5
2FFFFC89FFFFF5
09FFFFFFFFFFF5
00BFFFFFFFCBF5
0006DFFFE701D5
00000243000000
ENDCHAR
STARTCHAR udieresis
ENCODING 252
SWIDTH 562 0
DWIDTH 16 0
BBX 14 21 1 -1
BITMAP
00014000130000
002EFB02EF9000
006FFF06FFE000
002DF901DF9000
00012000120000
7AA9000004AAA3
CFFE000006FFF5
CFFE000006FFF5
CFFE000006FFF5
CFFE000006FFF5
CFFE000006FFF5
CFFE000006FFF5
CFFE000006FFF5
BFFF000007FFF5
AFFF20000AFFF5
7FFFA0004FFFF5
2FFFFC89FFFFF5
09FFFFFFFFFFF5
00BFFFFFFFCBF5
0006DFFFE701D5
00000243000000
ENDCHAR
STARTCHAR yacute
ENCODING 253
SWIDTH 562 0
DWIDTH 16 0
BBX 14 28 1 -6
BITMAP
00000000140000
00000001CE3000
0000001CFFD100
000002DFFFD300
000007FFF81000
000000BC300000
00000010000000
7AA9000004AAA3
CFFE000006FFF5
CFFE000006FFF5
CFFE000006FFF5
CFFE000006FFF5
CFFE000006FFF5
CFFE000006FFF5
CFFE000006FFF5
BFFF000007FFF5
AFFF20000AFFF5
7FFF90004FFFF5
2FFFFC89FFFFF5
09FFFFFFFFFFF5
00BFFFFFFFFFF5
0006DFFFCEFFF3
000002435FFFE0
00003238FFFF70
0001FFFFFFFD10
0001FFFFFFD200
0001FFFFF91000
00009986200000
ENDCHAR
STARTCHAR thorn
ENCODING 254
SWIDTH 608 0
DWIDTH 17 0
BBX 16 27 1 -6
BITMAP
6BBB400000000000
9FFF600000000000
9FFF600000000000
9FFF600000000000
9FFF600000000000
9FFF600220000000
9FFF89EFFFB40000
9FFFFFFFFFFFA000
9FFFFFFFFFFFFA00
9FFFFFD99DFFFF50
9FFFF80001AFFFC0
9FFFB000000DFFF2
9FFF50000007FFF5
9FFF30000005FFF6
9FFF50000007FFF5
9FFFB000000DFFF3
9FFFF700009FFFD0
9FFFFFC88DFFFF70
9FFFFFFFFFFFFC00
9FFFFFFFFFFFC100
9FFF6AFFFFD70000
9FFF301442000000
9FFF300000000000
9FFF300000000000
9FFF300000000000
9FFF300000000000
5999200000000000
ENDCHAR
STARTCHAR ydieresis
ENCODING 255
SWIDTH 562 0
DWIDTH 16 0
BBX 14 26 1 -6
BITMAP
00014000130000
002EFB02EF9000
006FFF06FFE000
002DF901DF9000
00012000120000
7AA9000004AAA3
CFFE000006FFF5
CFFE000006FFF5
CFFE000006FFF5
CFFE000006FFF5
CFFE000006FFF5
CFFE000006FFF5
CFFE000006FFF5
BFFF000007FFF5
AFFF20000AFFF5
7FFF90004FFFF5
2FFFFC89FFFFF5
09FFFFFFFFFFF5
00BFFFFFFFFFF5
0006DFFFCEFFF3
000002435FFFE0
00003238FFFF70
0001FFFFFFFD10
0001FFFFFFD200
0001FFFFF91000
00009986200000
ENDCHAR
STARTCHAR Amacron
ENCODING 256
SWIDTH 673 0
DWIDTH 19 0
BBX 17 24 1 0
BITMAP
00000DDDDDDC000000
00000FFFFFFD000000
00000FFFFFFD000000
000000000000000000
000001589840000000
00008EFFFFFE700000
001CFFFFFFFFFB0000
00BFFFFFFFFFFFA000
06FFFFD757EFFFF400
0DFFFA10001CFFFB00
3FFFE1000002FFFF10
5FFF90000000BFFF30
6FFF80000000AFFF40
6FFF80000000AFFF40
6FFF80000000AFFF40
6FFF80000000AFFF40
6FFFECCCCCCCEFFF40
6FFFFFFFFFFFFFFF40
6FFFFFFFFFFFFFFF40
6FFFFFFFFFFFFFFF40
6FFF81111111AFFF40
6FFF80000000AFFF40
6FFF80000000AFFF40
6FFF80000000AFFF40
ENDCHAR
STARTCHAR amacron
ENCODING 257
SWIDTH 607 0
DWIDTH 17 0
BBX 16 20 0 -1
BITMAP
00007DDDDDD50000
00008FFFFFF60000
00008FFFFFF60000
0000001221000000
00004BFFFFA30055
0009FFFFFFFF74F9
009FFFFFFFFFFFF9
04FFFFE99DFFFFF9
0CFFFA1001AFFFF9
1FFFD100000CFFF9
4FFF80000005FFF9
5FFF70000003FFF9
4FFF80000005FFF9
2FFFD000000BFFF9
0DFFF900008FFFF9
06FFFFD88CFFFFF9
00BFFFFFFFFFFFF9
001BFFFFFFFF96F9
00006DFFFFB400A9
0000002341000000
ENDCHAR
STARTCHAR Abreve
ENCODING 258
SWIDTH 673 0
DWIDTH 19 0
BBX 17 25 1 0
BITMAP
00000BFA1FF3000000
00000BFE9FF4000000
000005FFFFE1000000
0000006CEB30000000
000000000000000000
000001589840000000
00008EFFFFFE700000
001CFFFFFFFFFB0000
00BFFFFFFFFFFFA000
06FFFFD757EFFFF400
0DFFFA10001CFFFB00
3FFFE1000002FFFF10
5FFF90000000BFFF30
6FFF80000000AFFF40
6FFF80000000AFFF40
6FFF80000000AFFF40
6FFF80000000AFFF40
6FFFECCCCCCCEFFF40
6FFFFFFFFFFFFFFF40
6FFFFFFFFFFFFFFF40
6FFFFFFFFFFFFFFF40
6FFF81111111AFFF40
6FFF80000000AFFF40
6FFF80000000AFFF40
6FFF80000000AFFF40
ENDCHAR
STARTCHAR abreve
ENCODING 259
SWIDTH 607 0
DWIDTH 17 0
BBX 16 21 0 -1
BITMAP
00003FF38FB00000
00003FFADFC00000
00000CFFFF800000
0000029DD8000000
0000000220000000
00004BFFFFA30055
0009FFFFFFFF74F9
009FFFFFFFFFFFF9
04FFFFE99DFFFFF9
0CFFFA1001AFFFF9
1FFFD100000CFFF9
4FFF80000005FFF9
5FFF70000003FFF9
4FFF80000005FFF9
2FFFD000000BFFF9
0DFFF900008FFFF9
06FFFFD88CFFFFF9
00BFFFFFFFFFFFF9
001BFFFFFFFF96F9
00006DFFFFB400A9
0000002341000000
ENDCHAR
STARTCHAR Aogonek
ENCODING 260
SWIDTH 673 0
DWIDTH 19 0
BBX 18 25 1 -5
BITMAP
000001589840000000
00008EFFFFFE700000
001CFFFFFFFFFB0000
00BFFFFFFFFFFFA000
06FFFFD757EFFFF400
0DFFFA10001CFFFB00
3FFFE1000002FFFF10
5FFF90000000BFFF30
6FFF80000000AFFF40
6FFF80000000AFFF40
6FFF80000000AFFF40
6FFF80000000AFFF40
6FFFECCCCCCCEFFF40
6FFFFFFFFFFFFFFF40
6FFFFFFFFFFFFFFF40
6FFFFFFFFFFFFFFF40
6FFF81111111AFFF40
6FFF80000000AFFF40
6FFF80000000AFFF40
6FFF80000000AFFF40
0000000000009FA000
000000000005FF2100
000000000008FFBE50
000000000004FFFFF2
0000000000006DEB30
ENDCHAR
STARTCHAR aogonek
ENCODING 261
SWIDTH 607 0
DWIDTH 17 0
BBX 18 21 0 -5
BITMAP
000000022000000000
00004BFFFFA3005500
0009FFFFFFFF74F900
009FFFFFFFFFFFF900
04FFFFE99DFFFFF900
0CFFFA1001AFFFF900
1FFFD100000CFFF900
4FFF80000005FFF900
5FFF70000003FFF900
4FFF80000005FFF900
2FFFD000000BFFF900
0DFFF900008FFFF900
06FFFFD88CFFFFF900
00BFFFFFFFFFFFF900
001BFFFFFFFF96F900
00006DFFFFB403E900
0000002341003EF300
000000000000CFA100
000000000001FFDCB1
000000000000CFFFF9
0000000000001AED70
ENDCHAR
STARTCHAR Cacute
ENCODING 262
SWIDTH 640 0
DWIDTH 18 0
BBX 18 28 0 -1
BITMAP
000000000000410000
000000000005FB0000
00000000006FFF7000
0000000007FFFFA000
000000001DFFD40000
0000000003E8100000
000000000010000000
000000049BDCB73000
000004DFFFFFFFFB30
00009FFFFFFFFFFFF3
0009FFFFFFFFFFFFD0
006FFFFE83124AFF40
01EFFFC20000004900
07FFFD100000000000
0DFFF5000000000000
1FFFE0000000000000
3FFFB0000000000000
3FFFA0000000000000
2FFFC0000000000000
0FFFF2000000000000
0BFFF9000000000000
04FFFF500000000200
00CFFFF8100002AD10
002EFFFFEA88BFFF80
0004EFFFFFFFFFFFF3
00002CFFFFFFFFFFA1
0000006CFFFFFFB400
000000002566410000
ENDCHAR
STARTCHAR cacute
ENCODING 263
SWIDTH 521 0
DWIDTH 15 0
BBX 15 24 0 -1
BITMAP
0000000001400000
000000001CE20000
00000002DFFD1000
0000002DFFFD3000
0000008FFF810000
0000000CC3000000
0000000100000000
0000000220000000
00003AFFFFB40000
0007FFFFFFFF9000
007FFFFFFFFFF900
03FFFFEA9DFFFD10
0AFFFB10009FD200
1FFFE100000A2000
4FFF900000000000
5FFF600000000000
5FFF700000000000
3FFFC00000050000
0DFFF900006F9000
06FFFFD88CFFF900
00AFFFFFFFFFFC00
001AFFFFFFFFC100
00005CFFFFC60000
0000001332000000
ENDCHAR
STARTCHAR Ccircumflex
ENCODING 264
SWIDTH 640 0
DWIDTH 18 0
BBX 18 28 0 -1
BITMAP
000000000030000000
000000001BF5000000
00000001CFFF700000
0000001CFFFFF80000
0000001DFB3DFA0000
000000029002A10000
000000000000000000
000000049BDCB73000
000004DFFFFFFFFB30
00009FFFFFFFFFFFF3
0009FFFFFFFFFFFFD0
006FFFFE83124AFF40
01EFFFC20000004900
07FFFD100000000000
0DFFF5000000000000
1FFFE0000000000000
3FFFB0000000000000
3FFFA0000000000000
2FFFC0000000000000
0FFFF2000000000000
0BFFF9000000000000
04FFFF500000000200
00CFFFF8100002AD10
002EFFFFEA88BFFF80
0004EFFFFFFFFFFFF3
00002CFFFFFFFFFFA1
0000006CFFFFFFB400
000000002566410000
ENDCHAR
STARTCHAR ccircumflex
ENCODING 265
SWIDTH 521 0
DWIDTH 15 0
BBX 15 23 0 -1
BITMAP
0000000210000000
0000003ED2000000
000003EFFE300000
00004EFFFFE40000
00005FF66FF50000
0000066005800000
0000000220000000
00003AFFFFB40000
0007FFFFFFFF9000
007FFFFFFFFFF900
03FFFFEA9DFFFD10
0AFFFB10009FD200
1FFFE100000A2000
4FFF900000000000
5FFF600000000000
5FFF700000000000
3FFFC00000050000
0DFFF900006F9000
06FFFFD88CFFF900
00AFFFFFFFFFFC00
001AFFFFFFFFC100
00005CFFFFC60000
0000001332000000
ENDCHAR
STARTCHAR Cdotaccent
ENCODING 266
SWIDTH 640 0
DWIDTH 18 0
BBX 18 26 0 -1
BITMAP
000000000274000000
000000000CFF400000
000000000FFF600000
0000000006EB100000
000000000000000000
000000049BDCB73000
000004DFFFFFFFFB30
00009FFFFFFFFFFFF3
0009FFFFFFFFFFFFD0
006FFFFE83124AFF40
01EFFFC20000004900
07FFFD100000000000
0DFFF5000000000000
1FFFE0000000000000
3FFFB0000000000000
3FFFA0000000000000
2FFFC0000000000000
0FFFF2000000000000
0BFFF9000000000000
04FFFF500000000200
00CFFFF8100002AD10
002EFFFFEA88BFFF80
0004EFFFFFFFFFFFF3
00002CFFFFFFFFFFA1
0000006CFFFFFFB400
000000002566410000
ENDCHAR
STARTCHAR cdotaccent
ENCODING 267
SWIDTH 521 0
DWIDTH 15 0
BBX 15 21 0 -1
BITMAP
0000000571000000
0000006FFA000000
0000009FFC000000
0000002CE4000000
0000000220000000
00003AFFFFB40000
0007FFFFFFFF9000
007FFFFFFFFFF900
03FFFFEA9DFFFD10
0AFFFB10009FD200
1FFFE100000A2000
4FFF900000000000
5FFF600000000000
5FFF700000000000
3FFFC00000050000
0DFFF900006F9000
06FFFFD88CFFF900
00AFFFFFFFFFFC00
001AFFFFFFFFC100
00005CFFFFC60000
0000001332000000
ENDCHAR
STARTCHAR Ccaron
ENCODING 268
SWIDTH 640 0
DWIDTH 18 0
BBX 18 28 0 -1
BITMAP
000000007100610000
00000007FC28FC1000
0000000AFFEFFE2000
000000009FFFD20000
0000000007FD200000
000000000052000000
000000000000000000
000000049BDCB73000
000004DFFFFFFFFB30
00009FFFFFFFFFFFF3
0009FFFFFFFFFFFFD0
006FFFFE83124AFF40
01EFFFC20000004900
07FFFD100000000000
0DFFF5000000000000
1FFFE0000000000000
3FFFB0000000000000
3FFFA0000000000000
2FFFC0000000000000
0FFFF2000000000000
0BFFF9000000000000
04FFFF500000000200
00CFFFF8100002AD10
002EFFFFEA88BFFF80
0004EFFFFFFFFFFFF3
00002CFFFFFFFFFFA1
0000006CFFFFFFB400
000000002566410000
ENDCHAR
STARTCHAR ccaron
ENCODING 269
SWIDTH 521 0
DWIDTH 15 0
BBX 15 23 0 -1
BITMAP
0000054002500000
00002EF53EF40000
00004FFFEFF70000
000004EFFF700000
0000003EF6000000
0000000250000000
0000000220000000
00003AFFFFB40000
0007FFFFFFFF9000
007FFFFFFFFFF900
03FFFFEA9DFFFD10
0AFFFB10009FD200
1FFFE100000A2000
4FFF900000000000
5FFF600000000000
5FFF700000000000
3FFFC00000050000
0DFFF900006F9000
06FFFFD88CFFF900
00AFFFFFFFFFFC00
001AFFFFFFFFC100
00005CFFFFC60000
0000001332000000
ENDCHAR
STARTCHAR Dcaron
ENCODING 270
SWIDTH 653 0
DWIDTH 18 0
BBX 17 26 1 0
BITMAP
000004400250000000
00002EF63EF5000000
00004EFFEFF8000000
000003EFFF70000000
0000002DF700000000
000000025000000000
299999986300000000
3FFFFFFFFFC5000000
3FFFFFFFFFFFA10000
3FFFFFFFFFFFFC0000
3FFFD5569EFFFF9000
3FFFC00001BFFFF400
3FFFC000000BFFFC00
3FFFC0000002FFFF20
3FFFC0000000AFFF50
3FFFC00000007FFF70
3FFFC00000006FFF80
3FFFC00000008FFF60
3FFFC0000000DFFF30
3FFFC0000007FFFE00
3FFFC000005FFFF800
3FFFC0003AFFFFD100
3FFFFEEFFFFFFE3000
3FFFFFFFFFFFE40000
3FFFFFFFFFFB200000
3FFFFFFEC930000000
ENDCHAR
STARTCHAR dcaron
ENCODING 271
SWIDTH 740 0
DWIDTH 21 0
BBX 21 22 0 -1
BITMAP
0000000000017774000000
000000000003FFF9028700
000000000003FFF90CFF80
000000000003FFF90EFFA0
000000000003FFF907FF80
000000023103FFF900AF40
00003BFFFFA4FFF900CA00
0008FFFFFFFEFFF9000000
009FFFFFFFFFFFF9000000
04FFFFE99DFFFFF9000000
0CFFFA1001AFFFF9000000
2FFFD100000CFFF9000000
4FFF80000005FFF9000000
6FFF60000003FFF9000000
5FFF80000005FFF9000000
2FFFD100000CFFF9000000
0CFFFA10008FFFF9000000
05FFFFD88CFFFFF9000000
00AFFFFFFFFFFFF9000000
000AFFFFFFFF86F9000000
00005CFFFFB400A9000000
0000001331000000000000
ENDCHAR
STARTCHAR Dcroat
ENCODING 272
SWIDTH 672 0
DWIDTH 19 0
BBX 19 20 0 0
BITMAP
00699999985100000000
00AFFFFFFFFF92000000
00AFFFFFFFFFFE500000
00AFFFFFFFFFFFF50000
00AFFF8557CFFFFF3000
00AFFF400005EFFFC000
00AFFF4000003FFFF500
00AFFF40000008FFFA00
ACEFFFDC700002FFFD00
DFFFFFFF900000EFFF00
DFFFFFFF900000DFFF10
DEFFFFFE800001FFFE00
00AFFF40000005FFFB00
00AFFF4000001DFFF700
00AFFF400001BFFFE100
00AFFF40016DFFFF7000
00AFFFEEEFFFFFFB0000
00AFFFFFFFFFFFA10000
00AFFFFFFFFFE6000000
00AFFFFFFEB610000000
ENDCHAR
STARTCHAR dcroat
ENCODING 273
SWIDTH 606 0
DWIDTH 17 0
BBX 17 22 0 -1
BITMAP
000000000001777400
00000000007BFFFDA0
0000000000AFFFFFF0
0000000000AFFFFFF0
0000000000AFFFFFF0
000000023114FFF910
00003BFFFFA4FFF900
0008FFFFFFFEFFF900
009FFFFFFFFFFFF900
04FFFFE99DFFFFF900
0CFFFA1001AFFFF900
2FFFD100000CFFF900
4FFF80000005FFF900
6FFF60000003FFF900
5FFF80000005FFF900
2FFFD100000CFFF900
0CFFFA10008FFFF900
05FFFFD88CFFFFF900
00AFFFFFFFFFFFF900
000AFFFFFFFF86F900
00005CFFFFB400A900
000000133100000000
ENDCHAR
STARTCHAR Emacron
ENCODING 274
SWIDTH 578 0
DWIDTH 16 0
BBX 15 24 1 0
BITMAP
00007DDDDDD50000
00008FFFFFF60000
00008FFFFFF60000
0000000000000000
2999999999999920
3FFFFFFFFFFFFF40
3FFFFFFFFFFFFF40
3FFFFFFFFFFFFF40
3FFFC55555555510
3FFFB00000000000
3FFFB00000000000
3FFFB00000000000
3FFFECCCCCC20000
3FFFFFFFFFF30000
3FFFFFFFFFF30000
3FFFFFFFFFF30000
3FFFC33333300000
3FFFB00000000000
3FFFB00000000000
3FFFB00000000000
3FFFFEEEEEEEEE40
3FFFFFFFFFFFFF40
3FFFFFFFFFFFFF40
3FFFFFFFFFFFFF40
ENDCHAR
STARTCHAR emacron
ENCODING 275
SWIDTH 524 0
DWIDTH 15 0
BBX 15 20 0 -1
BITMAP
00007DDDDDD50000
00008FFFFFF60000
00008FFFFFF60000
0000001231000000
00004BFFFFB50000
0009FFFFFFFFB100
00AFFFFFFFFFFC10
05FFFFEA9FFFFC00
0CFFFB107FFFD100
2FFFE103FFFE3000
4FFF801DFFF50000
5FFF70AFFF800000
4FFF87FFFA000000
2FFFDFFFC1050000
0CFFFFFE206F9000
05FFFFFB8CFFF900
00AFFFFFFFFFFC10
001AFFFFFFFFC100
00005CFFFFD60000
0000001342000000
ENDCHAR
STARTCHAR Ebreve
ENCODING 276
SWIDTH 578 0
DWIDTH 16 0
BBX 15 25 1 0
BITMAP
00008FE0DF700000
00007FF9FF800000
00002FFFFF300000
000004BEC5000000
0000000000000000
2999999999999920
3FFFFFFFFFFFFF40
3FFFFFFFFFFFFF40
3FFFFFFFFFFFFF40
3FFFC55555555510
3FFFB00000000000
3FFFB00000000000
3FFFB00000000000
3FFFECCCCCC20000
3FFFFFFFFFF30000
3FFFFFFFFFF30000
3FFFFFFFFFF30000
3FFFC33333300000
3FFFB00000000000
3FFFB00000000000
3FFFB00000000000
3FFFFEEEEEEEEE40
3FFFFFFFFFFFFF40
3FFFFFFFFFFFFF40
3FFFFFFFFFFFFF40
ENDCHAR
STARTCHAR ebreve
ENCODING 277
SWIDTH 524 0
DWIDTH 15 0
BBX 15 21 0 -1
BITMAP
00005FF2AF900000
00005FF9EFA00000
00001DFFFF600000
000002ADD7000000
0000001221000000
00004BFFFFB50000
0009FFFFFFFFB100
00AFFFFFFFFFFC10
05FFFFEA9FFFFC00
0CFFFB107FFFD100
2FFFE103FFFE3000
4FFF801DFFF50000
5FFF70AFFF800000
4FFF87FFFA000000
2FFFDFFFC1050000
0CFFFFFE206F9000
05FFFFFB8CFFF900
00AFFFFFFFFFFC10
001AFFFFFFFFC100
00005CFFFFD60000
0000001342000000
ENDCHAR
STARTCHAR Edotaccent
ENCODING 278
SWIDTH 578 0
DWIDTH 16 0
BBX 15 25 1 0
BITMAP
0000002740000000
000000DFF3000000
000001FFF5000000
0000007EB0000000
0000000000000000
2999999999999920
3FFFFFFFFFFFFF40
3FFFFFFFFFFFFF40
3FFFFFFFFFFFFF40
3FFFC55555555510
3FFFB00000000000
3FFFB00000000000
3FFFB00000000000
3FFFECCCCCC20000
3FFFFFFFFFF30000
3FFFFFFFFFF30000
3FFFFFFFFFF30000
3FFFC33333300000
3FFFB00000000000
3FFFB00000000000
3FFFB00000000000
3FFFFEEEEEEEEE40
3FFFFFFFFFFFFF40
3FFFFFFFFFFFFF40
3FFFFFFFFFFFFF40
ENDCHAR
STARTCHAR edotaccent
ENCODING 279
SWIDTH 524 0
DWIDTH 15 0
BBX 15 21 0 -1
BITMAP
0000001660000000
0000009FF7000000
000000BFF9000000
0000004DD2000000
0000001221000000
00004BFFFFB50000
0009FFFFFFFFB100
00AFFFFFFFFFFC10
05FFFFEA9FFFFC00
0CFFFB107FFFD100
2FFFE103FFFE3000
4FFF801DFFF50000
5FFF70AFFF800000
4FFF87FFFA000000
2FFFDFFFC1050000
0CFFFFFE206F9000
05FFFFFB8CFFF900
00AFFFFFFFFFFC10
001AFFFFFFFFC100
00005CFFFFD60000
0000001342000000
ENDCHAR
STARTCHAR Eogonek
ENCODING 280
SWIDTH 578 0
DWIDTH 16 0
BBX 15 25 1 -5
BITMAP
2999999999999920
3FFFFFFFFFFFFF40
3FFFFFFFFFFFFF40
3FFFFFFFFFFFFF40
3FFFC55555555510
3FFFB00000000000
3FFFB00000000000
3FFFB00000000000
3FFFECCCCCC20000
3FFFFFFFFFF30000
3FFFFFFFFFF30000
3FFFFFFFFFF30000
3FFFC33333300000
3FFFB00000000000
3FFFB00000000000
3FFFB00000000000
3FFFFEEEEEEEEE40
3FFFFFFFFFFFFF40
3FFFFFFFFFFFFF40
3FFFFFFFFFFFFF40
000000000AF80000
000000007FE11000
00000000AFFAE300
000000006FFFFE10
0000000007DEA200
ENDCHAR
STARTCHAR eogonek
ENCODING 281
SWIDTH 524 0
DWIDTH 15 0
BBX 15 21 0 -5
BITMAP
0000001221000000
00004BFFFFB50000
0009FFFFFFFFB100
00AFFFFFFFFFFC10
05FFFFEA9FFFFC00
0CFFFB107FFFD100
2FFFE103FFFE3000
4FFF801DFFF50000
5FFF70AFFF800000
4FFF87FFFA000000
2FFFDFFFC1050000
0CFFFFFE206F9000
05FFFFFB8CFFF900
00AFFFFFFFFFFC10
001AFFFFFFFFC100
00005CFFFFF80000
00000013CFA00000
00000005FF210000
00000008FFBE5000
00000004FFFFF200
000000005DEB3000
ENDCHAR
STARTCHAR Ecaron
ENCODING 282
SWIDTH 578 0
DWIDTH 16 0
BBX 15 26 1 0
BITMAP
0000081006100000
00009FC19FB00000
0000BFFEFFD20000
00000AFFFD200000
0000008FD1000000
0000000610000000
2999999999999920
3FFFFFFFFFFFFF40
3FFFFFFFFFFFFF40
3FFFFFFFFFFFFF40
3FFFC55555555510
3FFFB00000000000
3FFFB00000000000
3FFFB00000000000
3FFFECCCCCC20000
3FFFFFFFFFF30000
3FFFFFFFFFF30000
3FFFFFFFFFF30000
3FFFC33333300000
3FFFB00000000000
3FFFB00000000000
3FFFB00000000000
3FFFFEEEEEEEEE40
3FFFFFFFFFFFFF40
3FFFFFFFFFFFFF40
3FFFFFFFFFFFFF40
ENDCHAR
STARTCHAR ecaron
ENCODING 283
SWIDTH 524 0
DWIDTH 15 0
BBX 15 23 0 -1
BITMAP
0000062004300000
00004FE35FE20000
00007FFEFFF40000
000006FFFF400000
0000005EE4000000
0000000330000000
0000001221000000
00004BFFFFB50000
0009FFFFFFFFB100
00AFFFFFFFFFFC10
05FFFFEA9FFFFC00
0CFFFB107FFFD100
2FFFE103FFFE3000
4FFF801DFFF50000
5FFF70AFFF800000
4FFF87FFFA000000
2FFFDFFFC1050000
0CFFFFFE206F9000
05FFFFFB8CFFF900
00AFFFFFFFFFFC10
001AFFFFFFFFC100
00005CFFFFD60000
0000001342000000
ENDCHAR
STARTCHAR Gcircumflex
ENCODING 284
SWIDTH 665 0
DWIDTH 19 0
BBX 18 28 0 -1
BITMAP
000000000040000000
000000000AF7000000
00000000BFFF800000
0000001BFFFFF90000
0000001CFC3DFB0000
000000019101A10000
000000000000000000
000000038BCCA72000
000004CFFFFFFFFA20
00008FFFFFFFFFFFE3
0009FFFFFFFFFFFFD0
006FFFFF94225BFF40
01EFFFD20000004900
07FFFD100000000000
0DFFF5000000000000
1FFFE0000000000000
3FFFB0000000000000
3FFFA000000004BBB5
2FFFC000000006FFF6
0FFFF100000006FFF6
0BFFF900000006FFF6
05FFFF50000006FFF6
00CFFFF8100006FFF6
002EFFFFEA88BFFFF6
0004EFFFFFFFFFFFF6
00002CFFFFFFFFFFA1
0000006CFFFFFFB400
000000002566410000
ENDCHAR
STARTCHAR gcircumflex
ENCODING 285
SWIDTH 607 0
DWIDTH 17 0
BBX 16 28 0 -6
BITMAP
0000000220000000
0000003ED2000000
000003EFFE300000
00004EFFFFE40000
00004FF76FF50000
0000066005800000
0000000220000000
00003AFFFFA30055
0008FFFFFFFF74F9
008FFFFFFFFFFFF9
04FFFFE99DFFFFF9
0BFFFA1001AFFFF9
1FFFD100000CFFF9
4FFF80000005FFF9
5FFF70000003FFF9
4FFF80000005FFF9
2FFFD100000BFFF9
0DFFF900008FFFF9
06FFFFD88CFFFFF9
00BFFFFFFFFFFFF9
001BFFFFFFFFFFF8
00006CFFFFDBFFF7
00000013421DFFF3
0000002225DFFFB0
000000BFFFFFFE30
000000BFFFFFE500
000000BFFFFC3000
0000007997300000
ENDCHAR
STARTCHAR Gbreve
ENCODING 286
SWIDTH 665 0
DWIDTH 19 0
BBX 18 26 0 -1
BITMAP
00000007FE0CF70000
00000007FF9EF80000
00000002EFFFF40000
000000003BDC600000
000000000000000000
000000038BCCA72000
000004CFFFFFFFFA20
00008FFFFFFFFFFFE3
0009FFFFFFFFFFFFD0
006FFFFF94225BFF40
01EFFFD20000004900
07FFFD100000000000
0DFFF5000000000000
1FFFE0000000000000
3FFFB0000000000000
3FFFA000000004BBB5
2FFFC000000006FFF6
0FFFF100000006FFF6
0BFFF900000006FFF6
05FFFF50000006FFF6
00CFFFF8100006FFF6
002EFFFFEA88BFFFF6
0004EFFFFFFFFFFFF6
00002CFFFFFFFFFFA1
0000006CFFFFFFB400
000000002566410000
ENDCHAR
STARTCHAR gbreve
ENCODING 287
SWIDTH 607 0
DWIDTH 17 0
BBX 16 26 0 -6
BITMAP
00001EF65FE00000
00000FFCBFF00000
00000AFFFFB00000
0000018DD9100000
0000000220000000
00003AFFFFA30055
0008FFFFFFFF74F9
008FFFFFFFFFFFF9
04FFFFE99DFFFFF9
0BFFFA1001AFFFF9
1FFFD100000CFFF9
4FFF80000005FFF9
5FFF70000003FFF9
4FFF80000005FFF9
2FFFD100000BFFF9
0DFFF900008FFFF9
06FFFFD88CFFFFF9
00BFFFFFFFFFFFF9
001BFFFFFFFFFFF8
00006CFFFFDBFFF7
00000013421DFFF3
0000002225DFFFB0
000000BFFFFFFE30
000000BFFFFFE500
000000BFFFFC3000
0000007997300000
ENDCHAR
STARTCHAR Gdotaccent
ENCODING 288
SWIDTH 665 0
DWIDTH 19 0
BBX 18 26 0 -1
BITMAP
000000000372000000
000000002FFE100000
000000004FFF200000
000000000AE8000000
000000000000000000
000000038BCCA72000
000004CFFFFFFFFA20
00008FFFFFFFFFFFE3
0009FFFFFFFFFFFFD0
006FFFFF94225BFF40
01EFFFD20000004900
07FFFD100000000000
0DFFF5000000000000
1FFFE0000000000000
3FFFB0000000000000
3FFFA000000004BBB5
2FFFC000000006FFF6
0FFFF100000006FFF6
0BFFF900000006FFF6
05FFFF50000006FFF6
00CFFFF8100006FFF6
002EFFFFEA88BFFFF6
0004EFFFFFFFFFFFF6
00002CFFFFFFFFFFA1
0000006CFFFFFFB400
000000002566410000
ENDCHAR
STARTCHAR gdotaccent
ENCODING 289
SWIDTH 607 0
DWIDTH 17 0
BBX 16 26 0 -6
BITMAP
0000000660000000
0000009FF7000000
000000BFF9000000
0000004DD3000000
0000000220000000
00003AFFFFA30055
0008FFFFFFFF74F9
008FFFFFFFFFFFF9
04FFFFE99DFFFFF9
0BFFFA1001AFFFF9
1FFFD100000CFFF9
4FFF80000005FFF9
5FFF70000003FFF9
4FFF80000005FFF9
2FFFD100000BFFF9
0DFFF900008FFFF9
06FFFFD88CFFFFF9
00BFFFFFFFFFFFF9
001BFFFFFFFFFFF8
00006CFFFFDBFFF7
00000013421DFFF3
0000002225DFFFB0
000000BFFFFFFE30
000000BFFFFFE500
000000BFFFFC3000
0000007997300000
ENDCHAR
STARTCHAR Gcommaaccent
ENCODING 290
SWIDTH 665 0
DWIDTH 19 0
BBX 18 28 0 -8
BITMAP
000000038BCCA72000
000004CFFFFFFFFA20
00008FFFFFFFFFFFE3
0009FFFFFFFFFFFFD0
006FFFFF94225BFF40
01EFFFD20000004900
07FFFD100000000000
0DFFF5000000000000
1FFFE0000000000000
3FFFB0000000000000
3FFFA000000004BBB5
2FFFC000000006FFF6
0FFFF100000006FFF6
0BFFF900000006FFF6
05FFFF50000006FFF6
00CFFFF8100006FFF6
002EFFFFEA88BFFFF6
0004EFFFFFFFFFFFF6
00002CFFFFFFFFFFA1
0000006CFFFFFFB400
000000002566410000
000000000594000000
000000004FFF200000
000000006FFF400000
000000001CFF200000
0000000001FC000000
0000000004E4000000
000000000010000000
ENDCHAR
STARTCHAR gcommaaccent
ENCODING 291
SWIDTH 607 0
DWIDTH 17 0
BBX 16 28 0 -6
BITMAP
0000000630000000
0000004FA0000000
000000AF91000000
000000DFF9000000
000000DFFB000000
0000006FE4000000
0000000230000000
00003AFFFFA30055
0008FFFFFFFF74F9
008FFFFFFFFFFFF9
04FFFFE99DFFFFF9
0BFFFA1001AFFFF9
1FFFD100000CFFF9
4FFF80000005FFF9
5FFF70000003FFF9
4FFF80000005FFF9
2FFFD100000BFFF9
0DFFF900008FFFF9
06FFFFD88CFFFFF9
00BFFFFFFFFFFFF9
001BFFFFFFFFFFF8
00006CFFFFDBFFF7
00000013421DFFF3
0000002225DFFFB0
000000BFFFFFFE30
000000BFFFFFE500
000000BFFFFC3000
0000007997300000
ENDCHAR
STARTCHAR Hcircumflex
ENCODING 292
SWIDTH 689 0
DWIDTH 19 0
BBX 17 26 1 0
BITMAP
000000004000000000
00000007FA00000000
0000008FFFB1000000
000009FFFFFC100000
00000AFE3BFD100000
000000920093000000
299970000000499950
3FFFB00000006FFF80
3FFFB00000006FFF80
3FFFB00000006FFF80
3FFFB00000006FFF80
3FFFB00000006FFF80
3FFFB00000006FFF80
3FFFB00000006FFF80
3FFFECCCCCCCDFFF80
3FFFFFFFFFFFFFFF80
3FFFFFFFFFFFFFFF80
3FFFFFFFFFFFFFFF80
3FFFC33333338FFF80
3FFFB00000006FFF80
3FFFB00000006FFF80
3FFFB00000006FFF80
3FFFB00000006FFF80
3FFFB00000006FFF80
3FFFB00000006FFF80
3FFFB00000006FFF80
ENDCHAR
STARTCHAR hcircumflex
ENCODING 293
SWIDTH 562 0
DWIDTH 16 0
BBX 14 22 1 0
BITMAP
00000000400000
47771008F80000
9FFF209FFFA000
9FFF3AFFFFFB10
9FFF3BFD3CFC10
9FFF21A101A200
9FFF2000000000
9FFF6ADDB60000
9FFFFFFFFFD200
9FFFFFFFFFFE20
9FFFFFEEFFFFA0
9FFFE5005FFFF2
9FFF700008FFF6
9FFF300004FFF7
9FFF200004FFF8
9FFF200004FFF8
9FFF200004FFF8
9FFF200004FFF8
9FFF200004FFF8
9FFF200004FFF8
9FFF200004FFF8
9FFF200004FFF8
ENDCHAR
STARTCHAR Hbar
ENCODING 294
SWIDTH 689 0
DWIDTH 19 0
BBX 19 20 0 0
BITMAP
02999700000004999500
03FFFB00000006FFF800
25FFFC33333338FFF920
9FFFFFFFFFFFFFFFFFD0
9FFFFFFFFFFFFFFFFFD0
9FFFFFFFFFFFFFFFFFD0
59FFFD8888888BFFFC70
03FFFB00000006FFF800
03FFFECCCCCCCDFFF800
03FFFFFFFFFFFFFFF800
03FFFFFFFFFFFFFFF800
03FFFFFFFFFFFFFFF800
03FFFC33333338FFF800
03FFFB00000006FFF800
03FFFB00000006FFF800
03FFFB00000006FFF800
03FFFB00000006FFF800
03FFFB00000006FFF800
03FFFB00000006FFF800
03FFFB00000006FFF800
ENDCHAR
STARTCHAR hbar
ENCODING 295
SWIDTH 562 0
DWIDTH 16 0
BBX 15 21 0 0
BITMAP
0477710000000000
9DFFFA4000000000
FFFFFF7000000000
FFFFFF7000000000
CEFFFD6000000000
09FFF20000000000
09FFF6ADDB600000
09FFFFFFFFFD2000
09FFFFFFFFFFE200
09FFFFFEEFFFFA00
09FFFE5005FFFF20
09FFF700008FFF60
09FFF300004FFF70
09FFF200004FFF80
09FFF200004FFF80
09FFF200004FFF80
09FFF200004FFF80
09FFF200004FFF80
09FFF200004FFF80
09FFF200004FFF80
09FFF200004FFF80
ENDCHAR
STARTCHAR Itilde
ENCODING 296
SWIDTH 270 0
DWIDTH 8 0
BBX 10 26 -1 0
BITMAP
0033000250
2DFFD26FF3
9FFFFDCFF4
AFFBEFFFF1
9FF13DFF70
2651014200
0029997000
003FFFB000
003FFFB000
003FFFB000
003FFFB000
003FFFB000
003FFFB000
003FFFB000
003FFFB000
003FFFB000
003FFFB000
003FFFB000
003FFFB000
003FFFB000
003FFFB000
003FFFB000
003FFFB000
003FFFB000
003FFFB000
003FFFB000
ENDCHAR
STARTCHAR itilde
ENCODING 297
SWIDTH 235 0
DWIDTH 7 0
BBX 10 21 -2 0
BITMAP
0024200133
07FFF70DFB
1FFFFFAFFC
2FFEBFFFF9
1FF908FFD2
0554002410
0006AAA200
0009FFF300
0009FFF300
0009FFF300
0009FFF300
0009FFF300
0009FFF300
0009FFF300
0009FFF300
0009FFF300
0009FFF300
0009FFF300
0009FFF300
0009FFF300
0009FFF300
ENDCHAR
STARTCHAR Imacron
ENCODING 298
SWIDTH 270 0
DWIDTH 8 0
BBX 8 24 0 0
BITMAP
9DDDDDD3
AFFFFFF4
AFFFFFF4
00000000
02999700
03FFFB00
03FFFB00
03FFFB00
03FFFB00
03FFFB00
03FFFB00
03FFFB00
03FFFB00
03FFFB00
03FFFB00
03FFFB00
03FFFB00
03FFFB00
03FFFB00
03FFFB00
03FFFB00
03FFFB00
03FFFB00
03FFFB00
ENDCHAR
STARTCHAR imacron
ENCODING 299
SWIDTH 235 0
DWIDTH 7 0
BBX 8 19 -1 0
BITMAP
2DDDDDDA
2FFFFFFC
2FFFFFFC
00000000
006AAA20
009FFF30
009FFF30
009FFF30
009FFF30
009FFF30
009FFF30
009FFF30
009FFF30
009FFF30
009FFF30
009FFF30
009FFF30
009FFF30
009FFF30
ENDCHAR
STARTCHAR Ibreve
ENCODING 300
SWIDTH 270 0
DWIDTH 8 0
BBX 7 25 0 0
BITMAP
2FF47FC0
2FFBDFD0
0CFFFF90
019DD810
00000000
02999700
03FFFB00
03FFFB00
03FFFB00
03FFFB00
03FFFB00
03FFFB00
03FFFB00
03FFFB00
03FFFB00
03FFFB00
03FFFB00
03FFFB00
03FFFB00
03FFFB00
03FFFB00
03FFFB00
03FFFB00
03FFFB00
03FFFB00
ENDCHAR
STARTCHAR ibreve
ENCODING 301
SWIDTH 235 0
DWIDTH 7 0
BBX 7 20 0 0
BITMAP
AFB1FF40
AFE9FF50
5FFFFE10
05CEB400
00000000
06AAA200
09FFF300
09FFF300
09FFF300
09FFF300
09FFF300
09FFF300
09FFF300
09FFF300
09FFF300
09FFF300
09FFF300
09FFF300
09FFF300
09FFF300
ENDCHAR
STARTCHAR Iogonek
ENCODING 302
SWIDTH 270 0
DWIDTH 8 0
BBX 7 25 0 -5
BITMAP
02999700
03FFFB00
03FFFB00
03FFFB00
03FFFB00
03FFFB00
03FFFB00
03FFFB00
03FFFB00
03FFFB00
03FFFB00
03FFFB00
03FFFB00
03FFFB00
03FFFB00
03FFFB00
03FFFB00
03FFFB00
03FFFB00
03FFFB00
03EE2000
0DF91000
1FFDCB10
0CFFFF80
02AED700
ENDCHAR
STARTCHAR iogonek
ENCODING 303
SWIDTH 235 0
DWIDTH 7 0
BBX 7 27 0 -5
BITMAP
00010000
04EFB100
0EFFF900
2FFFFC00
0DFFF700
02AC8000
00000000
06AAA200
09FFF300
09FFF300
09FFF300
09FFF300
09FFF300
09FFF300
09FFF300
09FFF300
09FFF300
09FFF300
09FFF300
09FFF300
09FFF300
09FFF300
06FC0000
2FF41000
6FFBE700
2FFFFF40
04CEC400
ENDCHAR
STARTCHAR Idotaccent
ENCODING 304
SWIDTH 270 0
DWIDTH 8 0
BBX 5 25 1 0
BITMAP
017500
0CFF40
0EFF70
06EC10
000000
299970
3FFFB0
3FFFB0
3FFFB0
3FFFB0
3FFFB0
3FFFB0
3FFFB0
3FFFB0
3FFFB0
3FFFB0
3FFFB0
3FFFB0
3FFFB0
3FFFB0
3FFFB0
3FFFB0
3FFFB0
3FFFB0
3FFFB0
ENDCHAR
STARTCHAR dotlessi
ENCODING 305
SWIDTH 235 0
DWIDTH 7 0
BBX 5 15 1 0
BITMAP
6AAA20
9FFF30
9FFF30
9FFF30
9FFF30
9FFF30
9FFF30
9FFF30
9FFF30
9FFF30
9FFF30
9FFF30
9FFF30
9FFF30
9FFF30
ENDCHAR
STARTCHAR IJ
ENCODING 306
SWIDTH 687 0
DWIDTH 19 0
BBX 17 20 1 0
BITMAP
299970000000299960
3FFFB00000004FFFA0
3FFFB00000004FFFA0
3FFFB00000004FFFA0
3FFFB00000004FFFA0
3FFFB00000004FFFA0
3FFFB00000004FFFA0
3FFFB00000004FFFA0
3FFFB00000004FFFA0
3FFFB00000004FFFA0
3FFFB00000004FFFA0
3FFFB00000004FFFA0
3FFFB00000004FFF90
3FFFB00000008FFF80
3FFFB0000002FFFF40
3FFFB013006EFFFD00
3FFFB02FEFFFFFF500
3FFFB02FFFFFFF8000
3FFFB02FFFFFE60000
3FFFB02DEEC8100000
ENDCHAR
STARTCHAR ij
ENCODING 307
SWIDTH 474 0
DWIDTH 13 0
BBX 13 28 0 -6
BITMAP
00010000000000
04EFB1008FF800
0EFFF905FFFF40
2FFFFC07FFFF60
0DFFF703FFFF30
02AC80005CB400
00000000000000
06AAA2009AA800
09FFF300EFFD00
09FFF300EFFD00
09FFF300EFFD00
09FFF300EFFD00
09FFF300EFFD00
09FFF300EFFD00
09FFF300EFFD00
09FFF300EFFD00
09FFF300EFFD00
09FFF300EFFD00
09FFF300EFFD00
09FFF300EFFD00
09FFF300FFFC00
09FFF304FFFA00
0000001CFFF600
001335DFFFE100
008FFFFFFF5000
008FFFFFF70000
008FFFFC400000
00598740000000
ENDCHAR
STARTCHAR Jcircumflex
ENCODING 308
SWIDTH 416 0
DWIDTH 12 0
BBX 12 27 0 0
BITMAP
000000022000
0000002DD300
000003EFFE40
00003EFFFFE5
00004FF75FF6
000005600480
000000000000
000000899910
000000CFFF10
000000CFFF10
000000CFFF10
000000CFFF10
000000CFFF10
000000CFFF10
000000CFFF10
000000CFFF10
000000CFFF10
000000CFFF10
000000CFFF10
000000DFFF10
000002FFFE00
00000AFFFA00
3102BFFFF500
BFEFFFFFB000
BFFFFFFD1000
BFFFFFB10000
9EFDA4000000
ENDCHAR
STARTCHAR jcircumflex
ENCODING 309
SWIDTH 237 0
DWIDTH 7 0
BBX 12 27 -5 -6
BITMAP
000000003000
0000001BF600
000001BFFF70
00001CFFFFF8
00001DFB3DFA
0000029002A1
0000005AAA30
0000008FFF40
0000008FFF40
0000008FFF40
0000008FFF40
0000008FFF40
0000008FFF40
0000008FFF40
0000008FFF40
0000008FFF40
0000008FFF40
0000008FFF40
0000008FFF40
0000009FFF30
000000DFFF10
000007FFFC00
03239FFFF500
2FFFFFFFB000
2FFFFFFC1000
2FFFFE800000
199851000000
ENDCHAR
STARTCHAR Kcommaaccent
ENCODING 310
SWIDTH 625 0
DWIDTH 18 0
BBX 17 28 1 -8
BITMAP
299970000002999920
3FFFB000000BFFFA00
3FFFB000008FFFD100
3FFFB00004FFFF3000
3FFFB0001EFFF60000
3FFFB000BFFFA00000
3FFFB007FFFD100000
3FFFB04FFFF3000000
3FFFB1EFFF80000000
3FFFBBFFFFB0000000
3FFFFFFFFFF5000000
3FFFFFFFFFFD000000
3FFFFFF7EFFF600000
3FFFFFA07FFFE10000
3FFFFD101EFFF70000
3FFFF30006FFFE1000
3FFFB00000DFFF9000
3FFFB000005FFFF200
3FFFB000000CFFFA00
3FFFB0000003FFFF30
000000000000000000
000000396000000000
000000EFF600000000
000001FFF900000000
0000008FF700000000
0000000BF200000000
0000001D8000000000
000000010000000000
ENDCHAR
STARTCHAR kcommaaccent
ENCODING 311
SWIDTH 539 0
DWIDTH 15 0
BBX 14 29 1 -8
BITMAP
47771000000000
9FFF3000000000
9FFF3000000000
9FFF3000000000
9FFF3000000000
9FFF3000000000
9FFF3000049997
9FFF30003EFFE3
9FFF3001DFFF50
9FFF300BFFF900
9FFF307FFFB000
9FFF34FFFD1000
9FFF5EFFF50000
9FFFEFFFFB0000
9FFFFFFFFF5000
9FFFFFEFFFD000
9FFFFF3CFFF700
9FFFF603FFFE10
9FFFA000AFFF90
9FFF30002FFFF3
9FFF300008FFFB
00000000000000
00000495000000
00002FFF300000
00004FFF600000
00000BFF300000
000001ED000000
000003E5000000
00000010000000
ENDCHAR
STARTCHAR kgreenlandic
ENCODING 312
SWIDTH 539 0
DWIDTH 15 0
BBX 14 15 1 0
BITMAP
6BBB2000049997
9FFF30003EFFE3
9FFF3001DFFF50
9FFF300BFFF900
9FFF307FFFB000
9FFF34FFFD1000
9FFF5EFFF50000
9FFFEFFFFB0000
9FFFFFFFFF5000
9FFFFFEFFFD000
9FFFFF3CFFF700
9FFFF603FFFE10
9FFFA000AFFF90
9FFF30002FFFF3
9FFF300008FFFB
ENDCHAR
STARTCHAR Lacute
ENCODING 313
SWIDTH 562 0
DWIDTH 16 0
BBX 15 25 1 0
BITMAP
0000000031000000
00000004EB000000
0000005FFF800000
000006FFFFA00000
00000DFFD5000000
299973E910000000
3FFFB01000000000
3FFFB00000000000
3FFFB00000000000
3FFFB00000000000
3FFFB00000000000
3FFFB00000000000
3FFFB00000000000
3FFFB00000000000
3FFFB00000000000
3FFFB00000000000
3FFFB00000000000
3FFFB00000000000
3FFFB00000000000
3FFFB00000000000
3FFFB00000000000
3FFFFEEEEEEEEE80
3FFFFFFFFFFFFF80
3FFFFFFFFFFFFF80
3FFFFFFFFFFFFF80
ENDCHAR
STARTCHAR lacute
ENCODING 314
SWIDTH 235 0
DWIDTH 7 0
BBX 8 28 1 0
BITMAP
00000400
00006F90
0008FFF5
009FFFF8
02EFFC30
005E7000
00010000
47771000
9FFF3000
9FFF3000
9FFF3000
9FFF3000
9FFF3000
9FFF3000
9FFF3000
9FFF3000
9FFF3000
9FFF3000
9FFF3000
9FFF3000
9FFF3000
9FFF3000
9FFF3000
9FFF3000
9FFF3000
9FFF3000
9FFF3000
9FFF3000
ENDCHAR
STARTCHAR Lcommaaccent
ENCODING 315
SWIDTH 562 0
DWIDTH 16 0
BBX 15 27 1 -7
BITMAP
2999700000000000
3FFFB00000000000
3FFFB00000000000
3FFFB00000000000
3FFFB00000000000
3FFFB00000000000
3FFFB00000000000
3FFFB00000000000
3FFFB00000000000
3FFFB00000000000
3FFFB00000000000
3FFFB00000000000
3FFFB00000000000
3FFFB00000000000
3FFFB00000000000
3FFFB00000000000
3FFFFEEEEEEEEE80
3FFFFFFFFFFFFF80
3FFFFFFFFFFFFF80
3FFFFFFFFFFFFF80
0000000000000000
0000028710000000
00000CFF80000000
00000EFFB0000000
000006FF90000000
0000009F40000000
000000CA00000000
ENDCHAR
STARTCHAR lcommaaccent
ENCODING 316
SWIDTH 235 0
DWIDTH 7 0
BBX 5 29 1 -8
BITMAP
477710
9FFF30
9FFF30
9FFF30
9FFF30
9FFF30
9FFF30
9FFF30
9FFF30
9FFF30
9FFF30
9FFF30
9FFF30
9FFF30
9FFF30
9FFF30
9FFF30
9FFF30
9FFF30
9FFF30
9FFF30
000000
069300
6FFE10
8FFF20
2DFF10
03FA00
06E200
001000
ENDCHAR
STARTCHAR Lcaron
ENCODING 317
SWIDTH 562 0
DWIDTH 16 0
BBX 15 20 1 0
BITMAP
2999700692000000
3FFFB05FFE000000
3FFFB08FFF200000
3FFFB02DFE000000
3FFFB003FA000000
3FFFB007E2000000
3FFFB00010000000
3FFFB00000000000
3FFFB00000000000
3FFFB00000000000
3FFFB00000000000
3FFFB00000000000
3FFFB00000000000
3FFFB00000000000
3FFFB00000000000
3FFFB00000000000
3FFFFEEEEEEEEE80
3FFFFFFFFFFFFF80
3FFFFFFFFFFFFF80
3FFFFFFFFFFFFF80
ENDCHAR
STARTCHAR lcaron
ENCODING 318
SWIDTH 369 0
DWIDTH 10 0
BBX 10 21 1 0
BITMAP
4777100000
9FFF304940
9FFF33FFF2
9FFF35FFF4
9FFF31CFF2
9FFF301ED0
9FFF304E40
9FFF300100
9FFF300000
9FFF300000
9FFF300000
9FFF300000
9FFF300000
9FFF300000
9FFF300000
9FFF300000
9FFF300000
9FFF300000
9FFF300000
9FFF300000
9FFF300000
ENDCHAR
STARTCHAR Ldot
ENCODING 319
SWIDTH 745 0
DWIDTH 21 0
BBX 19 20 1 0
BITMAP
29997000000000000000
3FFFB000000000000000
3FFFB000000000000000
3FFFB000000000000000
3FFFB000000000000000
3FFFB000000000000000
3FFFB000000000000000
3FFFB000000000001000
3FFFB0000000005EFA00
3FFFB000000000EFFF50
3FFFB000000001FFFF70
3FFFB000000000AFFE20
3FFFB000000000067200
3FFFB000000000000000
3FFFB000000000000000
3FFFB000000000000000
3FFFFEEEEEEEEE800000
3FFFFFFFFFFFFF800000
3FFFFFFFFFFFFF800000
3FFFFFFFFFFFFF800000
ENDCHAR
STARTCHAR ldotaccent
ENCODING 320
SWIDTH 463 0
DWIDTH 13 0
BBX 11 21 1 0
BITMAP
477710000000
9FFF30000000
9FFF30000000
9FFF30000000
9FFF30000000
9FFF30000000
9FFF30000000
9FFF30000000
9FFF30001000
9FFF303EFB10
9FFF30CFFF80
9FFF30EFFF90
9FFF308FFF40
9FFF30057300
9FFF30000000
9FFF30000000
9FFF30000000
9FFF30000000
9FFF30000000
9FFF30000000
9FFF30000000
ENDCHAR
STARTCHAR Lslash
ENCODING 321
SWIDTH 585 0
DWIDTH 16 0
BBX 17 20 0 0
BITMAP
005999400000000000
008FFF600000000000
008FFF600000000000
008FFF600000000000
008FFF600000000000
008FFF600000000000
008FFF668000000000
008FFFEF9000000000
008FFFFF9000000000
03CFFFFF8000000000
8FFFFFD50000000000
CFFFFF600000000000
CFFFFF600000000000
B89FFF600000000000
108FFF600000000000
008FFF600000000000
008FFFEEEEEEEEEE30
008FFFFFFFFFFFFF30
008FFFFFFFFFFFFF30
008FFFFFFFFFFFFF30
ENDCHAR
STARTCHAR lslash
ENCODING 322
SWIDTH 319 0
DWIDTH 9 0
BBX 9 21 0 0
BITMAP
0037772000
007FFF4000
007FFF4000
007FFF4000
007FFF4000
007FFF4000
007FFF4000
007FFF4680
007FFFEFA0
007FFFFFA0
02CFFFFF90
8FFFFFD500
BFFFFF4000
BFFFFF4000
A99FFF4000
107FFF4000
007FFF4000
007FFF4000
007FFF4000
007FFF4000
007FFF4000
ENDCHAR
STARTCHAR Nacute
ENCODING 323
SWIDTH 689 0
DWIDTH 19 0
BBX 17 26 1 0
BITMAP
000000000023000000
0000000002DD100000
000000003EFFB00000
00000004EFFFC20000
0000000AFFE7000000
00000001DA20000000
299992001000499950
3FFFFA0000006FFF80
3FFFFF4000006FFF80
3FFFFFC000006FFF80
3FFFFFF600006FFF80
3FFFFFFE10006FFF80
3FFFFFFF90006FFF80
3FFFCEFFF3006FFF80
3FFFB6FFFB006FFF80
3FFFB0CFFF506FFF80
3FFFB04FFFD16FFF80
3FFFB00AFFF86FFF80
3FFFB002FFFF8FFF80
3FFFB0008FFFFFFF80
3FFFB0001DFFFFFF80
3FFFB00005FFFFFF80
3FFFB00000BFFFFF80
3FFFB000003FFFFF80
3FFFB0000009FFFF80
3FFFB0000001EFFF80
ENDCHAR
STARTCHAR nacute
ENCODING 324
SWIDTH 562 0
DWIDTH 16 0
BBX 14 23 1 0
BITMAP
00000000032000
000000003EC100
00000004EFFA00
0000005FFFFB10
000000CFFE6000
0000002E910000
00000001000000
00000000000000
66016BDDB60000
9F7DFFFFFFD200
9FFFFFFFFFFE20
9FFFFFEEFFFFA0
9FFFE5005FFFF2
9FFF700008FFF6
9FFF300004FFF7
9FFF200003FFF8
9FFF200003FFF8
9FFF200003FFF8
9FFF200003FFF8
9FFF200003FFF8
9FFF200003FFF8
9FFF200003FFF8
9FFF200003FFF8
ENDCHAR
STARTCHAR Ncommaaccent
ENCODING 325
SWIDTH 689 0
DWIDTH 19 0
BBX 17 28 1 -8
BITMAP
299992000000499950
3FFFFA0000006FFF80
3FFFFF4000006FFF80
3FFFFFC000006FFF80
3FFFFFF600006FFF80
3FFFFFFE10006FFF80
3FFFFFFF90006FFF80
3FFFCEFFF3006FFF80
3FFFB6FFFB006FFF80
3FFFB0CFFF506FFF80
3FFFB04FFFD16FFF80
3FFFB00AFFF86FFF80
3FFFB002FFFF8FFF80
3FFFB0008FFFFFFF80
3FFFB0001DFFFFFF80
3FFFB00005FFFFFF80
3FFFB00000BFFFFF80
3FFFB000003FFFFF80
3FFFB0000009FFFF80
3FFFB0000001EFFF80
000000000000000000
000000039600000000
0000001EFF50000000
0000002FFF80000000
00000009FF60000000
00000000CF10000000
00000002D700000000
000000001000000000
ENDCHAR
STARTCHAR ncommaaccent
ENCODING 326
SWIDTH 562 0
DWIDTH 16 0
BBX 14 22 1 -7
BITMAP
66016BDDB60000
9F7DFFFFFFD200
9FFFFFFFFFFE20
9FFFFFEEFFFFA0
9FFFE5005FFFF2
9FFF700008FFF6
9FFF300004FFF7
9FFF200003FFF8
9FFF200003FFF8
9FFF200003FFF8
9FFF200003FFF8
9FFF200003FFF8
9FFF200003FFF8
9FFF200003FFF8
9FFF200003FFF8
00000000000000
00000287100000
00000CFF800000
00000EFFB00000
000006FF900000
0000009F400000
000000CA000000
ENDCHAR
STARTCHAR Ncaron
ENCODING 327
SWIDTH 689 0
DWIDTH 19 0
BBX 17 26 1 0
BITMAP
000000810061000000
000008FC19FB000000
00000BFFEFFD200000
0000009FFFD2000000
00000008FD20000000
000000006100000000
299992000000499950
3FFFFA0000006FFF80
3FFFFF4000006FFF80
3FFFFFC000006FFF80
3FFFFFF600006FFF80
3FFFFFFE10006FFF80
3FFFFFFF90006FFF80
3FFFCEFFF3006FFF80
3FFFB6FFFB006FFF80
3FFFB0CFFF506FFF80
3FFFB04FFFD16FFF80
3FFFB00AFFF86FFF80
3FFFB002FFFF8FFF80
3FFFB0008FFFFFFF80
3FFFB0001DFFFFFF80
3FFFB00005FFFFFF80
3FFFB00000BFFFFF80
3FFFB000003FFFFF80
3FFFB0000009FFFF80
3FFFB0000001EFFF80
ENDCHAR
STARTCHAR ncaron
ENCODING 328
SWIDTH 562 0
DWIDTH 16 0
BBX 14 22 1 0
BITMAP
00007200520000
0005FD36FD2000
0008FFEFFE4000
00007FFFE40000
000005FE300000
00000043000000
00000000000000
66016BDDB60000
9F7DFFFFFFD200
9FFFFFFFFFFE20
9FFFFFEEFFFFA0
9FFFE5005FFFF2
9FFF700008FFF6
9FFF300004FFF7
9FFF200003FFF8
9FFF200003FFF8
9FFF200003FFF8
9FFF200003FFF8
9FFF200003FFF8
9FFF200003FFF8
9FFF200003FFF8
9FFF200003FFF8
ENDCHAR
STARTCHAR napostrophe
ENCODING 329
SWIDTH 694 0
DWIDTH 19 0
BBX 19 20 0 0
BITMAP
28700000000000000000
CFF80000000000000000
EFFA0000000000000000
7FF80000000000000000
0AF40000000000000000
0CA0083028CEDA400000
00000DE7EFFFFFFA1000
00000DFFFFFFFFFFB000
00000DFFFFFDFFFFF600
00000DFFFC2009FFFC00
00000DFFF30000CFFF10
00000DFFE000008FFF30
00000DFFD000008FFF30
00000DFFD000008FFF30
00000DFFD000008FFF30
00000DFFD000008FFF30
00000DFFD000008FFF30
00000DFFD000008FFF30
00000DFFD000008FFF30
00000DFFD000008FFF30
ENDCHAR
STARTCHAR Eng
ENCODING 330
SWIDTH 689 0
DWIDTH 19 0
BBX 17 26 1 -6
BITMAP
299992000000499950
3FFFFA0000006FFF80
3FFFFF4000006FFF80
3FFFFFC000006FFF80
3FFFFFF600006FFF80
3FFFFFFE10006FFF80
3FFFFFFF90006FFF80
3FFFCEFFF3006FFF80
3FFFB6FFFB006FFF80
3FFFB0CFFF506FFF80
3FFFB04FFFD16FFF80
3FFFB00AFFF86FFF80
3FFFB002FFFF8FFF80
3FFFB0008FFFFFFF80
3FFFB0001DFFFFFF80
3FFFB00005FFFFFF80
3FFFB00000BFFFFF80
3FFFB000003FFFFF70
3FFFB0000009FFFF60
3FFFB0000002FFFF40
000000000009FFFE00
0000003857CFFFF800
0000004FFFFFFFC100
0000004FFFFFFD2000
0000004FFFFF910000
000000289861000000
ENDCHAR
STARTCHAR eng
ENCODING 331
SWIDTH 562 0
DWIDTH 16 0
BBX 14 21 1 -6
BITMAP
66016BDDB60000
9F7DFFFFFFD200
9FFFFFFFFFFE20
9FFFFFEEFFFFA0
9FFFE5005FFFF2
9FFF700008FFF6
9FFF300004FFF7
9FFF200003FFF8
9FFF200003FFF8
9FFF200004FFF8
9FFF200004FFF8
9FFF200004FFF8
9FFF200004FFF8
9FFF200004FFF7
9FFF200008FFF5
000000003FFFF1
00002237EFFFA0
0000DFFFFFFE20
0000DFFFFFE300
0000DFFFFA2000
00008986200000
ENDCHAR
STARTCHAR Omacron
ENCODING 332
SWIDTH 777 0
DWIDTH 22 0
BBX 21 25 0 -1
BITMAP
00000008DDDDDD50000000
00000009FFFFFF50000000
00000009FFFFFF50000000
0000000000000000000000
000000048BCCB720000000
000004CFFFFFFFFB200000
00008FFFFFFFFFFFF50000
0009FFFFFFFFFFFFFF6000
006FFFFE83124AFFFFF300
01EFFFC20000004EFFFC00
07FFFD1000000003FFFF40
0DFFF500000000009FFF90
1FFFE000000000003FFFD0
3FFFB000000000000EFFF0
3FFFA000000000000EFFF0
2FFFC000000000001FFFE0
0FFFF200000000005FFFB0
0BFFF90000000000CFFF70
04FFFF5000000009FFFF20
00CFFFF8100002AFFFF800
002EFFFFEA88BFFFFFC100
0004EFFFFFFFFFFFFD2000
00002CFFFFFFFFFFA10000
0000006CFFFFFFB4000000
0000000025664100000000
ENDCHAR
STARTCHAR omacron
ENCODING 333
SWIDTH 579 0
DWIDTH 16 0
BBX 16 20 0 -1
BITMAP
00005DDDDDD80000
00005FFFFFF90000
00005FFFFFF90000
0000001231000000
00004BFFFFC60000
0009FFFFFFFFC100
009FFFFFFFFFFC10
04FFFFE99DFFFF80
0CFFFA10008FFFE1
2FFFD100000BFFF5
4FFF80000005FFF7
6FFF60000003FFF8
5FFF80000005FFF7
2FFFD100000AFFF5
0CFFFA10007FFFE1
05FFFFD88CFFFF80
009FFFFFFFFFFC00
0009FFFFFFFFB100
00005CFFFFD60000
0000001342000000
ENDCHAR
STARTCHAR Obreve
ENCODING 334
SWIDTH 777 0
DWIDTH 22 0
BBX 21 26 0 -1
BITMAP
00000001FF56FD00000000
00000001FFBCFE00000000
00000000AFFFFA00000000
0000000018DD9100000000
0000000000000000000000
000000048BCCB720000000
000004CFFFFFFFFB200000
00008FFFFFFFFFFFF50000
0009FFFFFFFFFFFFFF6000
006FFFFE83124AFFFFF300
01EFFFC20000004EFFFC00
07FFFD1000000003FFFF40
0DFFF500000000009FFF90
1FFFE000000000003FFFD0
3FFFB000000000000EFFF0
3FFFA000000000000EFFF0
2FFFC000000000001FFFE0
0FFFF200000000005FFFB0
0BFFF90000000000CFFF70
04FFFF5000000009FFFF20
00CFFFF8100002AFFFF800
002EFFFFEA88BFFFFFC100
0004EFFFFFFFFFFFFD2000
00002CFFFFFFFFFFA10000
0000006CFFFFFFB4000000
0000000025664100000000
ENDCHAR
STARTCHAR obreve
ENCODING 335
SWIDTH 579 0
DWIDTH 16 0
BBX 16 21 0 -1
BITMAP
00000CF93FF20000
00000CFDAFF30000
000007FFFFD00000
0000007CDB200000
0000000221000000
00004BFFFFC60000
0009FFFFFFFFC100
009FFFFFFFFFFC10
04FFFFE99DFFFF80
0CFFFA10008FFFE1
2FFFD100000BFFF5
4FFF80000005FFF7
6FFF60000003FFF8
5FFF80000005FFF7
2FFFD100000AFFF5
0CFFFA10007FFFE1
05FFFFD88CFFFF80
009FFFFFFFFFFC00
0009FFFFFFFFB100
00005CFFFFD60000
0000001342000000
ENDCHAR
STARTCHAR Ohungarumlaut
ENCODING 336
SWIDTH 777 0
DWIDTH 22 0
BBX 21 29 0 -1
BITMAP
0000000003B10011000000
000000001DFC10BC100000
00000000BFFF98FFC10000
00000007FFFA5FFFE30000
0000001EFF82EFFD200000
00000003E602DFC1000000
0000000010002800000000
0000000000000000000000
000000048BCCB720000000
000004CFFFFFFFFB200000
00008FFFFFFFFFFFF50000
0009FFFFFFFFFFFFFF6000
006FFFFE83124AFFFFF300
01EFFFC20000004EFFFC00
07FFFD1000000003FFFF40
0DFFF500000000009FFF90
1FFFE000000000003FFFD0
3FFFB000000000000EFFF0
3FFFA000000000000EFFF0
2FFFC000000000001FFFE0
0FFFF200000000005FFFB0
0BFFF90000000000CFFF70
04FFFF5000000009FFFF20
00CFFFF8100002AFFFF800
002EFFFFEA88BFFFFFC100
0004EFFFFFFFFFFFFD2000
00002CFFFFFFFFFFA10000
0000006CFFFFFFB4000000
0000000025664100000000
ENDCHAR
STARTCHAR ohungarumlaut
ENCODING 337
SWIDTH 579 0
DWIDTH 16 0
BBX 16 23 0 -1
BITMAP
0000001B30002000
000000AFE307E300
000006FFFD4FFE40
00003FFFD3DFFF70
0000AFFC1BFFF500
00001BA00BFE3000
0000001221820000
00004BFFFFC60000
0009FFFFFFFFC100
009FFFFFFFFFFC10
04FFFFE99DFFFF80
0CFFFA10008FFFE1
2FFFD100000BFFF5
4FFF80000005FFF7
6FFF60000003FFF8
5FFF80000005FFF7
2FFFD100000AFFF5
0CFFFA10007FFFE1
05FFFFD88CFFFF80
009FFFFFFFFFFC00
0009FFFFFFFFB100
00005CFFFFD60000
0000001342000000
ENDCHAR
STARTCHAR OE
ENCODING 338
SWIDTH 1125 0
DWIDTH 32 0
BBX 31 21 0 -1
BITMAP
000000048BCCB7200899999999999950
000004CFFFFFFFFB2DFFFFFFFFFFFF90
00008FFFFFFFFFFFEEFFFFFFFFFFFF90
0009FFFFFFFFFFFFFFFFFFFFFFFFFF90
006FFFFE83124AFFFFFFF55555555530
01EFFFC20000004EFFFFF10000000000
07FFFD1000000003FFFFF10000000000
0DFFF500000000009FFFF10000000000
1FFFE000000000003FFFFCCCCCC60000
3FFFB000000000000EFFFFFFFFF80000
3FFFA000000000000EFFFFFFFFF80000
2FFFC000000000001FFFFFFFFFF80000
0FFFF200000000005FFFF43333310000
0BFFF90000000000CFFFF10000000000
04FFFF5000000009FFFFF10000000000
00CFFFF8100002AFFFFFF10000000000
002EFFFFEA88BFFFFFFFFEEEEEEEEE80
0004EFFFFFFFFFFFFFFFFFFFFFFFFF90
00002CFFFFFFFFFFADFFFFFFFFFFFF90
0000006CFFFFFFB40DFFFFFFFFFFFF90
00000000256641000000000000000000
ENDCHAR
STARTCHAR oe
ENCODING 339
SWIDTH 924 0
DWIDTH 26 0
BBX 26 17 0 -1
BITMAP
00000002210000000023100000
00004BFFFFC60002AEFFFD7000
0009FFFFFFFFC16FFFFFFFFC20
009FFFFFFFFFFEFFFFFFFFFFD2
04FFFFE99DFFFFFFFEA9EFFFE2
0CFFFA10008FFFFFC204FFFF30
2FFFD100000BFFFF301DFFF500
4FFF80000005FFFB00BFFF8000
6FFF60000003FFFA07FFFA0000
5FFF80000005FFFB4FFFC10000
2FFFD100000AFFFEEFFE204100
0CFFFA10007FFFFFFFF403EC10
05FFFFD88CFFFFFFFFC8BFFFC1
009FFFFFFFFFFEFFFFFFFFFFE2
0009FFFFFFFFC17FFFFFFFFD30
00005CFFFFD60003BFFFFD8100
00000013420000000134200000
ENDCHAR
STARTCHAR Racute
ENCODING 340
SWIDTH 651 0
DWIDTH 18 0
BBX 17 27 1 0
BITMAP
000000000040000000
000000000AF4000000
00000001BFFE200000
0000001CFFFE400000
0000005FFFA1000000
0000000AD400000000
000000010000000000
299999999861000000
3FFFFFFFFFFE800000
3FFFFFFFFFFFFC2000
3FFFFFFFFFFFFFC000
3FFFC55556CFFFF700
3FFFB0000009FFFE00
3FFFB0000001DFFF40
3FFFB00000008FFF70
3FFFB00000007FFF70
3FFFB0000000AFFF50
3FFFB0000004FFFF20
3FFFB000005EFFFB00
3FFFECCCDEFFFFF300
3FFFFFFFFFFFFF6000
3FFFFFFFFFFFF50000
3FFFFFFFFFFFF20000
3FFFC1111AFFF80000
3FFFB00004FFFE0000
3FFFB00000CFFF6000
3FFFB000006FFFC000
ENDCHAR
STARTCHAR racute
ENCODING 341
SWIDTH 414 0
DWIDTH 12 0
BBX 11 22 1 0
BITMAP
000000050000
0000008F7000
000009FFF400
0000AFFFF700
0003FFFC3000
00006E600000
000001000000
650026899930
9F39FFFFFF40
9FFFFFFFFF40
9FFFFFFFFF40
9FFFF9322200
9FFF90000000
9FFF40000000
9FFF20000000
9FFF20000000
9FFF20000000
9FFF20000000
9FFF20000000
9FFF20000000
9FFF20000000
9FFF20000000
ENDCHAR
STARTCHAR Rcommaaccent
ENCODING 342
SWIDTH 651 0
DWIDTH 18 0
BBX 17 28 1 -8
BITMAP
299999999861000000
3FFFFFFFFFFE800000
3FFFFFFFFFFFFC2000
3FFFFFFFFFFFFFC000
3FFFC55556CFFFF700
3FFFB0000009FFFE00
3FFFB0000001DFFF40
3FFFB00000008FFF70
3FFFB00000007FFF70
3FFFB0000000AFFF50
3FFFB0000004FFFF20
3FFFB000005EFFFB00
3FFFECCCDEFFFFF300
3FFFFFFFFFFFFF6000
3FFFFFFFFFFFF50000
3FFFFFFFFFFFF20000
3FFFC1111AFFF80000
3FFFB00004FFFE0000
3FFFB00000CFFF6000
3FFFB000006FFFC000
000000000000000000
000000178200000000
0000008FFC00000000
000000BFFF00000000
0000003EFC00000000
00000006F800000000
00000008D100000000
000000001000000000
ENDCHAR
STARTCHAR rcommaaccent
ENCODING 343
SWIDTH 414 0
DWIDTH 12 0
BBX 11 23 1 -8
BITMAP
650026899930
9F39FFFFFF40
9FFFFFFFFF40
9FFFFFFFFF40
9FFFF9322200
9FFF90000000
9FFF40000000
9FFF20000000
9FFF20000000
9FFF20000000
9FFF20000000
9FFF20000000
9FFF20000000
9FFF20000000
9FFF20000000
000000000000
079200000000
7FFD00000000
9FFF10000000
2DFE00000000
04F900000000
07D200000000
001000000000
ENDCHAR
STARTCHAR Rcaron
ENCODING 344
SWIDTH 651 0
DWIDTH 18 0
BBX 17 26 1 0
BITMAP
000004400250000000
00002EF53EF4000000
00004FFFEFF7000000
000004EFFF70000000
0000003DF600000000
000000025000000000
299999999861000000
3FFFFFFFFFFE800000
3FFFFFFFFFFFFC2000
3FFFFFFFFFFFFFC000
3FFFC55556CFFFF700
3FFFB0000009FFFE00
3FFFB0000001DFFF40
3FFFB00000008FFF70
3FFFB00000007FFF70
3FFFB0000000AFFF50
3FFFB0000004FFFF20
3FFFB000005EFFFB00
3FFFECCCDEFFFFF300
3FFFFFFFFFFFFF6000
3FFFFFFFFFFFF50000
3FFFFFFFFFFFF20000
3FFFC1111AFFF80000
3FFFB00004FFFE0000
3FFFB00000CFFF6000
3FFFB000006FFFC000
ENDCHAR
STARTCHAR rcaron
ENCODING 345
SWIDTH 414 0
DWIDTH 12 0
BBX 11 21 1 0
BITMAP
007100520000
06FD27FD1000
09FFEFFE3000
008FFFE30000
0006FE300000
000052000000
650026899930
9F39FFFFFF40
9FFFFFFFFF40
9FFFFFFFFF40
9FFFF9322200
9FFF90000000
9FFF40000000
9FFF20000000
9FFF20000000
9FFF20000000
9FFF20000000
9FFF20000000
9FFF20000000
9FFF20000000
9FFF20000000
ENDCHAR
STARTCHAR Sacute
ENCODING 346
SWIDTH 610 0
DWIDTH 17 0
BBX 17 27 0 0
BITMAP
000000000004000000
0000000000AF400000
000000001BFFE20000
00000001CFFFE40000
00000005FFFA100000
00000000AD40000000
000000001000000000
000037999999999500
001BFFFFFFFFFFF800
01DFFFFFFFFFFFF800
09FFFFFFFFFFFFF800
1FFFFA555555555300
4FFFC0000000000000
4FFFA0000000000000
3FFFE2000000000000
0DFFFFCCCCBA600000
05FFFFFFFFFFFD3000
007FFFFFFFFFFFE200
0004CFFFFFFFFFFB00
000001233338FFFF20
000000000000BFFF40
000000000000AFFF50
000000000004FFFF30
03EEEEEEEEEFFFFC00
04FFFFFFFFFFFFF400
04FFFFFFFFFFFF6000
04FFFFFFFFFD920000
ENDCHAR
STARTCHAR sacute
ENCODING 347
SWIDTH 523 0
DWIDTH 15 0
BBX 15 22 0 0
BITMAP
0000000000400000
000000001BF30000
00000001CFFD1000
0000002DFFFE4000
0000007FFF910000
0000000BC3000000
0000000100000000
0002799999999100
006FFFFFFFFFF200
04FFFFFFFFFFF200
0CFFFFFFFFFFF200
0FFFD22222222000
0FFFC10000000000
0CFFFFFFFFD91000
05FFFFFFFFFFD200
007FFFFFFFFFFA00
00038ABBBBEFFF00
0000000000AFFF10
1BBBBBBBBBFFFE00
1FFFFFFFFFFFF800
1FFFFFFFFFFFC100
1FFFFFFFFFD81000
ENDCHAR
STARTCHAR Scircumflex
ENCODING 348
SWIDTH 610 0
DWIDTH 17 0
BBX 17 27 0 0
BITMAP
000000004000000000
00000008F900000000
0000009FFFA0000000
00000AFFFFFB100000
00000BFD3CFD100000
000001A101A2000000
000000000000000000
000037999999999500
001BFFFFFFFFFFF800
01DFFFFFFFFFFFF800
09FFFFFFFFFFFFF800
1FFFFA555555555300
4FFFC0000000000000
4FFFA0000000000000
3FFFE2000000000000
0DFFFFCCCCBA600000
05FFFFFFFFFFFD3000
007FFFFFFFFFFFE200
0004CFFFFFFFFFFB00
000001233338FFFF20
000000000000BFFF40
000000000000AFFF50
000000000004FFFF30
03EEEEEEEEEFFFFC00
04FFFFFFFFFFFFF400
04FFFFFFFFFFFF6000
04FFFFFFFFFD920000
ENDCHAR
STARTCHAR scircumflex
ENCODING 349
SWIDTH 523 0
DWIDTH 15 0
BBX 15 22 0 0
BITMAP
0000000300000000
000001BF50000000
00001CFFF7000000
0001CFFFFF800000
0001DFB3DFA00000
000029002A100000
0000000000000000
0002799999999100
006FFFFFFFFFF200
04FFFFFFFFFFF200
0CFFFFFFFFFFF200
0FFFD22222222000
0FFFC10000000000
0CFFFFFFFFD91000
05FFFFFFFFFFD200
007FFFFFFFFFFA00
00038ABBBBEFFF00
0000000000AFFF10
1BBBBBBBBBFFFE00
1FFFFFFFFFFFF800
1FFFFFFFFFFFC100
1FFFFFFFFFD81000
ENDCHAR
STARTCHAR Scedilla
ENCODING 350
SWIDTH 610 0
DWIDTH 17 0
BBX 17 27 0 -7
BITMAP
000037999999999500
001BFFFFFFFFFFF800
01DFFFFFFFFFFFF800
09FFFFFFFFFFFFF800
1FFFFA555555555300
4FFFC0000000000000
4FFFA0000000000000
3FFFE2000000000000
0DFFFFCCCCBA600000
05FFFFFFFFFFFD3000
007FFFFFFFFFFFE200
0004CFFFFFFFFFFB00
000001233338FFFF20
000000000000BFFF40
000000000000AFFF50
000000000004FFFF30
03EEEEEEEEEFFFFC00
04FFFFFFFFFFFFF400
04FFFFFFFFFFFF6000
04FFFFFFFFFD920000
00000002F900000000
00000007FE60000000
00000007BFF3000000
000000846FF6000000
000002FFFFF3000000
000002BFFF80000000
000000024200000000
ENDCHAR
STARTCHAR scedilla
ENCODING 351
SWIDTH 523 0
DWIDTH 15 0
BBX 15 22 0 -7
BITMAP
0002799999999100
006FFFFFFFFFF200
04FFFFFFFFFFF200
0CFFFFFFFFFFF200
0FFFD22222222000
0FFFC10000000000
0CFFFFFFFFD91000
05FFFFFFFFFFD200
007FFFFFFFFFFA00
00038ABBBBEFFF00
0000000000AFFF10
1BBBBBBBBBFFFE00
1FFFFFFFFFFFF800
1FFFFFFFFFFFC100
1FFFFFFFFFD81000
0000005F60000000
000000AFD4000000
0000009DFE100000
00000939FF300000
00005FFFFF100000
00003DFFE5000000
0000003410000000
ENDCHAR
STARTCHAR Scaron
ENCODING 352
SWIDTH 610 0
DWIDTH 17 0
BBX 17 26 0 0
BITMAP
000001700070000000
00000AFA1AFA000000
00001CFFEFFC100000
000001BFFFC1000000
0000000AFB10000000
000000006100000000
000037999999999500
001BFFFFFFFFFFF800
01DFFFFFFFFFFFF800
09FFFFFFFFFFFFF800
1FFFFA555555555300
4FFFC0000000000000
4FFFA0000000000000
3FFFE2000000000000
0DFFFFCCCCBA600000
05FFFFFFFFFFFD3000
007FFFFFFFFFFFE200
0004CFFFFFFFFFFB00
000001233338FFFF20
000000000000BFFF40
000000000000AFFF50
000000000004FFFF30
03EEEEEEEEEFFFFC00
04FFFFFFFFFFFFF400
04FFFFFFFFFFFF6000
04FFFFFFFFFD920000
ENDCHAR
STARTCHAR scaron
ENCODING 353
SWIDTH 523 0
DWIDTH 15 0
BBX 15 21 0 0
BITMAP
0000071006100000
00008FC18FC10000
0000AFFEFFD20000
000009FFFD200000
0000008FD2000000
0000000610000000
0002799999999100
006FFFFFFFFFF200
04FFFFFFFFFFF200
0CFFFFFFFFFFF200
0FFFD22222222000
0FFFC10000000000
0CFFFFFFFFD91000
05FFFFFFFFFFD200
007FFFFFFFFFFA00
00038ABBBBEFFF00
0000000000AFFF10
1BBBBBBBBBFFFE00
1FFFFFFFFFFFF800
1FFFFFFFFFFFC100
1FFFFFFFFFD81000
ENDCHAR
STARTCHAR Tcommaaccent
ENCODING 354
SWIDTH 578 0
DWIDTH 16 0
BBX 16 28 0 -8
BITMAP
7999999999999998
BFFFFFFFFFFFFFFE
BFFFFFFFFFFFFFFE
BFFFFFFFFFFFFFFE
455555EFFF555554
000000DFFF100000
000000DFFF100000
000000DFFF100000
000000DFFF100000
000000DFFF100000
000000DFFF100000
000000DFFF100000
000000DFFF100000
000000DFFF100000
000000DFFF100000
000000DFFF100000
000000DFFF100000
000000DFFF100000
000000DFFF100000
000000DFFF100000
0000000000000000
0000001782000000
0000009FFB000000
000000BFFE000000
0000004EFC000000
00000006F7000000
00000009D1000000
0000000010000000
ENDCHAR
STARTCHAR tcommaaccent
ENCODING 355
SWIDTH 437 0
DWIDTH 12 0
BBX 12 29 0 -8
BITMAP
005777000000
00CFFE000000
00CFFE000000
00CFFE000000
00CFFE000000
00CFFE000000
69EFFF999995
9FFFFFFFFFF9
9FFFFFFFFFF9
9FFFFFFFFFF9
12CFFE222221
00CFFE000000
00CFFE000000
00CFFE000000
00CFFE000000
00AFFF300000
007FFFC20000
001EFFFECBB6
0005FFFFFFF9
00006FFFFFF9
0000029DFFF9
000000000000
000017920000
00008FFC0000
0000AFFF0000
00003EFD0000
000005F80000
000008D10000
000000100000
ENDCHAR
STARTCHAR Tcaron
ENCODING 356
SWIDTH 578 0
DWIDTH 16 0
BBX 16 26 0 0
BITMAP
0000054003400000
00003EF53EF40000
00005FFFEFF60000
000004EFFF600000
0000003EF6000000
0000000250000000
7999999999999998
BFFFFFFFFFFFFFFE
BFFFFFFFFFFFFFFE
BFFFFFFFFFFFFFFE
455555EFFF555554
000000DFFF100000
000000DFFF100000
000000DFFF100000
000000DFFF100000
000000DFFF100000
000000DFFF100000
000000DFFF100000
000000DFFF100000
000000DFFF100000
000000DFFF100000
000000DFFF100000
000000DFFF100000
000000DFFF100000
000000DFFF100000
000000DFFF100000
ENDCHAR
STARTCHAR tcaron
ENCODING 357
SWIDTH 570 0
DWIDTH 16 0
BBX 16 21 0 0
BITMAP
0057770000000000
00CFFE0000000781
00CFFE0000008FFC
00CFFE000000AFFE
00CFFE0000003EFC
00CFFE00000006F8
69EFFF99999509D1
9FFFFFFFFFF90010
9FFFFFFFFFF90000
9FFFFFFFFFF90000
12CFFE2222210000
00CFFE0000000000
00CFFE0000000000
00CFFE0000000000
00CFFE0000000000
00AFFF3000000000
007FFFC200000000
001EFFFECBB60000
0005FFFFFFF90000
00006FFFFFF90000
0000029DFFF90000
ENDCHAR
STARTCHAR Tbar
ENCODING 358
SWIDTH 578 0
DWIDTH 16 0
BBX 16 20 0 0
BITMAP
7999999999999998
BFFFFFFFFFFFFFFE
BFFFFFFFFFFFFFFE
BFFFFFFFFFFFFFFE
455555EFFF555554
000000DFFF100000
000000DFFF100000
000000DFFF100000
000000DFFF100000
000033DFFF331000
0002FFFFFFFF4000
0002FFFFFFFF4000
0002FFFFFFFF4000
000188EFFF882000
000000DFFF100000
000000DFFF100000
000000DFFF100000
000000DFFF100000
000000DFFF100000
000000DFFF100000
ENDCHAR
STARTCHAR tbar
ENCODING 359
SWIDTH 437 0
DWIDTH 12 0
BBX 12 21 0 0
BITMAP
005777000000
00CFFE000000
00CFFE000000
00CFFE000000
00CFFE000000
00CFFE000000
69EFFF999995
9FFFFFFFFFF9
9FFFFFFFFFF9
9FFFFFFFFFF9
12CFFE222221
35DFFE555000
9FFFFFFFD000
9FFFFFFFD000
9FFFFFFFD000
11AFFF411000
007FFFC10000
001EFFFECBB6
0005FFFFFFF9
00006FFFFFF9
0000029DFFF9
ENDCHAR
STARTCHAR Utilde
ENCODING 360
SWIDTH 673 0
DWIDTH 19 0
BBX 17 26 1 0
BITMAP
000001420013300000
00005FFF90CFD00000
0000EFFFFBEFE00000
0001FFEBFFFFB00000
0000EFB07FFE300000
000045400241000000
499950000000699930
6FFF80000000AFFF40
6FFF80000000AFFF40
6FFF80000000AFFF40
6FFF80000000AFFF40
6FFF80000000AFFF40
6FFF80000000AFFF40
6FFF80000000AFFF40
6FFF80000000AFFF40
6FFF80000000AFFF40
6FFF80000000AFFF40
6FFF80000000AFFF40
6FFF80000000AFFF40
4FFFC0000000DFFF20
1FFFF6000008FFFD00
0AFFFF81019FFFF800
02EFFFFFEFFFFFD100
004FFFFFFFFFFE3000
0004DFFFFFFFC20000
000006BEFEA5000000
ENDCHAR
STARTCHAR utilde
ENCODING 361
SWIDTH 562 0
DWIDTH 16 0
BBX 14 22 1 -1
BITMAP
00003300024100
001CFFD25FF400
007FFFFECFF500
009FFBEFFFF200
007FF22DFF8000
00165200420000
7AA9000004AAA3
CFFE000006FFF5
CFFE000006FFF5
CFFE000006FFF5
CFFE000006FFF5
CFFE000006FFF5
CFFE000006FFF5
CFFE000006FFF5
BFFF000007FFF5
AFFF20000AFFF5
7FFFA0004FFFF5
2FFFFC89FFFFF5
09FFFFFFFFFFF5
00BFFFFFFFCBF5
0006DFFFE701D5
00000243000000
ENDCHAR
STARTCHAR Umacron
ENCODING 362
SWIDTH 673 0
DWIDTH 19 0
BBX 17 24 1 0
BITMAP
00000DDDDDDC000000
00000FFFFFFD000000
00000FFFFFFD000000
000000000000000000
499950000000699930
6FFF80000000AFFF40
6FFF80000000AFFF40
6FFF80000000AFFF40
6FFF80000000AFFF40
6FFF80000000AFFF40
6FFF80000000AFFF40
6FFF80000000AFFF40
6FFF80000000AFFF40
6FFF80000000AFFF40
6FFF80000000AFFF40
6FFF80000000AFFF40
6FFF80000000AFFF40
4FFFC0000000DFFF20
1FFFF6000008FFFD00
0AFFFF81019FFFF800
02EFFFFFEFFFFFD100
004FFFFFFFFFFE3000
0004DFFFFFFFC20000
000006BEFEA5000000
ENDCHAR
STARTCHAR umacron
ENCODING 363
SWIDTH 562 0
DWIDTH 16 0
BBX 14 20 1 -1
BITMAP
0008DDDDDD4000
0009FFFFFF5000
0009FFFFFF5000
00000000000000
7AA9000004AAA3
CFFE000006FFF5
CFFE000006FFF5
CFFE000006FFF5
CFFE000006FFF5
CFFE000006FFF5
CFFE000006FFF5
CFFE000006FFF5
BFFF000007FFF5
AFFF20000AFFF5
7FFFA0004FFFF5
2FFFFC89FFFFF5
09FFFFFFFFFFF5
00BFFFFFFFCBF5
0006DFFFE701D5
00000243000000
ENDCHAR
STARTCHAR Ubreve
ENCODING 364
SWIDTH 673 0
DWIDTH 19 0
BBX 17 24 1 0
BITMAP
000008FE0DF7000000
000007FF9FF8000000
000002FFFFF3000000
0000004BEC50000000
499950000000699930
6FFF80000000AFFF40
6FFF80000000AFFF40
6FFF80000000AFFF40
6FFF80000000AFFF40
6FFF80000000AFFF40
6FFF80000000AFFF40
6FFF80000000AFFF40
6FFF80000000AFFF40
6FFF80000000AFFF40
6FFF80000000AFFF40
6FFF80000000AFFF40
6FFF80000000AFFF40
4FFFC0000000DFFF20
1FFFF6000008FFFD00
0AFFFF81019FFFF800
02EFFFFFEFFFFFD100
004FFFFFFFFFFE3000
0004DFFFFFFFC20000
000006BEFEA5000000
ENDCHAR
STARTCHAR ubreve
ENCODING 365
SWIDTH 562 0
DWIDTH 16 0
BBX 14 21 1 -1
BITMAP
0003FF38FB0000
0003FFADFC0000
0000CFFFF80000
000029DD800000
00000000000000
7AA9000004AAA3
CFFE000006FFF5
CFFE000006FFF5
CFFE000006FFF5
CFFE000006FFF5
CFFE000006FFF5
CFFE000006FFF5
CFFE000006FFF5
BFFF000007FFF5
AFFF20000AFFF5
7FFFA0004FFFF5
2FFFFC89FFFFF5
09FFFFFFFFFFF5
00BFFFFFFFCBF5
0006DFFFE701D5
00000243000000
ENDCHAR
STARTCHAR Uring
ENCODING 366
SWIDTH 673 0
DWIDTH 19 0
BBX 17 26 1 0
BITMAP
00000019B800000000
000000CFFFA0000000
000003FB1DF1000000
000002FC5DF1000000
000000AFFF80000000
000000068500000000
499950000000699930
6FFF80000000AFFF40
6FFF80000000AFFF40
6FFF80000000AFFF40
6FFF80000000AFFF40
6FFF80000000AFFF40
6FFF80000000AFFF40
6FFF80000000AFFF40
6FFF80000000AFFF40
6FFF80000000AFFF40
6FFF80000000AFFF40
6FFF80000000AFFF40
6FFF80000000AFFF40
4FFFC0000000DFFF20
1FFFF6000008FFFD00
0AFFFF81019FFFF800
02EFFFFFEFFFFFD100
004FFFFFFFFFFE3000
0004DFFFFFFFC20000
000006BEFEA5000000
ENDCHAR
STARTCHAR uring
ENCODING 367
SWIDTH 562 0
DWIDTH 16 0
BBX 14 22 1 -1
BITMAP
000005BA300000
00006FFFE20000
0000BF37F70000
0000BF69F70000
00004FFFD10000
00000387100000
7AA9000004AAA3
CFFE000006FFF5
CFFE000006FFF5
CFFE000006FFF5
CFFE000006FFF5
CFFE000006FFF5
CFFE000006FFF5
CFFE000006FFF5
BFFF000007FFF5
AFFF20000AFFF5
7FFFA0004FFFF5
2FFFFC89FFFFF5
09FFFFFFFFFFF5
00BFFFFFFFCBF5
0006DFFFE701D5
00000243000000
ENDCHAR
STARTCHAR Uhungarumlaut
ENCODING 368
SWIDTH 673 0
DWIDTH 19 0
BBX 17 27 1 0
BITMAP
000000096000200000
0000005FF703E70000
000002EFFF4DFF8000
00001CFFF5AFFFB000
00005FFE37FFF90000
000007D206FF700000
000000100065000000
499950000000699930
6FFF80000000AFFF40
6FFF80000000AFFF40
6FFF80000000AFFF40
6FFF80000000AFFF40
6FFF80000000AFFF40
6FFF80000000AFFF40
6FFF80000000AFFF40
6FFF80000000AFFF40
6FFF80000000AFFF40
6FFF80000000AFFF40
6FFF80000000AFFF40
6FFF80000000AFFF40
4FFFC0000000DFFF20
1FFFF6000008FFFD00
0AFFFF81019FFFF800
02EFFFFFEFFFFFD100
004FFFFFFFFFFE3000
0004DFFFFFFFC20000
000006BEFEA5000000
ENDCHAR
STARTCHAR uhungarumlaut
ENCODING 369
SWIDTH 562 0
DWIDTH 16 0
BBX 14 23 1 -1
BITMAP
000003B1001100
00001DFC10AC10
0000AFFFA7FFD2
0006FFFB4FFFE4
000DFF91DFFD30
0002D702DFC200
00001000291000
7AA9000004AAA3
CFFE000006FFF5
CFFE000006FFF5
CFFE000006FFF5
CFFE000006FFF5
CFFE000006FFF5
CFFE000006FFF5
CFFE000006FFF5
BFFF000007FFF5
AFFF20000AFFF5
7FFFA0004FFFF5
2FFFFC89FFFFF5
09FFFFFFFFFFF5
00BFFFFFFFCBF5
0006DFFFE701D5
00000243000000
ENDCHAR
STARTCHAR Uogonek
ENCODING 370
SWIDTH 673 0
DWIDTH 19 0
BBX 17 25 1 -5
BITMAP
499950000000699930
6FFF80000000AFFF40
6FFF80000000AFFF40
6FFF80000000AFFF40
6FFF80000000AFFF40
6FFF80000000AFFF40
6FFF80000000AFFF40
6FFF80000000AFFF40
6FFF80000000AFFF40
6FFF80000000AFFF40
6FFF80000000AFFF40
6FFF80000000AFFF40
6FFF80000000AFFF40
4FFFC0000000DFFF20
1FFFF6000008FFFD00
0AFFFF81019FFFF700
02EFFFFFEFFFFFD100
005FFFFFFFFFFE3000
0004DFFFFFFFC20000
000016BFFDA5000000
000000BF8000000000
000006FF1100000000
00000AFFAE40000000
000006FFFFE1000000
0000007DEA20000000
ENDCHAR
STARTCHAR uogonek
ENCODING 371
SWIDTH 562 0
DWIDTH 16 0
BBX 16 20 1 -5
BITMAP
7AA9000004AAA300
CFFE000006FFF500
CFFE000006FFF500
CFFE000006FFF500
CFFE000006FFF500
CFFE000006FFF500
CFFE000006FFF500
CFFE000006FFF500
BFFF000007FFF500
AFFF20000AFFF500
7FFFA0004FFFF500
2FFFFC89FFFFF500
09FFFFFFFFFFF500
00BFFFFFFFCBF500
0006DFFFE706F500
00000243005FD100
0000000001EF6100
0000000004FFCD80
0000000001EFFFF5
00000000003CEC50
ENDCHAR
STARTCHAR Wcircumflex
ENCODING 372
SWIDTH 819 0
DWIDTH 23 0
BBX 21 28 1 -1
BITMAP
0000000000400000000000
0000000009F70000000000
00000000AFFF9000000000
0000001BFFFFFA00000000
0000001CFC3CFC00000000
000000019101A100000000
0000000000000000000000
3999600049994000699930
5FFF90007FFF7000AFFF40
5FFF90007FFF7000AFFF40
5FFF90007FFF7000AFFF40
5FFF90007FFF7000AFFF40
5FFF90007FFF7000AFFF40
5FFF90007FFF7000AFFF40
5FFF90007FFF7000AFFF40
5FFF90007FFF7000AFFF40
5FFF90007FFF7000AFFF40
5FFF90007FFF7000AFFF40
5FFF90007FFF7000AFFF40
5FFF90007FFF7000AFFF40
5FFF90007FFF7000AFFF40
4FFFA0008FFF7000AFFF40
3FFFE101DFFFC002EFFF20
0DFFFEADFFFFFDAEFFFD00
06FFFFFFFFFFFFFFFFF500
009FFFFFFFEFFFFFFF9000
0006DFFFE707EFFFD60000
0000024300000342000000
ENDCHAR
STARTCHAR wcircumflex
ENCODING 373
SWIDTH 756 0
DWIDTH 21 0
BBX 19 22 1 -1
BITMAP
00000000040000000000
000000007F9000000000
00000008FFFA00000000
0000009FFFFFB1000000
000000AFD3BFD1000000
00000009200930000000
79990002999400079980
BFFF0004FFF7000CFFE0
BFFF0004FFF7000CFFE0
BFFF0004FFF7000CFFE0
BFFF0004FFF7000CFFE0
BFFF0004FFF7000CFFE0
BFFF0004FFF7000CFFE0
BFFF0004FFF7000CFFE0
BFFF0004FFF7000CFFE0
BFFF0004FFF7000CFFE0
AFFF4008FFFA001FFFC0
6FFFE89FFFFFA8DFFF90
1DFFFFFFFFFFFFFFFF20
03EFFFFFFFFFFFFFF600
002BFFFF917EFFFC4000
00001431000034200000
ENDCHAR
STARTCHAR Ycircumflex
ENCODING 374
SWIDTH 620 0
DWIDTH 17 0
BBX 17 26 0 0
BITMAP
000000004000000000
00000007FA00000000
0000008FFFB1000000
000008FFFFFC100000
000009FE3AFE100000
000000920093000000
299970000000499950
3FFFC00000006FFF80
3FFFC00000006FFF80
3FFFC00000006FFF80
3FFFC00000006FFF80
3FFFC00000006FFF80
2FFFC00000006FFF70
1FFFE00000009FFF60
0CFFF8000003FFFF30
07FFFF81005EFFFC00
01DFFFFECEFFFFF400
003EFFFFFFFFFF7000
0003DFFFFFFFF60000
000006CFFFE8200000
0000004FFFA0000000
0000004FFFA0000000
0000004FFFA0000000
0000004FFFA0000000
0000004FFFA0000000
0000004FFFA0000000
ENDCHAR
STARTCHAR ycircumflex
ENCODING 375
SWIDTH 562 0
DWIDTH 16 0
BBX 14 27 1 -6
BITMAP
00000031000000
000004EC100000
00005FFFD20000
0005FFFFFE3000
0006FF58FF4000
00007400660000
7AA9000004AAA3
CFFE000006FFF5
CFFE000006FFF5
CFFE000006FFF5
CFFE000006FFF5
CFFE000006FFF5
CFFE000006FFF5
CFFE000006FFF5
BFFF000007FFF5
AFFF20000AFFF5
7FFF90004FFFF5
2FFFFC89FFFFF5
09FFFFFFFFFFF5
00BFFFFFFFFFF5
0006DFFFCEFFF3
000002435FFFE0
00003238FFFF70
0001FFFFFFFD10
0001FFFFFFD200
0001FFFFF91000
00009986200000
ENDCHAR
STARTCHAR Ydieresis
ENCODING 376
SWIDTH 620 0
DWIDTH 17 0
BBX 17 25 0 0
BITMAP
000002400013000000
00003FF903EF800000
00007FFE07FFC00000
00003EF803EF700000
000001200012000000
299970000000499950
3FFFC00000006FFF80
3FFFC00000006FFF80
3FFFC00000006FFF80
3FFFC00000006FFF80
3FFFC00000006FFF80
2FFFC00000006FFF70
1FFFE00000009FFF60
0CFFF8000003FFFF30
07FFFF81005EFFFC00
01DFFFFECEFFFFF400
003EFFFFFFFFFF7000
0003DFFFFFFFF60000
000006CFFFE8200000
0000004FFFA0000000
0000004FFFA0000000
0000004FFFA0000000
0000004FFFA0000000
0000004FFFA0000000
0000004FFFA0000000
ENDCHAR
STARTCHAR Zacute
ENCODING 377
SWIDTH 586 0
DWIDTH 16 0
BBX 16 27 0 0
BITMAP
0000000000230000
0000000002DD1000
000000003EFFB000
00000004EFFFC200
0000000AFFE70000
00000001DA200000
0000000010000000
3999999999999996
5FFFFFFFFFFFFFF3
5FFFFFFFFFFFFFA0
5FFFFFFFFFFFFF30
255555556FFFF900
000000009FFFF200
00000002FFFF9000
0000000AFFFE1000
0000003FFFF80000
000000BFFFE10000
000004FFFF700000
00000CFFFD000000
00005FFFF6000000
0000DFFFD0000000
0006FFFF50000000
001EFFFC00000000
007FFFFEEEEEEEEB
01EFFFFFFFFFFFFC
08FFFFFFFFFFFFFC
2FFFFFFFFFFFFFFC
ENDCHAR
STARTCHAR zacute
ENCODING 378
SWIDTH 481 0
DWIDTH 14 0
BBX 13 22 0 0
BITMAP
00000000040000
000000007F8000
00000008FFF400
0000009FFFF700
000002FFFC3000
0000006E600000
00000001000000
39999999999960
5FFFFFFFFFFF30
5FFFFFFFFFFA00
5FFFFFFFFFF200
1222228FFF8000
000001EFFE1000
000008FFF60000
00002FFFC00000
0000AFFF400000
0004FFFA000000
000CFFF2000000
006FFFEBBBBB90
01DFFFFFFFFFD0
08FFFFFFFFFFD0
2EFFFFFFFFFFD0
ENDCHAR
STARTCHAR Zdotaccent
ENCODING 379
SWIDTH 586 0
DWIDTH 16 0
BBX 16 25 0 0
BITMAP
0000000571000000
0000005FFB000000
0000007FFE000000
0000001CE6000000
0000000000000000
3999999999999996
5FFFFFFFFFFFFFF3
5FFFFFFFFFFFFFA0
5FFFFFFFFFFFFF30
255555556FFFF900
000000009FFFF200
00000002FFFF9000
0000000AFFFE1000
0000003FFFF80000
000000BFFFE10000
000004FFFF700000
00000CFFFD000000
00005FFFF6000000
0000DFFFD0000000
0006FFFF50000000
001EFFFC00000000
007FFFFEEEEEEEEB
01EFFFFFFFFFFFFC
08FFFFFFFFFFFFFC
2FFFFFFFFFFFFFFC
ENDCHAR
STARTCHAR zdotaccent
ENCODING 380
SWIDTH 481 0
DWIDTH 14 0
BBX 13 20 0 0
BITMAP
00000174000000
00000CFF400000
00000EFF600000
000006EB100000
00000000000000
39999999999960
5FFFFFFFFFFF30
5FFFFFFFFFFA00
5FFFFFFFFFF200
1222228FFF8000
000001EFFE1000
000008FFF60000
00002FFFC00000
0000AFFF400000
0004FFFA000000
000CFFF2000000
006FFFEBBBBB90
01DFFFFFFFFFD0
08FFFFFFFFFFD0
2EFFFFFFFFFFD0
ENDCHAR
STARTCHAR Zcaron
ENCODING 381
SWIDTH 586 0
DWIDTH 16 0
BBX 16 26 0 0
BITMAP
0000035001600000
00001DF72DF60000
00003EFFEFF90000
000003DFFF900000
0000002DF8000000
0000000160000000
3999999999999996
5FFFFFFFFFFFFFF3
5FFFFFFFFFFFFFA0
5FFFFFFFFFFFFF30
255555556FFFF900
000000009FFFF200
00000002FFFF9000
0000000AFFFE1000
0000003FFFF80000
000000BFFFE10000
000004FFFF700000
00000CFFFD000000
00005FFFF6000000
0000DFFFD0000000
0006FFFF50000000
001EFFFC00000000
007FFFFEEEEEEEEB
01EFFFFFFFFFFFFC
08FFFFFFFFFFFFFC
2FFFFFFFFFFFFFFC
ENDCHAR
STARTCHAR zcaron
ENCODING 382
SWIDTH 481 0
DWIDTH 14 0
BBX 13 21 0 0
BITMAP
00007100610000
0007FD27FC1000
0009FFEFFE3000
00008FFFE30000
000007FD200000
00000052000000
39999999999960
5FFFFFFFFFFF30
5FFFFFFFFFFA00
5FFFFFFFFFF200
1222228FFF8000
000001EFFE1000
000008FFF60000
00002FFFC00000
0000AFFF400000
0004FFFA000000
000CFFF2000000
006FFFEBBBBB90
01DFFFFFFFFFD0
08FFFFFFFFFFD0
2EFFFFFFFFFFD0
ENDCHAR
STARTCHAR AEacute
ENCODING 508
SWIDTH 988 0
DWIDTH 28 0
BBX 26 27 1 0
BITMAP
00000000000000004100000000
0000000000000005FB00000000
000000000000006FFF70000000
00000000000007FFFFA0000000
0000000000001DFFD400000000
00000000000003E81000000000
00000000000000100000000000
00000158999999999999999997
00008EFFFFFFFFFFFFFFFFFFFC
001CFFFFFFFFFFFFFFFFFFFFFC
00BFFFFFFFFFFFFFFFFFFFFFFC
06FFFFD75555CFFF7555555554
0DFFFA100000AFFF4000000000
3FFFE1000000AFFF4000000000
5FFF90000000AFFF4000000000
6FFF80000000AFFFCCCCCC8000
6FFF80000000AFFFFFFFFFA000
6FFF80000000AFFFFFFFFFA000
6FFF80000000AFFFFFFFFFA000
6FFFECCCCCCCEFFF6333332000
6FFFFFFFFFFFFFFF4000000000
6FFFFFFFFFFFFFFF4000000000
6FFFFFFFFFFFFFFF4000000000
6FFF81111111AFFFEEEEEEEEEB
6FFF80000000AFFFFFFFFFFFFC
6FFF80000000AFFFFFFFFFFFFC
6FFF80000000AFFFFFFFFFFFFC
ENDCHAR
STARTCHAR aeacute
ENCODING 509
SWIDTH 976 0
DWIDTH 27 0
BBX 27 23 0 -1
BITMAP
0000000000000000040000000000
0000000000000001BF3000000000
000000000000001CFFD100000000
00000000000002DFFFE400000000
00000000000007FFF91000000000
00000000000000BC300000000000
0000000220000010000132000000
00004BFFFFA3005517DFFFE93000
0009FFFFFFFF74FBDFFFFFFFF700
009FFFFFFFFFFFFFFFFFFFFFFF70
04FFFFE99DFFFFFFFFFC9BFFFF70
0CFFFA1001AFFFFFFF600CFFF900
1FFFD100000CFFFFF9008FFFB000
4FFF80000005FFFFF305FFFD1000
5FFF70000003FFFFF12EFFE30000
4FFF80000005FFFFF2CFFF500000
2FFFD000000BFFFFFDFFF7014000
0DFFF900008FFFFFFFFFA01BF400
06FFFFD88CFFFFFFFFFF89EFFF40
00BFFFFFFFFFFFFFFFFFFFFFFF70
001BFFFFFFFF96FBDFFFFFFFF800
00006DFFFFB400A918EFFFFB3000
0000002341000000000243100000
ENDCHAR
STARTCHAR Oslashacute
ENCODING 510
SWIDTH 777 0
DWIDTH 22 0
BBX 21 28 0 -1
BITMAP
0000000000000500000000
000000000000AF50000000
00000000000BFFE2000000
0000000001BFFFE5000000
0000000005FFFA20000000
00000000009D5000000000
0000000000010000000000
000000048BCCB721999600
000004CFFFFFFFFDFFE200
00008FFFFFFFFFFFFF6000
0009FFFFFFFFFFFFFF5000
006FFFFE83125FFFFFF300
01EFFFC200008FFFFFFB00
07FFFD100004FFF9FFFF40
0DFFF500001EFFB08FFF90
1FFFE00000BFFE102FFFD0
3FFFB00007FFF4000EFFE0
3FFFA0003FFF80000EFFF0
2FFFC001DFFC00001FFFE0
0EFFF10AFFE200005FFFB0
0AFFF96FFF500000CFFF70
04FFFFFFF9000009FFFF20
00BFFFFFD10002AFFFF800
002EFFFFEA88BFFFFFC100
0007FFFFFFFFFFFFFD2000
002EFFFFFFFFFFFFA10000
00BFFE6CFFFFFFB4000000
0000000025664100000000
ENDCHAR
STARTCHAR oslashacute
ENCODING 511
SWIDTH 579 0
DWIDTH 16 0
BBX 16 24 0 -1
BITMAP
0000000000320000
0000000004EC0000
000000004EFF9000
00000005FFFFB100
0000000CFFE50000
00000002E9100000
0000000010000000
0000000220000000
00004BFFFFB9CCC4
0009FFFFFFFFFF90
009FFFFFFFFFFF10
04FFFFE99FFFFF80
0CFFFA106FFFFFE1
2FFFD103FFFEFFF5
4FFF801DFFC6FFF7
6FFF60AFFE23FFF8
5FFF86FFF605FFF7
2FFFDFFF900AFFF5
0CFFFFFD107FFFE1
05FFFFFA8CFFFF80
00BFFFFFFFFFFC00
03EFFFFFFFFFB100
1DFFDCFFFFD60000
0000001342000000
ENDCHAR
STARTCHAR dotlessj
ENCODING 567
SWIDTH 237 0
DWIDTH 7 0
BBX 11 21 -5 -6
BITMAP
0000005AAA30
0000008FFF40
0000008FFF40
0000008FFF40
0000008FFF40
0000008FFF40
0000008FFF40
0000008FFF40
0000008FFF40
0000008FFF40
0000008FFF40
0000008FFF40
0000008FFF40
0000009FFF30
000000DFFF10
000007FFFC00
03239FFFF500
2FFFFFFFB000
2FFFFFFC1000
2FFFFE800000
199851000000
ENDCHAR
STARTCHAR circumflex
ENCODING 710
SWIDTH 267 0
DWIDTH 7 0
BBX 8 6 0 14
BITMAP
00030000
006FB100
06FFFC10
7FFFFFD2
8FE49FE2
09300840
ENDCHAR
STARTCHAR caron
ENCODING 711
SWIDTH 267 0
DWIDTH 7 0
BBX 8 6 0 14
BITMAP
07100610
7FD27FC1
9FFEFFE3
08FFFE30
007FD200
00052000
ENDCHAR
STARTCHAR breve
ENCODING 728
SWIDTH 220 0
DWIDTH 6 0
BBX 7 4 0 15
BITMAP
EF84FE10
EFCBFF20
8FFFFC00
07CDA200
ENDCHAR
STARTCHAR dotaccent
ENCODING 729
SWIDTH 125 0
DWIDTH 4 0
BBX 4 4 0 15
BITMAP
1750
CFF4
EFF6
6EC1
ENDCHAR
STARTCHAR ring
ENCODING 730
SWIDTH 192 0
DWIDTH 5 0
BBX 6 6 0 14
BITMAP
07B920
8FFFD1
EE19F5
DF5BF4
6FFFC0
048600
ENDCHAR
STARTCHAR ogonek
ENCODING 731
SWIDTH 212 0
DWIDTH 6 0
BBX 6 6 0 -5
BITMAP
02BB10
2DF400
BFB010
EFECC1
BFFFFA
1AED81
ENDCHAR
STARTCHAR tilde
ENCODING 732
SWIDTH 321 0
DWIDTH 9 0
BBX 9 6 0 14
BITMAP
0142001340
4EFFA0AFE0
DFFFFBEFF0
FFFBFFFFC0
DFC06FFE40
4550024100
ENDCHAR
STARTCHAR hungarumlaut
ENCODING 733
SWIDTH 384 0
DWIDTH 11 0
BBX 11 7 0 14
BITMAP
001B20001000
00BFD208D200
08FFFC5FFE30
4FFFC4EFFF50
CFFA1CFFE400
1C901CFD2000
010001910000
ENDCHAR
STARTCHAR uni0312
ENCODING 786
SWIDTH 192 0
DWIDTH 5 0
BBX 5 7 0 14
BITMAP
008200
07F700
0DF600
1FFF50
2FFF70
09FD20
001000
ENDCHAR
STARTCHAR uni0315
ENCODING 789
SWIDTH 132 0
DWIDTH 4 0
BBX 4 6 0 14
BITMAP
2870
CFF8
EFFA
7FF8
0AF4
0CA0
ENDCHAR
STARTCHAR uni0326
ENCODING 806
SWIDTH 193 0
DWIDTH 5 0
BBX 5 7 0 -8
BITMAP
039600
1EFF60
2FFF80
08FF60
00CF20
01D800
001000
ENDCHAR
STARTCHAR pi
ENCODING 960
SWIDTH 555 0
DWIDTH 16 0
BBX 16 15 0 0
BITMAP
5AAAAAAAAAAAAAA1
8FFFFFFFFFFFFFF1
8FFFFFFFFFFFFFF1
8FFFFFFFFFFFFFF1
125FFF922FFFC220
003FFF800FFFC000
003FFF800FFFC000
003FFF800FFFC000
003FFF800FFFC000
003FFF800FFFC000
003FFF800FFFC000
003FFF800FFFC000
003FFF800FFFC000
003FFF800FFFC000
003FFF800FFFC000
ENDCHAR
STARTCHAR Wgrave
ENCODING 7808
SWIDTH 819 0
DWIDTH 23 0
BBX 21 28 1 -1
BITMAP
0000000500000000000000
0000006F90000000000000
000003FFFA000000000000
000006EFFFA00000000000
0000002BFFF30000000000
000000005E800000000000
0000000001000000000000
3999600049994000699930
5FFF90007FFF7000AFFF40
5FFF90007FFF7000AFFF40
5FFF90007FFF7000AFFF40
5FFF90007FFF7000AFFF40
5FFF90007FFF7000AFFF40
5FFF90007FFF7000AFFF40
5FFF90007FFF7000AFFF40
5FFF90007FFF7000AFFF40
5FFF90007FFF7000AFFF40
5FFF90007FFF7000AFFF40
5FFF90007FFF7000AFFF40
5FFF90007FFF7000AFFF40
5FFF90007FFF7000AFFF40
4FFFA0008FFF7000AFFF40
3FFFE101DFFFC002EFFF20
0DFFFEADFFFFFDAEFFFD00
06FFFFFFFFFFFFFFFFF500
009FFFFFFFEFFFFFFF9000
0006DFFFE707EFFFD60000
0000024300000342000000
ENDCHAR
STARTCHAR wgrave
ENCODING 7809
SWIDTH 756 0
DWIDTH 21 0
BBX 19 23 1 -1
BITMAP
00000040000000000000
000008F7000000000000
00005FFF800000000000
00008FFFF90000000000
000003CFFE2000000000
00000006E60000000000
00000000100000000000
79990002999400079980
BFFF0004FFF7000CFFE0
BFFF0004FFF7000CFFE0
BFFF0004FFF7000CFFE0
BFFF0004FFF7000CFFE0
BFFF0004FFF7000CFFE0
BFFF0004FFF7000CFFE0
BFFF0004FFF7000CFFE0
BFFF0004FFF7000CFFE0
BFFF0004FFF7000CFFE0
AFFF4008FFFA001FFFC0
6FFFE89FFFFFA8DFFF90
1DFFFFFFFFFFFFFFFF20
03EFFFFFFFFFFFFFF600
002BFFFF917EFFFC4000
00001431000034200000
ENDCHAR
STARTCHAR Wacute
ENCODING 7810
SWIDTH 819 0
DWIDTH 23 0
BBX 21 28 1 -1
BITMAP
0000000000001400000000
000000000001BF30000000
00000000001CFFD1000000
0000000002DFFFD4000000
0000000007FFF910000000
0000000000BC3000000000
0000000000100000000000
3999600049994000699930
5FFF90007FFF7000AFFF40
5FFF90007FFF7000AFFF40
5FFF90007FFF7000AFFF40
5FFF90007FFF7000AFFF40
5FFF90007FFF7000AFFF40
5FFF90007FFF7000AFFF40
5FFF90007FFF7000AFFF40
5FFF90007FFF7000AFFF40
5FFF90007FFF7000AFFF40
5FFF90007FFF7000AFFF40
5FFF90007FFF7000AFFF40
5FFF90007FFF7000AFFF40
5FFF90007FFF7000AFFF40
4FFFA0008FFF7000AFFF40
3FFFE101DFFFC002EFFF20
0DFFFEADFFFFFDAEFFFD00
06FFFFFFFFFFFFFFFFF500
009FFFFFFFEFFFFFFF9000
0006DFFFE707EFFFD60000
0000024300000342000000
ENDCHAR
STARTCHAR wacute
ENCODING 7811
SWIDTH 756 0
DWIDTH 21 0
BBX 19 23 1 -1
BITMAP
00000000000040000000
000000000006F9000000
00000000007FFF600000
0000000008FFFF900000
000000001EFFD3000000
0000000005E700000000
00000000001000000000
79990002999400079980
BFFF0004FFF7000CFFE0
BFFF0004FFF7000CFFE0
BFFF0004FFF7000CFFE0
BFFF0004FFF7000CFFE0
BFFF0004FFF7000CFFE0
BFFF0004FFF7000CFFE0
BFFF0004FFF7000CFFE0
BFFF0004FFF7000CFFE0
BFFF0004FFF7000CFFE0
AFFF4008FFFA001FFFC0
6FFFE89FFFFFA8DFFF90
1DFFFFFFFFFFFFFFFF20
03EFFFFFFFFFFFFFF600
002BFFFF917EFFFC4000
00001431000034200000
ENDCHAR
STARTCHAR Wdieresis
ENCODING 7812
SWIDTH 819 0
DWIDTH 23 0
BBX 21 26 1 -1
BITMAP
0000000330002200000000
0000006FF606FF50000000
000000AFFA0AFF90000000
0000005FF505FF40000000
0000000110001100000000
3999600049994000699930
5FFF90007FFF7000AFFF40
5FFF90007FFF7000AFFF40
5FFF90007FFF7000AFFF40
5FFF90007FFF7000AFFF40
5FFF90007FFF7000AFFF40
5FFF90007FFF7000AFFF40
5FFF90007FFF7000AFFF40
5FFF90007FFF7000AFFF40
5FFF90007FFF7000AFFF40
5FFF90007FFF7000AFFF40
5FFF90007FFF7000AFFF40
5FFF90007FFF7000AFFF40
5FFF90007FFF7000AFFF40
4FFFA0008FFF7000AFFF40
3FFFE101DFFFC002EFFF20
0DFFFEADFFFFFDAEFFFD00
06FFFFFFFFFFFFFFFFF500
009FFFFFFFEFFFFFFF9000
0006DFFFE707EFFFD60000
0000024300000342000000
ENDCHAR
STARTCHAR wdieresis
ENCODING 7813
SWIDTH 756 0
DWIDTH 21 0
BBX 19 21 1 -1
BITMAP
00000023000120000000
000004FF804FF7000000
000008FFD08FFB000000
000003EF703EF6000000
00000012000120000000
79990002999400079980
BFFF0004FFF7000CFFE0
BFFF0004FFF7000CFFE0
BFFF0004FFF7000CFFE0
BFFF0004FFF7000CFFE0
BFFF0004FFF7000CFFE0
BFFF0004FFF7000CFFE0
BFFF0004FFF7000CFFE0
BFFF0004FFF7000CFFE0
BFFF0004FFF7000CFFE0
AFFF4008FFFA001FFFC0
6FFFE89FFFFFA8DFFF90
1DFFFFFFFFFFFFFFFF20
03EFFFFFFFFFFFFFF600
002BFFFF917EFFFC4000
00001431000034200000
ENDCHAR
STARTCHAR Ygrave
ENCODING 7922
SWIDTH 620 0
DWIDTH 17 0
BBX 17 27 0 0
BITMAP
000014000000000000
0000BF500000000000
0008FFF50000000000
000AFFFF6000000000
00005DFFD000000000
0000018E3000000000
000000010000000000
299970000000499950
3FFFC00000006FFF80
3FFFC00000006FFF80
3FFFC00000006FFF80
3FFFC00000006FFF80
3FFFC00000006FFF80
2FFFC00000006FFF70
1FFFE00000009FFF60
0CFFF8000003FFFF30
07FFFF81005EFFFC00
01DFFFFECEFFFFF400
003EFFFFFFFFFF7000
0003DFFFFFFFF60000
000006CFFFE8200000
0000004FFFA0000000
0000004FFFA0000000
0000004FFFA0000000
0000004FFFA0000000
0000004FFFA0000000
0000004FFFA0000000
ENDCHAR
STARTCHAR ygrave
ENCODING 7923
SWIDTH 562 0
DWIDTH 16 0
BBX 14 28 1 -6
BITMAP
00140000000000
00AF6000000000
06FFF700000000
09FFFF70000000
004DFFE1000000
00007E40000000
00000100000000
7AA9000004AAA3
CFFE000006FFF5
CFFE000006FFF5
CFFE000006FFF5
CFFE000006FFF5
CFFE000006FFF5
CFFE000006FFF5
CFFE000006FFF5
BFFF000007FFF5
AFFF20000AFFF5
7FFF90004FFFF5
2FFFFC89FFFFF5
09FFFFFFFFFFF5
00BFFFFFFFFFF5
0006DFFFCEFFF3
000002435FFFE0
00003238FFFF70
0001FFFFFFFD10
0001FFFFFFD200
0001FFFFF91000
00009986200000
ENDCHAR
STARTCHAR endash
ENCODING 8211
SWIDTH 418 0
DWIDTH 12 0
BBX 10 4 1 8
BITMAP
4CCCCCCCC1
5FFFFFFFF1
5FFFFFFFF1
4EEEEEEEE1
ENDCHAR
STARTCHAR emdash
ENCODING 8212
SWIDTH 719 0
DWIDTH 20 0
BBX 18 4 1 8
BITMAP
4CCCCCCCCCCCCCCCC6
5FFFFFFFFFFFFFFFF7
5FFFFFFFFFFFFFFFF7
4EEEEEEEEEEEEEEEE7
ENDCHAR
STARTCHAR quoteleft
ENCODING 8216
SWIDTH 246 0
DWIDTH 7 0
BBX 5 8 1 12
BITMAP
016000
0AF800
3FF200
8FFB10
BFFFA0
CFFFC0
7FFF70
06A600
ENDCHAR
STARTCHAR quoteright
ENCODING 8217
SWIDTH 245 0
DWIDTH 7 0
BBX 5 8 1 12
BITMAP
069400
9FFF50
EFFFA0
CFFFA0
3DFF70
03FF20
0AF900
017000
ENDCHAR
STARTCHAR quotesinglbase
ENCODING 8218
SWIDTH 264 0
DWIDTH 7 0
BBX 5 8 1 -4
BITMAP
05A810
5FFFA0
9FFFF0
7FFFE0
09FFB0
00EF60
05FC00
004200
ENDCHAR
STARTCHAR quotedblleft
ENCODING 8220
SWIDTH 445 0
DWIDTH 12 0
BBX 11 8 1 12
BITMAP
016000043000
0AF8002EF200
3FF2009FB000
8FFB10EFE700
BFFFA2FFFF30
CFFFC3FFFF60
7FFF70DFFE20
06A600189300
ENDCHAR
STARTCHAR quotedblright
ENCODING 8221
SWIDTH 444 0
DWIDTH 12 0
BBX 11 8 1 12
BITMAP
069400288100
9FFF51EFFD10
EFFFA5FFFF40
CFFFA3FFFF30
3DFF707EFF10
03FF2009FB00
0AF9001FF300
017000035000
ENDCHAR
STARTCHAR quotedblbase
ENCODING 8222
SWIDTH 463 0
DWIDTH 13 0
BBX 11 8 1 -4
BITMAP
05A81018A500
5FFFA0BFFF40
9FFFF0FFFF90
7FFFE0DFFF80
09FFB03CFF50
00EF6005FE10
05FC000BF700
004200015000
ENDCHAR
STARTCHAR dagger
ENCODING 8224
SWIDTH 434 0
DWIDTH 12 0
BBX 12 26 0 -3
BITMAP
000056660000
0000DFFF1000
0000DFFF1000
0000DFFF1000
0000DFFF1000
0555EFFF6551
1FFFFFFFFFF4
1FFFFFFFFFF4
1FFFFFFFFFF4
1666EFFF6661
0000DFFF1000
0000DFFF1000
0000DFFF1000
0000DFFF1000
0000DFFF1000
0000DFFF1000
0000DFFF1000
0000DFFF1000
0000DFFF1000
0000DFFF1000
0000DFFF1000
0000DFFF1000
0000DFFF1000
0000DFFF1000
0000DFFF1000
0000BCCC1000
ENDCHAR
STARTCHAR daggerdbl
ENCODING 8225
SWIDTH 452 0
DWIDTH 13 0
BBX 11 26 1 -3
BITMAP
000466620000
000AFFF50000
000AFFF50000
000AFFF50000
000AFFF50000
555CFFF85530
DFFFFFFFFF80
DFFFFFFFFF80
DFFFFFFFFF80
566CFFF96630
000AFFF50000
000AFFF50000
000AFFF50000
000AFFF50000
000AFFF50000
000AFFF50000
233BFFF63310
DFFFFFFFFF80
DFFFFFFFFF80
DFFFFFFFFF80
788DFFFB8840
000AFFF50000
000AFFF50000
000AFFF50000
000AFFF50000
0008CCC40000
ENDCHAR
STARTCHAR bullet
ENCODING 8226
SWIDTH 354 0
DWIDTH 10 0
BBX 6 6 2 7
BITMAP
09EE80
8FFFF7
DFFFFC
CFFFFC
6FFFF5
05BB50
ENDCHAR
STARTCHAR ellipsis
ENCODING 8230
SWIDTH 789 0
DWIDTH 22 0
BBX 20 5 1 -1
BITMAP
05A81000299300007A60
5FFFA001EFFE1009FFF6
9FFFE004FFFF500DFFFA
7FFFC001FFFF200AFFF8
09EB20005DD60002BEA1
ENDCHAR
STARTCHAR perthousand
ENCODING 8240
SWIDTH 998 0
DWIDTH 28 0
BBX 26 21 1 -1
BITMAP
02ADDA20000059940000000000
1EFFFFE20001EFE10000000000
8FFDCFF90008FF700000000000
CFE10DFD002FFD000000000000
DFB00AFE00AFF5000000000000
DFB00AFE03FFC0000000000000
CFE00DFD0BFF40000000000000
8FFCCFF94FFA00000000000000
1EFFFFE2CFF200000000000000
02AEEB36FF9000000000000000
0000001DFE1389710000599600
0000007FF77FFFFE200BFFFFC0
000001EFE2FFFFFFB06FFFFFF7
000009FF67FF60BFF1BFF32EFC
00002FFD09FF106FF3DFC00AFE
0000AFF409FF006FF3DFB00AFF
0003FFB008FF207FF2CFD00BFD
000CFF3005FFB6EFE09FF87FFA
005FFA0000DFFFFF803FFFFFF4
00DFF200003DFFFA0005EFFE70
00000000000034200000134100
ENDCHAR
STARTCHAR guilsinglleft
ENCODING 8249
SWIDTH 403 0
DWIDTH 11 0
BBX 10 15 0 0
BITMAP
0000000100
0000002E70
000002DFF8
00002DFFFB
0001DFFFB1
001CFFFB10
01CFFFB100
1CFFFC1000
1CFFFE3000
01BFFFE400
000AFFFF50
0000AFFFF6
000009FFFC
0000008FD2
0000000720
ENDCHAR
STARTCHAR guilsinglright
ENCODING 8250
SWIDTH 402 0
DWIDTH 11 0
BBX 10 15 1 0
BITMAP
0010000000
04E5000000
4EFF500000
7FFFF40000
07FFFE4000
008FFFE300
0008FFFE30
00008FFFE3
0001BFFFE3
001CFFFD20
02DFFFD200
3DFFFC1000
8FFFC10000
0AFB100000
0081000000
ENDCHAR
STARTCHAR fraction
ENCODING 8260
SWIDTH 477 0
DWIDTH 13 0
BBX 14 20 0 0
BITMAP
00000000005993
0000000001EFD1
0000000009FF60
000000002FFC00
00000000AFF400
00000003FFB000
0000000CFF3000
0000005FFA0000
000000DFF20000
000006FF800000
00001EFE100000
00008FF7000000
0002EFD0000000
0009FF50000000
003FFC00000000
00BFF400000000
04FFB000000000
0CFF2000000000
5FF90000000000
DFE10000000000
ENDCHAR
STARTCHAR Euro
ENCODING 8364
SWIDTH 806 0
DWIDTH 23 0
BBX 21 21 1 -1
BITMAP
000000000059CDCB720000
000000005DFFFFFFFFA200
0000000AFFFFFFFFFFFE20
000000BFFFFFFFFFFFFC00
000008FFFFE83125AFF300
00002FFFFB100000058000
04CCDFFFFCCCC100000000
09FFFFFFFFFFD000000000
0CFFFFFFFFFFA000000000
0AACFFFDAAAA5000000000
0005FFF800000000000000
6FFFFFFFFFFF1000000000
AFFFFFFFFFFC0000000000
DFFFFFFFFFF90000000000
66669FFFFA630000002000
00000DFFFF7000002BD000
000003FFFFFEA89CFFF700
0000005FFFFFFFFFFFFE20
00000003DFFFFFFFFFF910
0000000007DFFFFFFA3000
0000000000025654100000
ENDCHAR
STARTCHAR trademark
ENCODING 8482
SWIDTH 606 0
DWIDTH 17 0
BBX 15 8 1 12
BITMAP
4AAAAA318A59A300
4CDFCC39ECFEDE00
004F200C91F64F30
004F200D80F63F30
004F200D80F63F30
004F200D80F63F30
004F200D80F63F30
0026100530621610
ENDCHAR
STARTCHAR partialdiff
ENCODING 8706
SWIDTH 609 0
DWIDTH 17 0
BBX 15 23 1 -1
BITMAP
0000045553000000
000007FFFF200000
000000CFFFA00000
0000003FFFF40000
00000008FFFB0000
00000001EFFF4000
000000016FFFB000
00017CFFEFFFF200
003DFFFFFFFFF800
03EFFFFFFFFFFD00
0DFFFFB9BFFFFF30
6FFFD30004EFFF70
BFFF5000006FFFB0
EFFD0000000EFFC0
FFFC0000000DFFE0
EFFD0000000EFFD0
BFFF4000005FFFA0
7FFFD30003EFFF50
1EFFFF97AFFFFD00
04FFFFFFFFFFF300
005EFFFFFFFE4000
0002AEFFFE920000
0000003430000000
ENDCHAR
STARTCHAR product
ENCODING 8719
SWIDTH 632 0
DWIDTH 18 0
BBX 16 20 1 0
BITMAP
9999999999999997
EFFFFFFFFFFFFFFB
EFFFFFFFFFFFFFFB
EFFFFFFFFFFFFFFB
459FFFA55CFFF653
007FFF700BFFF300
007FFF700BFFF300
007FFF700BFFF300
007FFF700BFFF300
007FFF700BFFF300
007FFF700BFFF300
007FFF700BFFF300
007FFF700BFFF300
007FFF700BFFF300
007FFF700BFFF300
007FFF700BFFF300
007FFF700BFFF300
007FFF700BFFF300
007FFF700BFFF300
007FFF700BFFF300
ENDCHAR
STARTCHAR minus
ENCODING 8722
SWIDTH 543 0
DWIDTH 15 0
BBX 13 4 1 8
BITMAP
1CCCCCCCCCCC40
2FFFFFFFFFFF50
2FFFFFFFFFFF50
2EEEEEEEEEEE50
ENDCHAR
STARTCHAR infinity
ENCODING 8734
SWIDTH 771 0
DWIDTH 22 0
BBX 20 13 1 3
BITMAP
00016872000047730000
006EFFFF903DFFFFC200
06FFFFFFFBEFFFFFFD10
1FFFFFFFFFFFFFFFFFA0
7FFFB49FFFFF96AFFFF1
BFFF1009FFFA0009FFF5
CFFD0001FFF80004FFF6
BFFF1000EFFD0005FFF6
9FFFA105FFFF901CFFF3
3FFFFFFFFFFFFEFFFFD0
0AFFFFFFFFFFFFFFFF50
01BFFFFFF49FFFFFF700
0006BDD92004BEEB4000
ENDCHAR
STARTCHAR approxequal
ENCODING 8776
SWIDTH 476 0
DWIDTH 13 0
BBX 11 12 1 4
BITMAP
002540013520
07FFFC15FF80
2FFFFFCBFF90
4FFFDFFFFF70
3FFC08FFFE10
0BBA005A8200
002530013520
07FFFB15FF80
2FFFFFCBFF90
4FFFDFFFFF70
3FFC08FFFE10
0BCA005A9200
ENDCHAR
STARTCHAR notequal
ENCODING 8800
SWIDTH 512 0
DWIDTH 14 0
BBX 12 18 1 1
BITMAP
000000013330
00000009FFD0
0000000EFF80
0000005FFF20
588888CFFE87
9FFFFFFFFFFD
9FFFFFFFFFFD
9FFFFFFFFFFD
12226FFF5222
00009FFD0000
9EEEFFFFEEED
9FFFFFFFFFFD
9FFFFFFFFFFD
7CCFFFCCCCCA
007FFE000000
00DFF9000000
04FFF3000000
08DDC0000000
ENDCHAR
STARTCHAR fi
ENCODING 64257
SWIDTH 650 0
DWIDTH 18 0
BBX 18 22 0 0
BITMAP
0000005ACDDA001000
00002CFFFFFC09FF70
0002EFFFFFFC5FFFF3
000BFFFFEDDA8FFFF6
003FFFE500004FFFF2
007FFF70000005CB40
008FFF300000000000
4ADFFFBAAAAAAAAA80
6FFFFFFFFFFFFFFFC0
6FFFFFFFFFFFFFFFC0
6FFFFFFFFFFFFFFFC0
019FFF4111111EFFC0
008FFF3000000EFFC0
008FFF3000000EFFC0
008FFF3000000EFFC0
008FFF3000000EFFC0
008FFF3000000EFFC0
008FFF3000000EFFC0
008FFF3000000EFFC0
008FFF3000000EFFC0
008FFF3000000EFFC0
008FFF3000000EFFC0
ENDCHAR
STARTCHAR fl
ENCODING 64258
SWIDTH 631 0
DWIDTH 18 0
BBX 17 22 0 0
BITMAP
0000005ACDDDDDDD40
00002CFFFFFFFFFF40
0002EFFFFFFFFFFF40
000BFFFFEDDDEFFF40
003FFFE500007FFF40
007FFF7000007FFF40
008FFF3000007FFF40
4ADFFFBAAA707FFF40
6FFFFFFFFFB07FFF40
6FFFFFFFFFB07FFF40
6FFFFFFFFFB07FFF40
019FFF4111107FFF40
008FFF3000007FFF40
008FFF3000007FFF40
008FFF3000007FFF40
008FFF3000007FFF40
008FFF3000007FFF40
008FFF3000007FFF40
008FFF3000007FFF40
008FFF3000007FFF40
008FFF3000007FFF40
008FFF3000007FFF40
ENDCHAR
STARTCHAR .notdef
ENCODING -1
SWIDTH 279 0
DWIDTH 8 0
BBX 1 1 0 0
BITMAP
00
ENDCHAR
STARTCHAR .null
ENCODING -1
SWIDTH 0 0
DWIDTH 0 0
BBX 1 1 0 0
BITMAP
00
ENDCHAR
STARTCHAR nonmarkingreturn
ENCODING -1
SWIDTH 279 0
DWIDTH 8 0
BBX 1 1 0 0
BITMAP
00
ENDCHAR
ENDFONT
